<svg width="31" height="26" viewBox="0 0 31 26" fill="none" xmlns="http://www.w3.org/2000/svg">
<mask id="path-1-outside-1_204_5285" maskUnits="userSpaceOnUse" x="-0.829956" y="-0.290039" width="32" height="26" fill="black">
<rect fill="white" x="-0.829956" y="-0.290039" width="32" height="26"/>
<path d="M9.94004 24.07C8.16004 24.07 6.60004 23.59 5.26004 22.63C3.92004 21.65 2.87004 20.3 2.11004 18.58C1.37004 16.84 1.00004 14.82 1.00004 12.52C1.00004 10.2 1.37004 8.17996 2.11004 6.45996C2.87004 4.73996 3.91004 3.39996 5.23004 2.43996C6.57004 1.47996 8.13004 0.99996 9.91004 0.99996C11.69 0.99996 13.24 1.47996 14.56 2.43996C15.9 3.39996 16.94 4.74996 17.68 6.48996C18.44 8.20996 18.82 10.22 18.82 12.52C18.82 14.82 18.45 16.84 17.71 18.58C16.97 20.3 15.93 21.65 14.59 22.63C13.27 23.59 11.72 24.07 9.94004 24.07ZM9.94004 20.83C11.04 20.83 11.99 20.49 12.79 19.81C13.59 19.13 14.21 18.17 14.65 16.93C15.09 15.69 15.31 14.22 15.31 12.52C15.31 10.82 15.09 9.34996 14.65 8.10996C14.21 6.86996 13.59 5.90996 12.79 5.22996C11.99 4.54996 11.03 4.20996 9.91004 4.20996C8.81004 4.20996 7.86004 4.54996 7.06004 5.22996C6.26004 5.90996 5.64004 6.86996 5.20004 8.10996C4.76004 9.34996 4.54004 10.82 4.54004 12.52C4.54004 14.2 4.76004 15.67 5.20004 16.93C5.64004 18.17 6.26004 19.13 7.06004 19.81C7.88004 20.49 8.84004 20.83 9.94004 20.83ZM25.9247 23.71V4.35996H21.6347V1.35996H29.4347V23.71H25.9247Z"/>
</mask>
<path d="M5.26004 22.63L4.6697 23.4372L4.67766 23.4429L5.26004 22.63ZM2.11004 18.58L1.18972 18.9714L1.19536 18.9841L2.11004 18.58ZM2.11004 6.45996L1.19531 6.05578L1.19145 6.06475L2.11004 6.45996ZM5.23004 2.43996L4.64764 1.62703L4.64187 1.63122L5.23004 2.43996ZM14.56 2.43996L13.9719 3.24872L13.9777 3.25287L14.56 2.43996ZM17.68 6.48996L16.7597 6.88136L16.7654 6.89412L17.68 6.48996ZM17.71 18.58L18.6286 18.9752L18.6303 18.9713L17.71 18.58ZM14.59 22.63L15.1782 23.4387L15.1804 23.4371L14.59 22.63ZM12.79 19.81L12.1424 19.048L12.79 19.81ZM14.65 8.10996L15.5925 7.77555L14.65 8.10996ZM12.79 5.22996L13.4377 4.46802L13.4377 4.46802L12.79 5.22996ZM7.06004 5.22996L6.4124 4.46802L6.4124 4.46802L7.06004 5.22996ZM5.20004 8.10996L4.25762 7.77555L5.20004 8.10996ZM5.20004 16.93L4.25594 17.2596L4.25762 17.2644L5.20004 16.93ZM7.06004 19.81L6.41235 20.572L6.42171 20.5797L7.06004 19.81ZM9.94004 24.07V23.07C8.35135 23.07 6.99884 22.6455 5.84243 21.817L5.26004 22.63L4.67766 23.4429C6.20125 24.5344 7.96874 25.07 9.94004 25.07V24.07ZM5.26004 22.63L5.85036 21.8228C4.66995 20.9595 3.72341 19.757 3.02473 18.1758L2.11004 18.58L1.19536 18.9841C2.01668 20.8429 3.17014 22.3404 4.66973 23.4371L5.26004 22.63ZM2.11004 18.58L3.03028 18.1886C2.35299 16.5961 2.00004 14.7139 2.00004 12.52H1.00004H4.41074e-05C4.41074e-05 14.9261 0.387095 17.0839 1.18981 18.9713L2.11004 18.58ZM1.00004 12.52H2.00004C2.00004 10.3043 2.35354 8.42431 3.02864 6.85517L2.11004 6.45996L1.19145 6.06475C0.386547 7.93561 4.41074e-05 10.0956 4.41074e-05 12.52H1.00004ZM2.11004 6.45996L3.02473 6.86412C3.72446 5.28054 4.66131 4.09008 5.81822 3.2487L5.23004 2.43996L4.64187 1.63122C3.15878 2.70984 2.01563 4.19938 1.19536 6.0558L2.11004 6.45996ZM5.23004 2.43996L5.81243 3.25287C6.96884 2.4244 8.32135 1.99996 9.91004 1.99996V0.99996V-4.00543e-05C7.93874 -4.00543e-05 6.17125 0.53552 4.64766 1.62705L5.23004 2.43996ZM9.91004 0.99996V1.99996C11.4989 1.99996 12.8384 2.42437 13.9719 3.2487L14.56 2.43996L15.1482 1.63122C13.6417 0.535553 11.8812 -4.00543e-05 9.91004 -4.00543e-05V0.99996ZM14.56 2.43996L13.9777 3.25287C15.1476 4.09105 16.0809 5.28485 16.7598 6.88133L17.68 6.48996L18.6003 6.0986C17.7992 4.21507 16.6525 2.70887 15.1424 1.62705L14.56 2.43996ZM17.68 6.48996L16.7654 6.89412C17.458 8.46173 17.82 10.3288 17.82 12.52H18.82H19.82C19.82 10.1111 19.4221 7.95819 18.5947 6.0858L17.68 6.48996ZM18.82 12.52H17.82C17.82 14.7139 17.4671 16.5961 16.7898 18.1886L17.71 18.58L18.6303 18.9713C19.433 17.0839 19.82 14.9261 19.82 12.52H18.82ZM17.71 18.58L16.7915 18.1848C16.1129 19.762 15.1777 20.9613 13.9997 21.8228L14.59 22.63L15.1804 23.4371C16.6824 22.3386 17.8272 20.8379 18.6286 18.9752L17.71 18.58ZM14.59 22.63L14.0019 21.8212C12.8684 22.6456 11.5289 23.07 9.94004 23.07V24.07V25.07C11.9112 25.07 13.6717 24.5344 15.1782 23.4387L14.59 22.63ZM9.94004 20.83V21.83C11.265 21.83 12.4477 21.4134 13.4377 20.5719L12.79 19.81L12.1424 19.048C11.5324 19.5666 10.8151 19.83 9.94004 19.83V20.83ZM12.79 19.81L13.4377 20.5719C14.4019 19.7524 15.1083 18.6289 15.5925 17.2644L14.65 16.93L13.7076 16.5956C13.3118 17.7111 12.7782 18.5076 12.1424 19.048L12.79 19.81ZM14.65 16.93L15.5925 17.2644C16.0799 15.8908 16.31 14.3023 16.31 12.52H15.31H14.31C14.31 14.1376 14.1002 15.4891 13.7076 16.5956L14.65 16.93ZM15.31 12.52H16.31C16.31 10.7376 16.0799 9.14911 15.5925 7.77555L14.65 8.10996L13.7076 8.44437C14.1002 9.55081 14.31 10.9023 14.31 12.52H15.31ZM14.65 8.10996L15.5925 7.77555C15.1083 6.41107 14.4019 5.28757 13.4377 4.46802L12.79 5.22996L12.1424 5.9919C12.7782 6.53235 13.3118 7.32885 13.7076 8.44437L14.65 8.10996ZM12.79 5.22996L13.4377 4.46802C12.4443 3.6236 11.2502 3.20996 9.91004 3.20996V4.20996V5.20996C10.8099 5.20996 11.5358 5.47632 12.1424 5.9919L12.79 5.22996ZM9.91004 4.20996V3.20996C8.58505 3.20996 7.40235 3.62656 6.4124 4.46802L7.06004 5.22996L7.70769 5.9919C8.31774 5.47336 9.03504 5.20996 9.91004 5.20996V4.20996ZM7.06004 5.22996L6.4124 4.46802C5.44822 5.28757 4.74179 6.41107 4.25762 7.77555L5.20004 8.10996L6.14247 8.44437C6.5383 7.32885 7.07187 6.53235 7.70769 5.9919L7.06004 5.22996ZM5.20004 8.10996L4.25762 7.77555C3.77023 9.14911 3.54004 10.7376 3.54004 12.52H4.54004H5.54004C5.54004 10.9023 5.74986 9.55081 6.14247 8.44437L5.20004 8.10996ZM4.54004 12.52H3.54004C3.54004 14.2844 3.77078 15.8703 4.25595 17.2596L5.20004 16.93L6.14414 16.6003C5.74931 15.4696 5.54004 14.1155 5.54004 12.52H4.54004ZM5.20004 16.93L4.25762 17.2644C4.74179 18.6289 5.44822 19.7524 6.4124 20.5719L7.06004 19.81L7.70769 19.048C7.07187 18.5076 6.5383 17.7111 6.14247 16.5956L5.20004 16.93ZM7.06004 19.81L6.42171 20.5797C7.42741 21.4137 8.6152 21.83 9.94004 21.83V20.83V19.83C9.06489 19.83 8.33268 19.5662 7.69838 19.0402L7.06004 19.81ZM25.9247 23.71H24.9247V24.71H25.9247V23.71ZM25.9247 4.35996H26.9247V3.35996H25.9247V4.35996ZM21.6347 4.35996H20.6347V5.35996H21.6347V4.35996ZM21.6347 1.35996V0.359959H20.6347V1.35996H21.6347ZM29.4347 1.35996H30.4347V0.359959H29.4347V1.35996ZM29.4347 23.71V24.71H30.4347V23.71H29.4347ZM25.9247 23.71H26.9247V4.35996H25.9247H24.9247V23.71H25.9247ZM25.9247 4.35996V3.35996H21.6347V4.35996V5.35996H25.9247V4.35996ZM21.6347 4.35996H22.6347V1.35996H21.6347H20.6347V4.35996H21.6347ZM21.6347 1.35996V2.35996H29.4347V1.35996V0.359959H21.6347V1.35996ZM29.4347 1.35996H28.4347V23.71H29.4347H30.4347V1.35996H29.4347ZM29.4347 23.71V22.71H25.9247V23.71V24.71H29.4347V23.71Z" fill="white" mask="url(#path-1-outside-1_204_5285)"/>
</svg>
