<svg width="38" height="26" viewBox="0 0 38 26" fill="none" xmlns="http://www.w3.org/2000/svg">
<mask id="path-1-outside-1_204_5299" maskUnits="userSpaceOnUse" x="-0.830017" y="-0.290039" width="39" height="26" fill="black">
<rect fill="white" x="-0.830017" y="-0.290039" width="39" height="26"/>
<path d="M9.93998 24.07C8.15998 24.07 6.59998 23.59 5.25998 22.63C3.91998 21.65 2.86998 20.3 2.10998 18.58C1.36998 16.84 0.999983 14.82 0.999983 12.52C0.999983 10.2 1.36998 8.17996 2.10998 6.45996C2.86998 4.73996 3.90998 3.39996 5.22998 2.43996C6.56998 1.47996 8.12998 0.99996 9.90998 0.99996C11.69 0.99996 13.24 1.47996 14.56 2.43996C15.9 3.39996 16.94 4.74996 17.68 6.48996C18.44 8.20996 18.82 10.22 18.82 12.52C18.82 14.82 18.45 16.84 17.71 18.58C16.97 20.3 15.93 21.65 14.59 22.63C13.27 23.59 11.72 24.07 9.93998 24.07ZM9.93998 20.83C11.04 20.83 11.99 20.49 12.79 19.81C13.59 19.13 14.21 18.17 14.65 16.93C15.09 15.69 15.31 14.22 15.31 12.52C15.31 10.82 15.09 9.34996 14.65 8.10996C14.21 6.86996 13.59 5.90996 12.79 5.22996C11.99 4.54996 11.03 4.20996 9.90998 4.20996C8.80998 4.20996 7.85998 4.54996 7.05998 5.22996C6.25998 5.90996 5.63998 6.86996 5.19998 8.10996C4.75998 9.34996 4.53998 10.82 4.53998 12.52C4.53998 14.2 4.75998 15.67 5.19998 16.93C5.63998 18.17 6.25998 19.13 7.05998 19.81C7.87998 20.49 8.83998 20.83 9.93998 20.83ZM22.1446 23.71V21.16L28.2646 14.62C29.4646 13.34 30.4046 12.31 31.0846 11.53C31.7846 10.73 32.2846 10.03 32.5846 9.42996C32.9046 8.82996 33.0646 8.19996 33.0646 7.53996C33.0646 6.45996 32.7346 5.62996 32.0746 5.04996C31.4146 4.44996 30.5646 4.14996 29.5246 4.14996C28.4446 4.14996 27.5146 4.45996 26.7346 5.07996C25.9546 5.67996 25.4146 6.55996 25.1146 7.71996L21.9946 6.81996C22.2346 5.63996 22.7146 4.61996 23.4346 3.75996C24.1546 2.87996 25.0346 2.19996 26.0746 1.71996C27.1346 1.23996 28.2746 0.99996 29.4946 0.99996C30.9146 0.99996 32.1546 1.26996 33.2146 1.80996C34.2746 2.32996 35.0946 3.05996 35.6746 3.99996C36.2746 4.93996 36.5746 6.02996 36.5746 7.26996C36.5746 8.08996 36.4146 8.88996 36.0946 9.66996C35.7946 10.43 35.3246 11.24 34.6846 12.1C34.0446 12.94 33.2246 13.89 32.2246 14.95L26.8246 20.71H36.9946V23.71H22.1446Z"/>
</mask>
<path d="M5.25998 22.63L4.66964 23.4372L4.6776 23.4429L5.25998 22.63ZM2.10998 18.58L1.18966 18.9714L1.1953 18.9841L2.10998 18.58ZM2.10998 6.45996L1.19525 6.05578L1.19139 6.06475L2.10998 6.45996ZM5.22998 2.43996L4.64758 1.62703L4.64181 1.63122L5.22998 2.43996ZM14.56 2.43996L13.9718 3.24872L13.9776 3.25287L14.56 2.43996ZM17.68 6.48996L16.7597 6.88136L16.7653 6.89412L17.68 6.48996ZM17.71 18.58L18.6286 18.9752L18.6302 18.9713L17.71 18.58ZM14.59 22.63L15.1782 23.4387L15.1803 23.4371L14.59 22.63ZM12.79 19.81L12.1423 19.048L12.79 19.81ZM14.65 8.10996L15.5924 7.77555L14.65 8.10996ZM12.79 5.22996L13.4376 4.46802L13.4376 4.46802L12.79 5.22996ZM7.05998 5.22996L6.41233 4.46802L6.41233 4.46802L7.05998 5.22996ZM5.19998 8.10996L4.25756 7.77555L5.19998 8.10996ZM5.19998 16.93L4.25588 17.2596L4.25756 17.2644L5.19998 16.93ZM7.05998 19.81L6.41229 20.572L6.42165 20.5797L7.05998 19.81ZM9.93998 24.07V23.07C8.35129 23.07 6.99878 22.6455 5.84237 21.817L5.25998 22.63L4.6776 23.4429C6.20119 24.5344 7.96868 25.07 9.93998 25.07V24.07ZM5.25998 22.63L5.8503 21.8228C4.66989 20.9595 3.72335 19.757 3.02467 18.1758L2.10998 18.58L1.1953 18.9841C2.01662 20.8429 3.17008 22.3404 4.66966 23.4371L5.25998 22.63ZM2.10998 18.58L3.03022 18.1886C2.35293 16.5961 1.99998 14.7139 1.99998 12.52H0.999983H-1.69277e-05C-1.69277e-05 14.9261 0.387034 17.0839 1.18975 18.9713L2.10998 18.58ZM0.999983 12.52H1.99998C1.99998 10.3043 2.35348 8.42431 3.02857 6.85517L2.10998 6.45996L1.19139 6.06475C0.386486 7.93561 -1.69277e-05 10.0956 -1.69277e-05 12.52H0.999983ZM2.10998 6.45996L3.02467 6.86412C3.72439 5.28054 4.66125 4.09008 5.81816 3.2487L5.22998 2.43996L4.64181 1.63122C3.15872 2.70984 2.01557 4.19938 1.1953 6.0558L2.10998 6.45996ZM5.22998 2.43996L5.81237 3.25287C6.96878 2.4244 8.32129 1.99996 9.90998 1.99996V0.99996V-4.00543e-05C7.93868 -4.00543e-05 6.17119 0.53552 4.6476 1.62705L5.22998 2.43996ZM9.90998 0.99996V1.99996C11.4988 1.99996 12.8384 2.42437 13.9718 3.2487L14.56 2.43996L15.1482 1.63122C13.6416 0.535553 11.8811 -4.00543e-05 9.90998 -4.00543e-05V0.99996ZM14.56 2.43996L13.9776 3.25287C15.1476 4.09105 16.0808 5.28485 16.7597 6.88133L17.68 6.48996L18.6002 6.0986C17.7992 4.21507 16.6524 2.70887 15.1424 1.62705L14.56 2.43996ZM17.68 6.48996L16.7653 6.89412C17.458 8.46173 17.82 10.3288 17.82 12.52H18.82H19.82C19.82 10.1111 19.422 7.95819 18.5947 6.0858L17.68 6.48996ZM18.82 12.52H17.82C17.82 14.7139 17.467 16.5961 16.7897 18.1886L17.71 18.58L18.6302 18.9713C19.4329 17.0839 19.82 14.9261 19.82 12.52H18.82ZM17.71 18.58L16.7914 18.1848C16.1128 19.762 15.1776 20.9613 13.9997 21.8228L14.59 22.63L15.1803 23.4371C16.6823 22.3386 17.8272 20.8379 18.6286 18.9752L17.71 18.58ZM14.59 22.63L14.0018 21.8212C12.8684 22.6456 11.5288 23.07 9.93998 23.07V24.07V25.07C11.9111 25.07 13.6716 24.5344 15.1782 23.4387L14.59 22.63ZM9.93998 20.83V21.83C11.265 21.83 12.4477 21.4134 13.4376 20.5719L12.79 19.81L12.1423 19.048C11.5323 19.5666 10.815 19.83 9.93998 19.83V20.83ZM12.79 19.81L13.4376 20.5719C14.4018 19.7524 15.1082 18.6289 15.5924 17.2644L14.65 16.93L13.7076 16.5956C13.3117 17.7111 12.7782 18.5076 12.1423 19.048L12.79 19.81ZM14.65 16.93L15.5924 17.2644C16.0798 15.8908 16.31 14.3023 16.31 12.52H15.31H14.31C14.31 14.1376 14.1002 15.4891 13.7076 16.5956L14.65 16.93ZM15.31 12.52H16.31C16.31 10.7376 16.0798 9.14911 15.5924 7.77555L14.65 8.10996L13.7076 8.44437C14.1002 9.55081 14.31 10.9023 14.31 12.52H15.31ZM14.65 8.10996L15.5924 7.77555C15.1082 6.41107 14.4018 5.28757 13.4376 4.46802L12.79 5.22996L12.1423 5.9919C12.7782 6.53235 13.3117 7.32885 13.7076 8.44437L14.65 8.10996ZM12.79 5.22996L13.4376 4.46802C12.4442 3.6236 11.2501 3.20996 9.90998 3.20996V4.20996V5.20996C10.8098 5.20996 11.5358 5.47632 12.1423 5.9919L12.79 5.22996ZM9.90998 4.20996V3.20996C8.58499 3.20996 7.40229 3.62656 6.41233 4.46802L7.05998 5.22996L7.70763 5.9919C8.31768 5.47336 9.03498 5.20996 9.90998 5.20996V4.20996ZM7.05998 5.22996L6.41233 4.46802C5.44816 5.28757 4.74173 6.41107 4.25756 7.77555L5.19998 8.10996L6.14241 8.44437C6.53824 7.32885 7.07181 6.53235 7.70763 5.9919L7.05998 5.22996ZM5.19998 8.10996L4.25756 7.77555C3.77016 9.14911 3.53998 10.7376 3.53998 12.52H4.53998H5.53998C5.53998 10.9023 5.7498 9.55081 6.14241 8.44437L5.19998 8.10996ZM4.53998 12.52H3.53998C3.53998 14.2844 3.77072 15.8703 4.25589 17.2596L5.19998 16.93L6.14407 16.6003C5.74925 15.4696 5.53998 14.1155 5.53998 12.52H4.53998ZM5.19998 16.93L4.25756 17.2644C4.74173 18.6289 5.44816 19.7524 6.41233 20.5719L7.05998 19.81L7.70763 19.048C7.07181 18.5076 6.53824 17.7111 6.14241 16.5956L5.19998 16.93ZM7.05998 19.81L6.42165 20.5797C7.42735 21.4137 8.61514 21.83 9.93998 21.83V20.83V19.83C9.06483 19.83 8.33262 19.5662 7.69832 19.0402L7.05998 19.81ZM22.1446 23.71H21.1446V24.71H22.1446V23.71ZM22.1446 21.16L21.4144 20.4767L21.1446 20.765V21.16H22.1446ZM28.2646 14.62L27.5351 13.936L27.5344 13.9367L28.2646 14.62ZM31.0846 11.53L30.332 10.8715L30.3308 10.8728L31.0846 11.53ZM32.5846 9.42996L31.7022 8.95937L31.696 8.97098L31.6902 8.98275L32.5846 9.42996ZM32.0746 5.04996L31.4019 5.7899L31.4082 5.79557L31.4145 5.80113L32.0746 5.04996ZM26.7346 5.07996L27.3443 5.87258L27.3506 5.86773L27.3568 5.86278L26.7346 5.07996ZM25.1146 7.71996L24.8374 8.68078L25.8253 8.96575L26.0827 7.97034L25.1146 7.71996ZM21.9946 6.81996L21.0147 6.62065L20.8307 7.525L21.7174 7.78078L21.9946 6.81996ZM23.4346 3.75996L24.2014 4.40194L24.2085 4.3932L23.4346 3.75996ZM26.0746 1.71996L25.6621 0.808982L25.6555 0.812L26.0746 1.71996ZM33.2146 1.80996L32.7607 2.701L32.7674 2.70443L32.7742 2.70775L33.2146 1.80996ZM35.6746 3.99996L34.8236 4.52507L34.8276 4.53156L34.8317 4.538L35.6746 3.99996ZM36.0946 9.66996L35.1693 9.29037L35.1644 9.30279L36.0946 9.66996ZM34.6846 12.1L35.4801 12.706L35.4868 12.697L34.6846 12.1ZM32.2246 14.95L31.4972 14.2637L31.4951 14.266L32.2246 14.95ZM26.8246 20.71L26.0951 20.026L24.5164 21.71H26.8246V20.71ZM36.9946 20.71H37.9946V19.71H36.9946V20.71ZM36.9946 23.71V24.71H37.9946V23.71H36.9946ZM22.1446 23.71H23.1446V21.16H22.1446H21.1446V23.71H22.1446ZM22.1446 21.16L22.8748 21.8432L28.9948 15.3032L28.2646 14.62L27.5344 13.9367L21.4144 20.4767L22.1446 21.16ZM28.2646 14.62L28.9941 15.3039C30.1976 14.0202 31.1469 12.9803 31.8384 12.1871L31.0846 11.53L30.3308 10.8728C29.6623 11.6397 28.7316 12.6597 27.5351 13.936L28.2646 14.62ZM31.0846 11.53L31.8372 12.1885C32.5647 11.357 33.1255 10.5843 33.479 9.87717L32.5846 9.42996L31.6902 8.98275C31.4437 9.47563 31.0045 10.1029 30.332 10.8715L31.0846 11.53ZM32.5846 9.42996L33.4669 9.90055C33.8618 9.16028 34.0646 8.36919 34.0646 7.53996H33.0646H32.0646C32.0646 8.03073 31.9474 8.49964 31.7022 8.95937L32.5846 9.42996ZM33.0646 7.53996H34.0646C34.0646 6.24384 33.6592 5.11124 32.7347 4.29879L32.0746 5.04996L31.4145 5.80113C31.81 6.14868 32.0646 6.67608 32.0646 7.53996H33.0646ZM32.0746 5.04996L32.7473 4.31002C31.8731 3.5153 30.7694 3.14996 29.5246 3.14996V4.14996V5.14996C30.3598 5.14996 30.9561 5.38462 31.4019 5.7899L32.0746 5.04996ZM29.5246 4.14996V3.14996C28.2388 3.14996 27.0845 3.52441 26.1123 4.29714L26.7346 5.07996L27.3568 5.86278C27.9447 5.39551 28.6503 5.14996 29.5246 5.14996V4.14996ZM26.7346 5.07996L26.1249 4.28734C25.1325 5.05067 24.4897 6.14221 24.1464 7.46958L25.1146 7.71996L26.0827 7.97034C26.3395 6.97771 26.7766 6.30925 27.3443 5.87258L26.7346 5.07996ZM25.1146 7.71996L25.3918 6.75914L22.2718 5.85914L21.9946 6.81996L21.7174 7.78078L24.8374 8.68078L25.1146 7.71996ZM21.9946 6.81996L22.9745 7.01927C23.1839 5.9899 23.5959 5.12506 24.2013 4.4019L23.4346 3.75996L22.6678 3.11802C21.8333 4.11486 21.2853 5.29002 21.0147 6.62065L21.9946 6.81996ZM23.4346 3.75996L24.2085 4.3932C24.8319 3.63138 25.5902 3.0449 26.4937 2.62792L26.0746 1.71996L25.6555 0.812C24.479 1.35501 23.4773 2.12854 22.6606 3.12672L23.4346 3.75996ZM26.0746 1.71996L26.4871 2.63091C27.4112 2.21244 28.4098 1.99996 29.4946 1.99996V0.99996V-4.00543e-05C28.1394 -4.00543e-05 26.858 0.267478 25.6621 0.809005L26.0746 1.71996ZM29.4946 0.99996V1.99996C30.7871 1.99996 31.866 2.24523 32.7607 2.701L33.2146 1.80996L33.6685 0.918921C32.4432 0.294693 31.042 -4.00543e-05 29.4946 -4.00543e-05V0.99996ZM33.2146 1.80996L32.7742 2.70775C33.6771 3.15069 34.3494 3.75668 34.8236 4.52507L35.6746 3.99996L36.5256 3.47485C35.8397 2.36324 34.8721 1.50923 33.655 0.912171L33.2146 1.80996ZM35.6746 3.99996L34.8317 4.538C35.3178 5.29966 35.5746 6.19855 35.5746 7.26996H36.5746H37.5746C37.5746 5.86137 37.2313 4.58027 36.5175 3.46193L35.6746 3.99996ZM36.5746 7.26996H35.5746C35.5746 7.95608 35.4414 8.62738 35.1694 9.2904L36.0946 9.66996L37.0198 10.0495C37.3878 9.15254 37.5746 8.22384 37.5746 7.26996H36.5746ZM36.0946 9.66996L35.1644 9.30279C34.905 9.96 34.4851 10.693 33.8824 11.5029L34.6846 12.1L35.4868 12.697C36.1641 11.7869 36.6842 10.8999 37.0247 10.0371L36.0946 9.66996ZM34.6846 12.1L33.8892 11.4939C33.2767 12.2978 32.4814 13.2204 31.4972 14.2637L32.2246 14.95L32.952 15.6362C33.9677 14.5595 34.8125 13.5821 35.48 12.706L34.6846 12.1ZM32.2246 14.95L31.4951 14.266L26.0951 20.026L26.8246 20.71L27.5541 21.3939L32.9541 15.6339L32.2246 14.95ZM26.8246 20.71V21.71H36.9946V20.71V19.71H26.8246V20.71ZM36.9946 20.71H35.9946V23.71H36.9946H37.9946V20.71H36.9946ZM36.9946 23.71V22.71H22.1446V23.71V24.71H36.9946V23.71Z" fill="white" mask="url(#path-1-outside-1_204_5299)"/>
</svg>
