<svg width="39" height="26" viewBox="0 0 39 26" fill="none" xmlns="http://www.w3.org/2000/svg">
<mask id="path-1-outside-1_204_5310" maskUnits="userSpaceOnUse" x="-0.830002" y="-0.290039" width="40" height="26" fill="black">
<rect fill="white" x="-0.830002" y="-0.290039" width="40" height="26"/>
<path d="M9.94 24.07C8.16 24.07 6.6 23.59 5.26 22.63C3.92 21.65 2.87 20.3 2.11 18.58C1.37 16.84 0.999998 14.82 0.999998 12.52C0.999998 10.2 1.37 8.17996 2.11 6.45996C2.87 4.73996 3.91 3.39996 5.23 2.43996C6.57 1.47996 8.13 0.99996 9.91 0.99996C11.69 0.99996 13.24 1.47996 14.56 2.43996C15.9 3.39996 16.94 4.74996 17.68 6.48996C18.44 8.20996 18.82 10.22 18.82 12.52C18.82 14.82 18.45 16.84 17.71 18.58C16.97 20.3 15.93 21.65 14.59 22.63C13.27 23.59 11.72 24.07 9.94 24.07ZM9.94 20.83C11.04 20.83 11.99 20.49 12.79 19.81C13.59 19.13 14.21 18.17 14.65 16.93C15.09 15.69 15.31 14.22 15.31 12.52C15.31 10.82 15.09 9.34996 14.65 8.10996C14.21 6.86996 13.59 5.90996 12.79 5.22996C11.99 4.54996 11.03 4.20996 9.91 4.20996C8.81 4.20996 7.86 4.54996 7.06 5.22996C6.26 5.90996 5.64 6.86996 5.2 8.10996C4.76 9.34996 4.54 10.82 4.54 12.52C4.54 14.2 4.76 15.67 5.2 16.93C5.64 18.17 6.26 19.13 7.06 19.81C7.88 20.49 8.84 20.83 9.94 20.83ZM29.4346 24.07C28.2346 24.07 27.1046 23.85 26.0446 23.41C25.0046 22.97 24.1046 22.35 23.3446 21.55C22.6046 20.75 22.0746 19.81 21.7546 18.73L24.7546 17.59C25.1546 18.65 25.7646 19.47 26.5846 20.05C27.4046 20.63 28.3546 20.92 29.4346 20.92C30.3146 20.92 31.0746 20.75 31.7146 20.41C32.3746 20.07 32.8846 19.59 33.2446 18.97C33.6246 18.35 33.8146 17.6 33.8146 16.72C33.8146 15.86 33.6246 15.12 33.2446 14.5C32.8846 13.88 32.3746 13.41 31.7146 13.09C31.0746 12.77 30.3146 12.61 29.4346 12.61C29.0746 12.61 28.7046 12.64 28.3246 12.7C27.9646 12.76 27.6446 12.84 27.3646 12.94L26.5846 11.29L32.4646 4.35996H22.9546V1.35996H36.4246V4.20996L30.6646 11.11L30.5746 9.96996C31.9146 9.98996 33.0946 10.29 34.1146 10.87C35.1346 11.43 35.9246 12.21 36.4846 13.21C37.0646 14.19 37.3546 15.33 37.3546 16.63C37.3546 18.03 37.0146 19.3 36.3346 20.44C35.6546 21.56 34.7146 22.45 33.5146 23.11C32.3346 23.75 30.9746 24.07 29.4346 24.07Z"/>
</mask>
<path d="M5.26 22.63L4.66965 23.4372L4.67761 23.4429L5.26 22.63ZM2.11 18.58L1.18967 18.9714L1.19531 18.9841L2.11 18.58ZM2.11 6.45996L1.19527 6.05578L1.19141 6.06475L2.11 6.45996ZM5.23 2.43996L4.6476 1.62703L4.64183 1.63122L5.23 2.43996ZM14.56 2.43996L13.9718 3.24872L13.9776 3.25287L14.56 2.43996ZM17.68 6.48996L16.7597 6.88136L16.7653 6.89412L17.68 6.48996ZM17.71 18.58L18.6286 18.9752L18.6302 18.9713L17.71 18.58ZM14.59 22.63L15.1782 23.4387L15.1803 23.4371L14.59 22.63ZM12.79 19.81L12.1424 19.048L12.79 19.81ZM14.65 8.10996L15.5924 7.77555L14.65 8.10996ZM12.79 5.22996L13.4376 4.46802L13.4376 4.46802L12.79 5.22996ZM7.06 5.22996L6.41235 4.46802L6.41235 4.46802L7.06 5.22996ZM5.2 8.10996L4.25757 7.77555L5.2 8.10996ZM5.2 16.93L4.25589 17.2596L4.25757 17.2644L5.2 16.93ZM7.06 19.81L6.4123 20.572L6.42166 20.5797L7.06 19.81ZM9.94 24.07V23.07C8.3513 23.07 6.99879 22.6455 5.84238 21.817L5.26 22.63L4.67761 23.4429C6.2012 24.5344 7.96869 25.07 9.94 25.07V24.07ZM5.26 22.63L5.85032 21.8228C4.6699 20.9595 3.72337 19.757 3.02468 18.1758L2.11 18.58L1.19531 18.9841C2.01663 20.8429 3.1701 22.3404 4.66968 23.4371L5.26 22.63ZM2.11 18.58L3.03023 18.1886C2.35295 16.5961 2 14.7139 2 12.52H0.999998H-1.66893e-06C-1.66893e-06 14.9261 0.387049 17.0839 1.18976 18.9713L2.11 18.58ZM0.999998 12.52H2C2 10.3043 2.3535 8.42431 3.02859 6.85517L2.11 6.45996L1.19141 6.06475C0.386501 7.93561 -1.66893e-06 10.0956 -1.66893e-06 12.52H0.999998ZM2.11 6.45996L3.02468 6.86412C3.72441 5.28054 4.66127 4.09008 5.81817 3.2487L5.23 2.43996L4.64183 1.63122C3.15873 2.70984 2.01559 4.19938 1.19531 6.0558L2.11 6.45996ZM5.23 2.43996L5.81238 3.25287C6.96879 2.4244 8.3213 1.99996 9.91 1.99996V0.99996V-4.00543e-05C7.93869 -4.00543e-05 6.1712 0.53552 4.64761 1.62705L5.23 2.43996ZM9.91 0.99996V1.99996C11.4988 1.99996 12.8384 2.42437 13.9718 3.2487L14.56 2.43996L15.1482 1.63122C13.6416 0.535553 11.8812 -4.00543e-05 9.91 -4.00543e-05V0.99996ZM14.56 2.43996L13.9776 3.25287C15.1476 4.09105 16.0808 5.28485 16.7598 6.88133L17.68 6.48996L18.6002 6.0986C17.7992 4.21507 16.6524 2.70887 15.1424 1.62705L14.56 2.43996ZM17.68 6.48996L16.7653 6.89412C17.458 8.46173 17.82 10.3288 17.82 12.52H18.82H19.82C19.82 10.1111 19.422 7.95819 18.5947 6.0858L17.68 6.48996ZM18.82 12.52H17.82C17.82 14.7139 17.4671 16.5961 16.7898 18.1886L17.71 18.58L18.6302 18.9713C19.4329 17.0839 19.82 14.9261 19.82 12.52H18.82ZM17.71 18.58L16.7914 18.1848C16.1128 19.762 15.1777 20.9613 13.9997 21.8228L14.59 22.63L15.1803 23.4371C16.6823 22.3386 17.8272 20.8379 18.6286 18.9752L17.71 18.58ZM14.59 22.63L14.0018 21.8212C12.8684 22.6456 11.5288 23.07 9.94 23.07V24.07V25.07C11.9112 25.07 13.6716 24.5344 15.1782 23.4387L14.59 22.63ZM9.94 20.83V21.83C11.265 21.83 12.4477 21.4134 13.4376 20.5719L12.79 19.81L12.1424 19.048C11.5323 19.5666 10.815 19.83 9.94 19.83V20.83ZM12.79 19.81L13.4376 20.5719C14.4018 19.7524 15.1083 18.6289 15.5924 17.2644L14.65 16.93L13.7076 16.5956C13.3117 17.7111 12.7782 18.5076 12.1424 19.048L12.79 19.81ZM14.65 16.93L15.5924 17.2644C16.0798 15.8908 16.31 14.3023 16.31 12.52H15.31H14.31C14.31 14.1376 14.1002 15.4891 13.7076 16.5956L14.65 16.93ZM15.31 12.52H16.31C16.31 10.7376 16.0798 9.14911 15.5924 7.77555L14.65 8.10996L13.7076 8.44437C14.1002 9.55081 14.31 10.9023 14.31 12.52H15.31ZM14.65 8.10996L15.5924 7.77555C15.1083 6.41107 14.4018 5.28757 13.4376 4.46802L12.79 5.22996L12.1424 5.9919C12.7782 6.53235 13.3117 7.32885 13.7076 8.44437L14.65 8.10996ZM12.79 5.22996L13.4376 4.46802C12.4442 3.6236 11.2502 3.20996 9.91 3.20996V4.20996V5.20996C10.8098 5.20996 11.5358 5.47632 12.1424 5.9919L12.79 5.22996ZM9.91 4.20996V3.20996C8.585 3.20996 7.4023 3.62656 6.41235 4.46802L7.06 5.22996L7.70765 5.9919C8.31769 5.47336 9.03499 5.20996 9.91 5.20996V4.20996ZM7.06 5.22996L6.41235 4.46802C5.44817 5.28757 4.74174 6.41107 4.25757 7.77555L5.2 8.10996L6.14243 8.44437C6.53825 7.32885 7.07182 6.53235 7.70765 5.9919L7.06 5.22996ZM5.2 8.10996L4.25757 7.77555C3.77018 9.14911 3.54 10.7376 3.54 12.52H4.54H5.54C5.54 10.9023 5.74982 9.55081 6.14243 8.44437L5.2 8.10996ZM4.54 12.52H3.54C3.54 14.2844 3.77073 15.8703 4.25591 17.2596L5.2 16.93L6.14409 16.6003C5.74926 15.4696 5.54 14.1155 5.54 12.52H4.54ZM5.2 16.93L4.25757 17.2644C4.74174 18.6289 5.44817 19.7524 6.41235 20.5719L7.06 19.81L7.70765 19.048C7.07182 18.5076 6.53825 17.7111 6.14243 16.5956L5.2 16.93ZM7.06 19.81L6.42166 20.5797C7.42736 21.4137 8.61515 21.83 9.94 21.83V20.83V19.83C9.06484 19.83 8.33263 19.5662 7.69833 19.0402L7.06 19.81ZM26.0446 23.41L25.655 24.3309L25.6612 24.3336L26.0446 23.41ZM23.3446 21.55L22.6104 22.2291L22.6196 22.2387L23.3446 21.55ZM21.7546 18.73L21.3994 17.7952L20.5323 18.1247L20.7958 19.014L21.7546 18.73ZM24.7546 17.59L25.6902 17.2369L25.3363 16.2991L24.3994 16.6552L24.7546 17.59ZM26.5846 20.05L27.1621 19.2335L26.5846 20.05ZM31.7146 20.41L31.2566 19.5209L31.2455 19.5268L31.7146 20.41ZM33.2446 18.97L32.392 18.4474L32.3858 18.4575L32.3798 18.4678L33.2446 18.97ZM33.2446 14.5L32.3798 15.0021L32.3858 15.0124L32.392 15.0225L33.2446 14.5ZM31.7146 13.09L31.2674 13.9845L31.2783 13.9898L31.7146 13.09ZM28.3246 12.7L28.1686 11.7122L28.1602 11.7136L28.3246 12.7ZM27.3646 12.94L26.4605 13.3673L26.8477 14.1864L27.7009 13.8817L27.3646 12.94ZM26.5846 11.29L25.8221 10.643L25.405 11.1345L25.6805 11.7173L26.5846 11.29ZM32.4646 4.35996L33.2271 5.00694L34.6246 3.35996H32.4646V4.35996ZM22.9546 4.35996H21.9546V5.35996H22.9546V4.35996ZM22.9546 1.35996V0.359959H21.9546V1.35996H22.9546ZM36.4246 1.35996H37.4246V0.359959H36.4246V1.35996ZM36.4246 4.20996L37.1923 4.8508L37.4246 4.57249V4.20996H36.4246ZM30.6646 11.11L29.6677 11.1887L29.8607 13.6334L31.4323 11.7508L30.6646 11.11ZM30.5746 9.96996L30.5895 8.97007L29.4913 8.95368L29.5777 10.0487L30.5746 9.96996ZM34.1146 10.87L33.6203 11.7393L33.6268 11.7429L33.6334 11.7465L34.1146 10.87ZM36.4846 13.21L35.6121 13.6986L35.6179 13.709L35.624 13.7193L36.4846 13.21ZM36.3346 20.44L37.1894 20.959L37.1934 20.9522L36.3346 20.44ZM33.5146 23.11L33.9914 23.989L33.9965 23.9862L33.5146 23.11ZM29.4346 24.07V23.07C28.3601 23.07 27.361 22.8736 26.428 22.4864L26.0446 23.41L25.6612 24.3336C26.8483 24.8263 28.1091 25.07 29.4346 25.07V24.07ZM26.0446 23.41L26.4342 22.489C25.5178 22.1013 24.7327 21.5592 24.0696 20.8612L23.3446 21.55L22.6196 22.2387C23.4765 23.1407 24.4915 23.8387 25.655 24.3309L26.0446 23.41ZM23.3446 21.55L24.0787 20.8709C23.4465 20.1874 22.9913 19.3838 22.7134 18.4459L21.7546 18.73L20.7958 19.014C21.1579 20.2361 21.7627 21.3125 22.6105 22.229L23.3446 21.55ZM21.7546 18.73L22.1098 19.6647L25.1098 18.5247L24.7546 17.59L24.3994 16.6552L21.3994 17.7952L21.7546 18.73ZM24.7546 17.59L23.819 17.943C24.2801 19.165 25.0039 20.1567 26.0071 20.8664L26.5846 20.05L27.1621 19.2335C26.5254 18.7832 26.0291 18.1349 25.6902 17.2369L24.7546 17.59ZM26.5846 20.05L26.0071 20.8664C27.0089 21.575 28.1642 21.92 29.4346 21.92V20.92V19.92C28.545 19.92 27.8003 19.685 27.1621 19.2335L26.5846 20.05ZM29.4346 20.92V21.92C30.4435 21.92 31.3715 21.7246 32.1838 21.2931L31.7146 20.41L31.2455 19.5268C30.7778 19.7753 30.1857 19.92 29.4346 19.92V20.92ZM31.7146 20.41L32.1726 21.2989C32.996 20.8748 33.65 20.2633 34.1094 19.4721L33.2446 18.97L32.3798 18.4678C32.1192 18.9166 31.7533 19.2652 31.2567 19.521L31.7146 20.41ZM33.2446 18.97L34.0972 19.4925C34.5921 18.6851 34.8146 17.7455 34.8146 16.72H33.8146H32.8146C32.8146 17.4544 32.6571 18.0148 32.392 18.4474L33.2446 18.97ZM33.8146 16.72H34.8146C34.8146 15.7096 34.59 14.7814 34.0972 13.9774L33.2446 14.5L32.392 15.0225C32.6593 15.4586 32.8146 16.0104 32.8146 16.72H33.8146ZM33.2446 14.5L34.1094 13.9978C33.6469 13.2014 32.9857 12.5949 32.1509 12.1901L31.7146 13.09L31.2783 13.9898C31.7635 14.225 32.1223 14.5586 32.3798 15.0021L33.2446 14.5ZM31.7146 13.09L32.1618 12.1955C31.3547 11.792 30.4348 11.61 29.4346 11.61V12.61V13.61C30.1944 13.61 30.7945 13.748 31.2674 13.9844L31.7146 13.09ZM29.4346 12.61V11.61C29.019 11.61 28.5967 11.6446 28.1686 11.7122L28.3246 12.7L28.4806 13.6877C28.8125 13.6353 29.1303 13.61 29.4346 13.61V12.61ZM28.3246 12.7L28.1602 11.7136C27.7543 11.7812 27.375 11.8744 27.0283 11.9982L27.3646 12.94L27.7009 13.8817C27.9142 13.8055 28.1749 13.7387 28.489 13.6864L28.3246 12.7ZM27.3646 12.94L28.2687 12.5126L27.4887 10.8626L26.5846 11.29L25.6805 11.7173L26.4605 13.3673L27.3646 12.94ZM26.5846 11.29L27.3471 11.9369L33.2271 5.00694L32.4646 4.35996L31.7021 3.71298L25.8221 10.643L26.5846 11.29ZM32.4646 4.35996V3.35996H22.9546V4.35996V5.35996H32.4646V4.35996ZM22.9546 4.35996H23.9546V1.35996H22.9546H21.9546V4.35996H22.9546ZM22.9546 1.35996V2.35996H36.4246V1.35996V0.359959H22.9546V1.35996ZM36.4246 1.35996H35.4246V4.20996H36.4246H37.4246V1.35996H36.4246ZM36.4246 4.20996L35.6569 3.56912L29.8969 10.4691L30.6646 11.11L31.4323 11.7508L37.1923 4.8508L36.4246 4.20996ZM30.6646 11.11L31.6615 11.0313L31.5715 9.89126L30.5746 9.96996L29.5777 10.0487L29.6677 11.1887L30.6646 11.11ZM30.5746 9.96996L30.5597 10.9698C31.7556 10.9877 32.7663 11.2536 33.6203 11.7393L34.1146 10.87L34.6089 10.0007C33.423 9.32631 32.0736 8.99222 30.5895 8.97007L30.5746 9.96996ZM34.1146 10.87L33.6334 11.7465C34.4918 12.2179 35.1451 12.8646 35.6121 13.6986L36.4846 13.21L37.3571 12.7214C36.7041 11.5553 35.7774 10.6421 34.5959 9.99338L34.1146 10.87ZM36.4846 13.21L35.624 13.7193C36.1004 14.5243 36.3546 15.4833 36.3546 16.63H37.3546H38.3546C38.3546 15.1766 38.0288 13.8557 37.3452 12.7006L36.4846 13.21ZM37.3546 16.63H36.3546C36.3546 17.8599 36.0583 18.9512 35.4758 19.9277L36.3346 20.44L37.1934 20.9522C37.971 19.6487 38.3546 18.2 38.3546 16.63H37.3546ZM36.3346 20.44L35.4798 19.921C34.8949 20.8844 34.0865 21.6542 33.0327 22.2337L33.5146 23.11L33.9965 23.9862C35.3427 23.2458 36.4143 22.2355 37.1894 20.9589L36.3346 20.44ZM33.5146 23.11L33.0378 22.2309C32.0245 22.7805 30.8328 23.07 29.4346 23.07V24.07V25.07C31.1164 25.07 32.6447 24.7194 33.9914 23.989L33.5146 23.11Z" fill="white" mask="url(#path-1-outside-1_204_5310)"/>
</svg>
