<svg width="42" height="45" viewBox="0 0 42 45" fill="none" xmlns="http://www.w3.org/2000/svg">
<path d="M35.1914 8.92969C36.8789 8.92969 38.2852 7.55859 38.2852 5.83594C38.2852 4.11328 36.8789 2.77734 35.1914 2.77734C33.5039 2.77734 32.0977 4.14844 32.0977 5.87109C32.0977 7.55859 33.4687 8.92969 35.1914 8.92969ZM35.1914 4.00781C36.2109 4.00781 37.0547 4.85156 37.0547 5.87109C37.0547 6.89062 36.2109 7.73438 35.1914 7.73438C34.1719 7.73438 33.3281 6.89062 33.3281 5.87109C33.3281 4.85156 34.1367 4.00781 35.1914 4.00781Z" fill="white"/>
<path d="M38.8829 16.0664C38.3204 14.8711 37.6524 13.7109 36.879 12.6563C38.5665 11.5313 41.0626 9.31641 41.0626 5.87109C41.0626 2.60156 38.4259 0 35.1915 0C31.9571 0 29.2853 2.60156 29.2853 5.87109V6.25781C28.8282 6.04688 28.3712 5.83594 27.9142 5.625C14.6954 0.316406 0.0704144 9.91407 0.000101854 24.5039C-0.0350544 35.7539 9.03526 44.8945 20.2853 44.9297C31.5353 44.9648 40.6759 35.8945 40.711 24.6445C40.711 24.5742 40.711 24.5391 40.711 24.4688C40.711 21.5859 40.0782 18.7031 38.8829 16.0664ZM35.1915 1.19531C37.7579 1.19531 39.8321 3.26953 39.8673 5.87109C39.8673 9.5625 36.211 11.7422 35.1915 12.2344C34.2071 11.707 30.5157 9.5625 30.5157 5.87109C30.5157 3.26953 32.5899 1.19531 35.1915 1.19531ZM34.9103 13.5C35.086 13.5703 35.2618 13.5703 35.4024 13.5C35.4376 13.5 35.5782 13.4297 35.7892 13.2891C36.3517 14.0625 36.8439 14.8711 37.3009 15.7148H33.6446L31.1837 13.2539C31.0431 13.1133 30.8321 13.043 30.6212 13.0781L23.379 14.6953C23.0978 14.7656 22.8868 15.0117 22.8868 15.293V16.7695C22.8868 17.0859 23.0978 17.332 23.4142 17.3672L28.4064 18.1406L29.6368 20.5313C29.7071 20.6719 29.8478 20.8125 30.0235 20.8477L33.1876 21.7266V23.5195L31.2892 25.4883C31.1837 25.5938 31.1134 25.7695 31.1134 25.9102V28.8984L27.6329 34.9805H25.6993V33.0469C25.6993 32.8711 25.629 32.6953 25.4884 32.5898L22.8165 30.1641V27.3516C22.8165 27.1055 22.6407 26.8594 22.4298 26.7891L16.9454 24.7852V20.2148L20.5314 16.3477C20.7774 16.1016 20.7423 15.7148 20.4962 15.4688L20.461 15.4336L17.1915 12.9023L19.8634 9.10547H25.3478C25.5235 9.10547 25.6642 9.03516 25.7696 8.92969L27.8087 6.89063C28.3712 7.13672 28.9689 7.41797 29.5314 7.73438C30.6564 11.5313 34.7345 13.3945 34.9103 13.5ZM8.01573 9.91406L9.5626 13.1133L8.33213 13.7461C8.26182 13.7813 8.22666 13.8164 8.15635 13.8516L5.23838 16.8398C5.0626 17.0156 5.02745 17.2617 5.09776 17.4727L5.51963 18.668C5.0626 18.9492 4.60557 19.3359 4.25401 19.7227L1.75791 20.1445C2.67198 16.1367 4.88682 12.5508 8.01573 9.91406ZM8.61338 29.9883C7.62901 29.4609 3.9376 27.3164 3.9376 23.625C3.97276 21.0586 6.08213 18.9844 8.64854 19.0195C11.1798 19.0547 13.254 21.0938 13.254 23.625C13.254 27.3164 9.59776 29.4961 8.61338 29.9883ZM1.26573 23.4844C1.30088 22.7813 1.3712 22.1133 1.47666 21.4102L3.26963 21.0938C2.91807 21.832 2.70713 22.6406 2.70713 23.4492H1.26573V23.4844ZM8.33213 36.5273V39.4102C3.90245 35.8242 1.30088 30.4453 1.23057 24.7148H2.8126C3.48057 29.0391 8.15635 31.1484 8.36729 31.2539C8.54307 31.3242 8.71885 31.3242 8.85948 31.2539C9.35166 31.0078 9.80869 30.7617 10.2657 30.4453L10.8985 31.0781V32.7656L10.1251 33.9258C9.94932 34.1719 10.0196 34.5234 10.2306 34.7344L10.4064 34.9102L8.57823 36C8.4376 36.1055 8.33213 36.2813 8.33213 36.5273ZM20.3556 43.6641C16.4884 43.6641 12.7267 42.5039 9.5626 40.3242V36.8789L11.8478 35.5078C12.129 35.332 12.2345 34.9453 12.0587 34.6641C12.0235 34.5938 11.9884 34.5586 11.9181 34.5234L11.4962 34.1719L12.0587 33.3281C12.129 33.2227 12.1642 33.1172 12.1642 32.9766V30.8672C12.1642 30.6914 12.0939 30.5508 11.9884 30.4453L11.3204 29.7773C12.8673 28.5469 14.5548 26.5078 14.5548 23.6953C14.5548 20.4609 11.9532 17.8242 8.68369 17.8242C7.98057 17.8242 7.3126 17.9297 6.64463 18.1758L6.39854 17.4727L8.96495 14.8359L10.6524 13.9922C10.9689 13.8516 11.0743 13.4648 10.9337 13.1836L9.0001 9.21094C14.0626 5.48438 20.6368 4.46484 26.5782 6.50391L25.1017 7.91016H19.547C19.336 7.91016 19.1603 8.01562 19.0548 8.15625L15.8556 12.6914C15.6798 12.9727 15.7149 13.3242 15.9962 13.5352L19.1954 15.9961L15.8907 19.5469C15.7853 19.6523 15.7149 19.793 15.7149 19.9688V25.207C15.7149 25.4531 15.8907 25.6992 16.1017 25.7695L21.586 27.7734V30.4453C21.586 30.6211 21.6564 30.7969 21.797 30.9023L24.4689 33.3281V35.6133C24.4689 35.9648 24.7501 36.2109 25.0665 36.2109H27.9845C28.1954 36.2109 28.4064 36.1055 28.5118 35.8945L32.2735 29.3555C32.3439 29.25 32.3439 29.1445 32.3439 29.0391V26.1211L34.2423 24.2227C34.3478 24.1172 34.4181 23.9414 34.4181 23.8008V21.3047C34.4181 21.0234 34.2423 20.7773 33.961 20.707L30.586 19.7578L29.3556 17.332C29.2501 17.1563 29.1095 17.0508 28.8985 17.0156L24.1173 16.2773V15.7852L30.5509 14.3438L32.9767 16.7695C33.0821 16.875 33.2579 16.9453 33.3985 16.9453H37.8985C38.9532 19.3359 39.4806 21.9023 39.4806 24.5391C39.4806 35.0859 30.9024 43.6289 20.3556 43.6641Z" fill="white"/>
<path d="M8.61328 20.5312C6.92578 20.5312 5.51953 21.9023 5.51953 23.625C5.51953 25.3125 6.89063 26.7187 8.61328 26.7187C10.3359 26.7187 11.707 25.3477 11.707 23.625C11.6719 21.9375 10.3008 20.5312 8.61328 20.5312ZM8.61328 25.4883C7.59375 25.4883 6.75 24.6445 6.75 23.625C6.75 22.6055 7.59375 21.7617 8.61328 21.7617C9.63281 21.7617 10.4766 22.6055 10.4766 23.625C10.4766 24.6445 9.63281 25.4883 8.61328 25.4883Z" fill="white"/>
</svg>
