<svg width="26" height="26" viewBox="0 0 26 26" fill="none" xmlns="http://www.w3.org/2000/svg">
<path d="M24.9512 18.9941L23.7793 23.9258C23.6328 24.6582 23.0469 25.1465 22.3145 25.1465C10.0098 25.0977 0 15.0879 0 2.7832C0 2.05078 0.439453 1.46484 1.17188 1.31836L6.10352 0.146484C6.78711 0 7.51953 0.390625 7.8125 1.02539L10.1074 6.34766C10.3516 6.98242 10.2051 7.71484 9.66797 8.10547L7.03125 10.2539C8.69141 13.623 11.4258 16.3574 14.8438 18.0176L16.9922 15.3809C17.3828 14.8926 18.1152 14.6973 18.75 14.9414L24.0723 17.2363C24.707 17.5781 25.0977 18.3105 24.9512 18.9941Z" fill="#83CD20"/>
</svg>
