<svg width="206" height="206" viewBox="0 0 206 206" fill="none" xmlns="http://www.w3.org/2000/svg">
<circle opacity="0.3" cx="103" cy="103" r="102" stroke="#034833" stroke-width="2"/>
<path d="M102.738 28.6836L100.282 20.1345H101.212L103.335 27.7885H103.14L105.32 20.1345H106.296L108.464 27.7885H108.258L110.392 20.1345H111.322L108.866 28.6836H107.891L105.699 20.9952H105.905L103.714 28.6836H102.738Z" fill="#034833"/>
<path d="M118.321 30.6175C117.748 30.5202 117.252 30.2964 116.834 29.9461C116.418 29.5883 116.113 29.1487 115.921 28.6273C115.738 28.0996 115.702 27.531 115.814 26.9215C115.924 26.3195 116.158 25.8045 116.517 25.3765C116.875 24.9485 117.309 24.6381 117.819 24.4453C118.337 24.2462 118.891 24.1966 119.479 24.2965C120.067 24.3964 120.567 24.6208 120.977 24.9698C121.395 25.32 121.693 25.7546 121.87 26.2735C122.055 26.7936 122.091 27.3585 121.979 27.968C121.866 28.5851 121.626 29.1107 121.259 29.5449C120.893 29.9716 120.452 30.2808 119.934 30.4723C119.425 30.6651 118.887 30.7135 118.321 30.6175ZM118.476 29.7709C118.884 29.84 119.268 29.8005 119.63 29.6524C119.999 29.5056 120.31 29.2713 120.563 28.9496C120.824 28.6293 120.994 28.2508 121.074 27.8144C121.154 27.3779 121.128 26.97 120.995 26.5906C120.87 26.2124 120.66 25.8936 120.366 25.6341C120.078 25.3759 119.731 25.2122 119.324 25.1431C118.917 25.0739 118.529 25.1128 118.159 25.2596C117.798 25.4078 117.487 25.6382 117.228 25.9511C116.968 26.264 116.799 26.6386 116.719 27.0751C116.639 27.5115 116.664 27.9232 116.796 28.3102C116.927 28.6971 117.136 29.0197 117.423 29.278C117.718 29.5375 118.069 29.7018 118.476 29.7709Z" fill="#034833"/>
<path d="M129.153 33.3657L131.328 27.6125L132.14 27.897L131.783 28.8416L131.728 28.6641C131.968 28.4403 132.255 28.2977 132.589 28.2364C132.93 28.1776 133.299 28.2178 133.696 28.3569L134.064 28.4859L133.76 29.2909L133.251 29.1126C132.832 28.9659 132.447 28.9771 132.097 29.1461C131.747 29.3152 131.483 29.6359 131.304 30.1082L129.965 33.6503L129.153 33.3657Z" fill="#034833"/>
<path d="M141.577 38.8359L146.045 31.3863L146.797 31.8044L142.329 39.254L141.577 38.8359Z" fill="#034833"/>
<path d="M154.051 47.4923C153.605 47.1318 153.294 46.7035 153.117 46.2075C152.946 45.7057 152.915 45.189 153.023 44.6575C153.143 44.125 153.404 43.628 153.806 43.1667C154.213 42.6996 154.676 42.3661 155.195 42.1662C155.72 41.9712 156.249 41.9117 156.781 41.9877C157.324 42.0627 157.821 42.2829 158.274 42.6483C158.684 42.9799 158.975 43.3621 159.146 43.7947C159.316 44.2272 159.365 44.6651 159.294 45.1082L159.028 45.2033L161.599 42.2536L162.269 42.7944L156.561 49.3426L155.891 48.8018L156.796 47.7638L156.82 47.9455C156.362 48.1453 155.886 48.2029 155.392 48.1183C154.909 48.0327 154.462 47.824 154.051 47.4923ZM154.652 46.8724C154.974 47.132 155.33 47.2873 155.722 47.3383C156.119 47.3941 156.508 47.3494 156.888 47.2044C157.279 47.0583 157.621 46.818 157.912 46.4836C158.204 46.1491 158.388 45.7867 158.464 45.3965C158.552 45.0053 158.532 44.626 158.406 44.2588C158.286 43.8964 158.065 43.5854 157.744 43.3259C157.429 43.0711 157.075 42.9182 156.683 42.8672C156.292 42.8162 155.906 42.8632 155.526 43.0083C155.152 43.1582 154.816 43.4033 154.52 43.7435C154.228 44.078 154.036 44.4385 153.942 44.8249C153.86 45.2103 153.876 45.5818 153.99 45.9394C154.11 46.3018 154.331 46.6128 154.652 46.8724Z" fill="#034833"/>
<path d="M162.153 55.1902L165.55 49.7338L166.191 50.469L163.151 55.1656L162.925 54.9061L168.19 52.7613L168.755 53.4101L165.647 58.0288L165.42 57.7693L170.761 55.711L171.394 56.4376L165.222 58.7109L164.656 58.0621L167.706 53.5501L167.864 53.7317L162.719 55.839L162.153 55.1902Z" fill="#034833"/>
<path d="M170.066 65.896L175.442 62.9081L175.885 63.6462L170.509 66.6341L170.066 65.896ZM176.435 62.3563L177.539 61.7431L177.981 62.4811L176.878 63.0943L176.435 62.3563Z" fill="#034833"/>
<path d="M176.388 79.4918C176.185 78.9551 176.133 78.4265 176.23 77.9061C176.335 77.3832 176.568 76.9168 176.928 76.507C177.298 76.1018 177.772 75.7981 178.349 75.5957C178.934 75.3908 179.5 75.3303 180.047 75.4143C180.596 75.5054 181.081 75.7165 181.5 76.0476C181.93 76.3833 182.247 76.8231 182.453 77.367C182.64 77.8607 182.698 78.3388 182.627 78.801C182.557 79.2633 182.379 79.6699 182.095 80.0207L181.819 79.9716L185.512 78.6778L185.816 79.4828L177.618 82.3551L177.314 81.55L178.613 81.0947L178.543 81.2653C178.048 81.2116 177.61 81.0249 177.227 80.7051C176.855 80.39 176.575 79.9855 176.388 79.4918ZM177.217 79.2501C177.363 79.6365 177.591 79.9494 177.903 80.1889C178.217 80.4354 178.574 80.59 178.973 80.6525C179.383 80.7197 179.797 80.6799 180.216 80.5332C180.635 80.3865 180.975 80.1619 181.237 79.8595C181.508 79.5617 181.682 79.2212 181.758 78.8381C181.837 78.4621 181.803 78.0809 181.657 77.6945C181.514 77.3152 181.286 77.0059 180.975 76.7665C180.664 76.5271 180.308 76.3761 179.908 76.3136C179.511 76.2582 179.1 76.3051 178.674 76.4544C178.255 76.6011 177.909 76.8198 177.634 77.1104C177.37 77.4056 177.197 77.7377 177.115 78.1065C177.037 78.4825 177.071 78.8637 177.217 79.2501Z" fill="#034833"/>
<path d="M179.592 92.1487C179.489 91.5843 179.531 91.0496 179.718 90.5444C179.914 90.0456 180.23 89.6235 180.664 89.2782C181.099 88.9329 181.621 88.7084 182.232 88.6047C182.843 88.501 183.406 88.5374 183.921 88.7138C184.443 88.889 184.879 89.1718 185.231 89.5622C185.584 89.9601 185.81 90.4337 185.911 90.983C185.991 91.4194 185.979 91.8211 185.875 92.1878C185.78 92.5609 185.615 92.8915 185.38 93.1796C185.153 93.4665 184.877 93.7034 184.554 93.8902C184.238 94.0757 183.899 94.1992 183.537 94.2607C183.461 94.2735 183.374 94.2844 183.274 94.2935C183.183 94.3014 183.086 94.3061 182.985 94.3077L182.049 89.1945L182.841 89.0601L183.688 93.6879L183.275 93.3392C183.702 93.3365 184.062 93.2248 184.356 93.0042C184.659 92.7899 184.878 92.5162 185.011 92.1832C185.152 91.8489 185.188 91.4937 185.119 91.1174C185.05 90.7412 184.888 90.4079 184.633 90.1176C184.379 89.8348 184.058 89.6332 183.67 89.5128C183.29 89.3911 182.862 89.39 182.387 89.5096C181.897 89.5539 181.488 89.7008 181.161 89.9504C180.842 90.2062 180.615 90.5163 180.48 90.8807C180.346 91.2526 180.314 91.6305 180.384 92.0142C180.465 92.4582 180.639 92.8128 180.905 93.0779C181.172 93.3431 181.481 93.5428 181.832 93.6772L181.579 94.4649C181.286 94.3906 180.999 94.2491 180.72 94.0405C180.448 93.8305 180.209 93.5647 180.002 93.2428C179.805 92.9273 179.668 92.5625 179.592 92.1487Z" fill="#034833"/>
<path d="M179.694 114.341L187.56 118.841L187.382 119.812L178.391 121.452L178.565 120.503L180.756 120.131L181.445 116.372L179.52 115.289L179.694 114.341ZM182.239 116.809L181.663 119.959L186.817 119.076L186.767 119.347L182.239 116.809Z" fill="#034833"/>
<path d="M174.918 130.658C175.131 130.093 175.453 129.642 175.882 129.306C176.312 128.971 176.8 128.761 177.347 128.677C177.901 128.595 178.467 128.656 179.044 128.858C179.622 129.061 180.092 129.363 180.455 129.766C180.818 130.169 181.048 130.63 181.146 131.15C181.251 131.673 181.196 132.218 180.982 132.783C180.847 133.141 180.655 133.454 180.406 133.723C180.157 133.993 179.875 134.21 179.559 134.375C179.25 134.542 178.928 134.636 178.594 134.657L178.491 133.794C178.855 133.76 179.19 133.63 179.496 133.405C179.802 133.18 180.027 132.877 180.17 132.498C180.314 132.119 180.346 131.741 180.267 131.365C180.193 130.999 180.02 130.667 179.749 130.369C179.481 130.081 179.135 129.862 178.709 129.713C178.29 129.567 177.879 129.52 177.474 129.572C177.075 129.635 176.72 129.782 176.412 130.015C176.101 130.254 175.873 130.563 175.73 130.943C175.587 131.322 175.558 131.689 175.645 132.043C175.729 132.405 175.905 132.718 176.173 132.982L175.496 133.571C175.261 133.351 175.077 133.08 174.945 132.758C174.813 132.437 174.742 132.096 174.731 131.735C174.72 131.375 174.782 131.016 174.918 130.658Z" fill="#034833"/>
<path d="M168.803 142.221C169.114 141.703 169.511 141.316 169.995 141.06C170.478 140.804 170.998 140.681 171.553 140.692C172.115 140.707 172.663 140.863 173.198 141.16C173.733 141.458 174.144 141.835 174.432 142.292C174.719 142.749 174.865 143.242 174.87 143.769C174.881 144.3 174.731 144.825 174.42 145.343C174.224 145.671 173.979 145.946 173.685 146.168C173.392 146.39 173.074 146.554 172.733 146.662C172.399 146.774 172.064 146.811 171.73 146.774L171.78 145.91C172.147 145.938 172.501 145.868 172.842 145.7C173.184 145.531 173.46 145.273 173.668 144.925C173.877 144.577 173.975 144.212 173.964 143.83C173.955 143.458 173.843 143.102 173.627 142.764C173.414 142.435 173.11 142.161 172.716 141.942C172.328 141.726 171.93 141.61 171.521 141.593C171.115 141.586 170.739 141.67 170.393 141.845C170.043 142.027 169.764 142.292 169.556 142.639C169.347 142.987 169.254 143.342 169.278 143.705C169.297 144.075 169.416 144.412 169.634 144.717L168.861 145.18C168.667 144.923 168.534 144.626 168.46 144.288C168.387 143.949 168.376 143.602 168.429 143.247C168.482 142.891 168.607 142.549 168.803 142.221Z" fill="#034833"/>
<path d="M160.847 152.374C161.224 151.942 161.672 151.636 162.193 151.457C162.715 151.289 163.254 151.258 163.811 151.364C164.368 151.47 164.888 151.717 165.37 152.107C165.852 152.496 166.192 152.938 166.39 153.432C166.594 153.931 166.657 154.434 166.58 154.942C166.498 155.455 166.273 155.922 165.906 156.343C165.614 156.677 165.29 156.921 164.933 157.075C164.577 157.24 164.208 157.325 163.827 157.332C163.452 157.343 163.085 157.287 162.725 157.164C162.372 157.046 162.053 156.872 161.767 156.641C161.708 156.593 161.642 156.535 161.569 156.466C161.503 156.403 161.436 156.334 161.369 156.26L164.785 152.342L165.409 152.846L162.318 156.393L162.322 155.865C162.604 156.181 162.928 156.38 163.294 156.459C163.662 156.55 164.02 156.54 164.37 156.429C164.726 156.324 165.03 156.127 165.281 155.838C165.532 155.55 165.689 155.219 165.75 154.846C165.807 154.479 165.755 154.113 165.596 153.749C165.443 153.389 165.163 153.07 164.757 152.791C164.402 152.455 164.018 152.243 163.607 152.157C163.196 152.081 162.803 152.107 162.427 152.236C162.046 152.371 161.728 152.585 161.471 152.879C161.175 153.219 161.009 153.572 160.975 153.937C160.94 154.302 160.985 154.658 161.11 155.004L160.324 155.313C160.19 155.047 160.113 154.745 160.095 154.406C160.082 154.071 160.135 153.726 160.253 153.369C160.372 153.023 160.57 152.691 160.847 152.374Z" fill="#034833"/>
<path d="M151.386 160.923C151.844 160.553 152.344 160.341 152.885 160.287C153.426 160.233 153.943 160.337 154.434 160.598L154.098 161.312C153.715 161.14 153.328 161.069 152.939 161.099C152.543 161.133 152.196 161.271 151.899 161.511C151.613 161.742 151.43 162.003 151.349 162.294C151.273 162.591 151.331 162.849 151.522 163.068C151.663 163.23 151.821 163.318 151.997 163.334C152.177 163.355 152.353 163.341 152.523 163.292C152.693 163.243 152.836 163.191 152.951 163.137L153.805 162.773C154.35 162.538 154.817 162.451 155.205 162.511C155.592 162.572 155.911 162.746 156.163 163.035C156.399 163.306 156.534 163.6 156.567 163.917C156.6 164.234 156.542 164.546 156.394 164.853C156.245 165.159 156.022 165.433 155.725 165.673C155.32 166 154.863 166.192 154.355 166.249C153.846 166.316 153.365 166.223 152.911 165.971L153.256 165.25C153.601 165.413 153.95 165.476 154.302 165.437C154.653 165.409 154.965 165.285 155.239 165.063C155.506 164.847 155.663 164.608 155.708 164.345C155.753 164.083 155.688 163.851 155.512 163.649C155.376 163.493 155.226 163.403 155.062 163.378C154.899 163.353 154.743 163.361 154.596 163.401C154.443 163.446 154.314 163.491 154.211 163.535L153.22 163.952C152.738 164.155 152.289 164.228 151.874 164.17C151.452 164.117 151.106 163.935 150.835 163.624C150.613 163.37 150.489 163.082 150.462 162.76C150.429 162.443 150.49 162.123 150.645 161.801C150.806 161.485 151.053 161.192 151.386 160.923Z" fill="#034833"/>
<path d="M140.195 168.043C140.71 167.757 141.238 167.634 141.779 167.674C142.321 167.714 142.81 167.906 143.248 168.249L142.793 168.895C142.446 168.659 142.079 168.522 141.69 168.485C141.295 168.45 140.931 168.526 140.596 168.712C140.275 168.89 140.05 169.116 139.92 169.39C139.794 169.67 139.805 169.935 139.955 170.184C140.065 170.368 140.205 170.482 140.375 170.528C140.549 170.58 140.724 170.596 140.899 170.577C141.075 170.558 141.225 170.532 141.347 170.499L142.249 170.286C142.827 170.149 143.301 170.144 143.671 170.271C144.041 170.397 144.325 170.625 144.521 170.953C144.706 171.261 144.787 171.575 144.765 171.893C144.742 172.212 144.631 172.51 144.431 172.787C144.232 173.064 143.965 173.296 143.631 173.481C143.176 173.734 142.694 173.845 142.185 173.813C141.672 173.791 141.215 173.617 140.814 173.289L141.279 172.637C141.589 172.858 141.921 172.979 142.274 173.002C142.623 173.035 142.952 172.966 143.26 172.795C143.56 172.628 143.756 172.419 143.846 172.168C143.936 171.916 143.912 171.676 143.774 171.446C143.668 171.269 143.537 171.154 143.38 171.101C143.224 171.048 143.069 171.029 142.918 171.044C142.759 171.062 142.625 171.084 142.516 171.109L141.47 171.35C140.96 171.467 140.506 171.461 140.108 171.332C139.703 171.207 139.395 170.968 139.182 170.613C139.009 170.325 138.937 170.019 138.967 169.696C138.99 169.378 139.105 169.073 139.314 168.782C139.527 168.497 139.821 168.251 140.195 168.043Z" fill="#034833"/>
<path d="M116.246 176.164L117.786 184.574L116.881 184.727L115.341 176.318L116.246 176.164Z" fill="#034833"/>
<path d="M105.483 177.156V183.307H104.622V182.137L104.76 182.309C104.591 182.668 104.343 182.947 104.014 183.146C103.677 183.345 103.31 183.445 102.912 183.445C102.438 183.445 102.009 183.311 101.627 183.043C101.244 182.775 100.973 182.427 100.812 181.999L101.053 181.987C100.9 182.462 100.636 182.821 100.261 183.066C99.8789 183.318 99.4581 183.445 98.9991 183.445C98.586 183.445 98.2073 183.345 97.863 183.146C97.5111 182.947 97.2319 182.672 97.0254 182.32C96.8111 181.976 96.704 181.586 96.704 181.15V177.156H97.5647V180.817C97.5647 181.192 97.6335 181.509 97.7712 181.769C97.9013 182.029 98.0811 182.228 98.3106 182.366C98.5401 182.511 98.804 182.584 99.1024 182.584C99.3931 182.584 99.657 182.511 99.8942 182.366C100.131 182.228 100.319 182.026 100.456 181.758C100.594 181.498 100.663 181.184 100.663 180.817V177.156H101.524V180.817C101.524 181.192 101.593 181.509 101.73 181.769C101.86 182.029 102.04 182.228 102.27 182.366C102.499 182.511 102.763 182.584 103.061 182.584C103.36 182.584 103.627 182.511 103.865 182.366C104.094 182.228 104.278 182.026 104.415 181.758C104.553 181.498 104.622 181.184 104.622 180.817V177.156H105.483Z" fill="#034833"/>
<path d="M91.5815 176.465L90.4733 182.515L89.6248 182.371L89.8357 181.22L89.9404 181.412C89.7097 181.737 89.4143 181.97 89.0541 182.111C88.6864 182.25 88.3065 182.287 87.9143 182.22C87.4467 182.141 87.0484 181.937 86.7196 181.61C86.3907 181.283 86.1856 180.895 86.1044 180.447L86.3441 180.476C86.1078 180.917 85.7828 181.226 85.3691 181.404C84.9465 181.588 84.5089 181.642 84.0564 181.565C83.6491 181.496 83.2937 181.335 82.9901 181.082C82.679 180.827 82.4534 180.51 82.3131 180.129C82.164 179.754 82.1287 179.353 82.2072 178.924L82.9268 174.996L83.7753 175.14L83.1157 178.741C83.0482 179.109 83.0588 179.433 83.1477 179.712C83.2291 179.99 83.3705 180.215 83.572 180.389C83.772 180.571 84.0191 180.686 84.3133 180.736C84.5999 180.785 84.8732 180.757 85.1332 180.654C85.3918 180.558 85.6131 180.39 85.7972 180.15C85.9798 179.917 86.1042 179.62 86.1703 179.259L86.8299 175.658L87.6784 175.802L87.0188 179.403C86.9513 179.772 86.962 180.096 87.0509 180.374C87.1322 180.652 87.2736 180.878 87.4751 181.052C87.6752 181.233 87.9223 181.349 88.2164 181.399C88.5106 181.449 88.7877 181.422 89.0477 181.319C89.2987 181.222 89.5163 181.053 89.7003 180.812C89.8829 180.58 90.0073 180.283 90.0735 179.921L90.733 176.321L91.5815 176.465Z" fill="#034833"/>
<path d="M76.6431 172.83L74.4677 178.583L73.6555 178.298L75.8308 172.545L76.6431 172.83ZM74.0659 179.645L73.6195 180.826L72.8073 180.542L73.2537 179.361L74.0659 179.645Z" fill="#034833"/>
<path d="M63.9398 164.278C64.3076 164.483 64.6152 164.728 64.8626 165.014C65.1033 165.297 65.2783 165.6 65.3876 165.923C65.4941 166.236 65.5309 166.554 65.4978 166.876L64.5873 166.856C64.6298 166.547 64.5691 166.225 64.4051 165.889C64.2411 165.553 63.9452 165.266 63.5172 165.028C63.1895 164.846 62.8513 164.741 62.5023 164.713C62.1534 164.685 61.8226 164.746 61.5098 164.896C61.197 165.046 60.9344 165.298 60.7219 165.652L60.0196 166.823L59.9641 166.648C60.3796 166.372 60.8342 166.231 61.3278 166.225C61.8176 166.226 62.2798 166.348 62.7145 166.589C63.216 166.868 63.5965 167.237 63.8561 167.696C64.1156 168.155 64.2424 168.65 64.2364 169.18C64.2198 169.713 64.064 170.226 63.7688 170.718C63.4698 171.216 63.0866 171.603 62.6192 171.877C62.1451 172.147 61.64 172.29 61.1038 172.307C60.561 172.32 60.0354 172.186 59.5272 171.903C59.0926 171.662 58.7571 171.344 58.5207 170.95C58.2777 170.553 58.1528 170.129 58.1462 169.679L58.3905 169.54L57.6823 170.72L56.93 170.302L59.9697 165.234C60.2412 164.782 60.5935 164.439 61.0266 164.208C61.457 163.966 61.9272 163.851 62.437 163.863C62.944 163.865 63.445 164.003 63.9398 164.278ZM62.2317 167.305C61.8839 167.112 61.5185 167.022 61.1354 167.037C60.7483 167.058 60.3846 167.166 60.0443 167.362C59.6933 167.561 59.4136 167.834 59.205 168.181C58.9965 168.529 58.8926 168.896 58.8933 169.281C58.8834 169.669 58.9677 170.027 59.1463 170.353C59.3209 170.686 59.582 170.95 59.9298 171.143C60.2842 171.34 60.6583 171.43 61.052 171.412C61.4419 171.402 61.807 171.298 62.1473 171.103C62.4809 170.903 62.7539 170.626 62.9664 170.272C63.175 169.924 63.2875 169.558 63.3041 169.174C63.3101 168.792 63.2258 168.435 63.0511 168.101C62.8659 167.771 62.5928 167.506 62.2317 167.305Z" fill="#034833"/>
<path d="M53.5157 160.22L49.4741 164.856L48.8046 164.315L49.4682 163.554L49.4594 163.739C49.1553 163.867 48.8349 163.903 48.4981 163.847C48.1555 163.786 47.8205 163.624 47.4931 163.359L47.1896 163.114L47.7551 162.465L48.1747 162.804C48.5199 163.083 48.8871 163.203 49.2764 163.163C49.6656 163.124 50.0261 162.914 50.3579 162.533L52.8462 159.679L53.5157 160.22Z" fill="#034833"/>
<path d="M43.2522 150.192C43.5086 150.486 43.6808 150.794 43.7688 151.116C43.8509 151.443 43.8485 151.755 43.7618 152.051C43.6751 152.347 43.5008 152.601 43.2389 152.812C42.989 153.014 42.7176 153.145 42.4247 153.204C42.126 153.269 41.8097 153.249 41.4758 153.145C41.142 153.042 40.797 152.844 40.4409 152.552L38.545 150.987L39.152 150.497L40.8854 151.927C41.2365 152.214 41.5577 152.367 41.8491 152.387C42.1354 152.401 42.3887 152.32 42.6089 152.142C42.8232 151.969 42.9343 151.741 42.9423 151.46C42.9453 151.172 42.8337 150.899 42.6075 150.639C42.331 150.322 42.0213 150.101 41.6783 149.975C41.3294 149.854 40.9781 149.823 40.6244 149.883C40.2708 149.942 39.9481 150.09 39.6565 150.325L38.4424 151.306C38.1568 151.537 38.0127 151.825 38.0101 152.171C38.0075 152.517 38.1469 152.852 38.4284 153.175C38.6747 153.457 38.9653 153.645 39.3001 153.738C39.6289 153.836 39.9546 153.843 40.2772 153.76L40.4596 154.615C40.1819 154.692 39.8792 154.705 39.5518 154.655C39.2192 154.6 38.8998 154.489 38.5934 154.324C38.2811 154.163 38.0119 153.953 37.7857 153.694C37.4891 153.354 37.2961 152.998 37.2068 152.628C37.1124 152.253 37.1244 151.894 37.2428 151.553C37.3501 151.211 37.5615 150.912 37.8769 150.657L41.162 148.004L41.7275 148.653L40.7724 149.424L40.7876 149.25C41.0365 149.186 41.3108 149.181 41.6104 149.234C41.899 149.285 42.1885 149.391 42.4788 149.549C42.7582 149.707 43.016 149.921 43.2522 150.192Z" fill="#034833"/>
<path d="M35.0079 138.686C35.2912 139.158 35.3692 139.6 35.2418 140.012C35.1144 140.424 34.7899 140.775 34.2683 141.065L31.2091 142.765L31.7934 143.74L31.0412 144.158L30.8936 143.912C30.7598 143.689 30.58 143.552 30.3542 143.503C30.1217 143.457 29.8918 143.497 29.6644 143.624L29.2131 143.875L28.7704 143.137L30.0142 142.445L29.3177 141.284L30.07 140.866L30.7664 142.027L33.8257 140.327C34.0062 140.227 34.151 140.111 34.2599 139.981C34.3622 139.854 34.416 139.706 34.4215 139.537C34.4231 139.361 34.3589 139.165 34.229 138.948C34.1976 138.896 34.1568 138.835 34.1069 138.767C34.0569 138.698 34.0128 138.64 33.9747 138.591L34.6467 138.217C34.714 138.285 34.7805 138.366 34.8462 138.461C34.9186 138.552 34.9725 138.627 35.0079 138.686Z" fill="#034833"/>
<path d="M30.1651 128.624L24.3603 130.658L24.0559 129.853L29.8607 127.819L30.1651 128.624ZM23.2882 131.033L22.0969 131.451L21.7925 130.646L22.9838 130.228L23.2882 131.033Z" fill="#034833"/>
<path d="M26.3964 114.046C26.5012 114.618 26.4606 115.16 26.2745 115.673C26.0809 116.186 25.772 116.623 25.3478 116.982C24.9148 117.335 24.3928 117.563 23.7818 117.667C23.1785 117.769 22.6144 117.725 22.0896 117.535C21.5648 117.345 21.1246 117.043 20.769 116.63C20.4045 116.211 20.1684 115.708 20.0609 115.121C19.9534 114.534 19.9934 113.988 20.1808 113.483C20.3669 112.97 20.6734 112.542 21.1003 112.198C21.5258 111.847 22.044 111.619 22.655 111.515C23.2734 111.41 23.8495 111.456 24.3832 111.652C24.9094 111.85 25.351 112.159 25.708 112.58C26.0636 112.993 26.2931 113.481 26.3964 114.046ZM25.5479 114.19C25.4735 113.783 25.3048 113.436 25.0419 113.147C24.7776 112.85 24.451 112.638 24.0621 112.51C23.6717 112.375 23.2578 112.344 22.8204 112.418C22.3829 112.492 22.0086 112.657 21.6975 112.911C21.3851 113.158 21.1573 113.465 21.0143 113.83C20.87 114.189 20.835 114.571 20.9094 114.977C20.9839 115.383 21.1532 115.735 21.4175 116.031C21.6804 116.32 22.0033 116.533 22.3861 116.67C22.7689 116.807 23.179 116.838 23.6164 116.764C24.0539 116.69 24.4319 116.525 24.7506 116.269C25.0692 116.013 25.3007 115.706 25.4451 115.348C25.5881 114.982 25.6224 114.596 25.5479 114.19Z" fill="#034833"/>
<path d="M26.4355 103.722H20.2848V102.861H21.4782L21.4323 103.056C21.0345 102.903 20.7209 102.655 20.4914 102.31C20.2619 101.959 20.1471 101.553 20.1471 101.094C20.1471 100.658 20.2466 100.268 20.4455 99.9236C20.6444 99.5717 20.9198 99.2963 21.2717 99.0973C21.6159 98.8908 22.0061 98.7875 22.4422 98.7875H26.4355V99.6482H22.7749C22.4001 99.6482 22.0826 99.717 21.8225 99.8547C21.5624 99.9848 21.3635 100.172 21.2258 100.417C21.0804 100.654 21.0078 100.93 21.0078 101.243C21.0078 101.557 21.0804 101.836 21.2258 102.081C21.3635 102.326 21.5662 102.517 21.834 102.655C22.0941 102.792 22.4077 102.861 22.7749 102.861H26.4355V103.722Z" fill="#034833"/>
<path d="M29.5437 79.3065L22.5794 73.5602L22.9284 72.6371L32.1005 72.5443L31.7596 73.4459L29.5288 73.4423L28.1774 77.0166L29.8846 78.4049L29.5437 79.3065ZM27.4707 76.453L28.603 73.4583L23.355 73.4551L23.4524 73.1975L27.4707 76.453Z" fill="#034833"/>
<path d="M39.2286 65.3183C39.0122 65.6791 38.7546 65.9821 38.456 66.2273C38.1613 66.4659 37.8468 66.641 37.5124 66.7525C37.1886 66.8613 36.8609 66.9022 36.5293 66.8754L36.5655 65.9901C36.8825 66.0263 37.2153 65.962 37.5639 65.7971C37.9125 65.6321 38.2127 65.3397 38.4645 64.9199C38.6573 64.5984 38.7709 64.2679 38.8051 63.9283C38.8394 63.5887 38.782 63.2681 38.633 62.9666C38.484 62.6651 38.2289 62.414 37.8678 62.2133L36.6742 61.5499L36.8554 61.4932C37.133 61.8924 37.2706 62.3319 37.2682 62.8117C37.2591 63.2877 37.1266 63.7389 36.8708 64.1654C36.5757 64.6574 36.1898 65.0334 35.7129 65.2932C35.2361 65.5531 34.7249 65.6845 34.1793 65.6874C33.6309 65.68 33.106 65.537 32.6044 65.2583C32.0962 64.9758 31.7051 64.6097 31.431 64.16C31.1608 63.7037 31.0214 63.2151 31.0129 62.6942C31.0082 62.1668 31.1554 61.6538 31.4545 61.1552C31.7103 60.7287 32.0427 60.3974 32.4519 60.1612C32.865 59.9184 33.303 59.7901 33.766 59.7762L33.9058 60.0114L32.7022 59.3424L33.1449 58.6044L38.3105 61.4752C38.7719 61.7316 39.1182 62.0685 39.3494 62.4856C39.5913 62.9 39.7017 63.355 39.6808 63.8507C39.6705 64.3436 39.5198 64.8328 39.2286 65.3183ZM36.1422 63.7079C36.3468 63.3668 36.4448 63.0101 36.4362 62.6379C36.4209 62.2621 36.3154 61.9103 36.1195 61.5828C35.9209 61.245 35.6444 60.9776 35.29 60.7807C34.9356 60.5837 34.5601 60.4887 34.1636 60.4958C33.7643 60.4926 33.3951 60.5804 33.056 60.7593C32.7102 60.9346 32.435 61.1927 32.2304 61.5339C32.0218 61.8816 31.9232 62.2467 31.9346 62.6291C31.9392 63.0079 32.0395 63.361 32.2353 63.6885C32.4351 64.0095 32.7155 64.2703 33.0766 64.471C33.431 64.668 33.8059 64.7713 34.2013 64.7811C34.5939 64.7806 34.9631 64.6928 35.3089 64.5176C35.6519 64.3321 35.9297 64.0622 36.1422 63.7079Z" fill="#034833"/>
<path d="M45.1574 53.9031C44.7804 54.3356 44.3314 54.6413 43.8105 54.82C43.2887 54.9881 42.7494 55.0193 42.1926 54.9135C41.6358 54.8077 41.1163 54.5601 40.6343 54.1707C40.1522 53.7813 39.8122 53.3396 39.6141 52.8455C39.4101 52.3466 39.3467 51.8434 39.4241 51.3358C39.5064 50.8225 39.731 50.3554 40.098 49.9344C40.3896 49.6 40.7139 49.3559 41.0711 49.2021C41.4273 49.0378 41.7959 48.9523 42.177 48.9456C42.5521 48.9341 42.9192 48.9899 43.2784 49.113C43.6317 49.2313 43.9512 49.4058 44.2368 49.6365C44.2963 49.6846 44.3623 49.7428 44.4346 49.811C44.501 49.8745 44.5678 49.9432 44.6352 50.0172L41.2194 53.9358L40.5945 53.431L43.686 49.8845L43.6824 50.4122C43.4003 50.0959 43.076 49.8978 42.7095 49.818C42.3421 49.7276 41.9835 49.7376 41.6336 49.8481C41.2778 49.9538 40.9742 50.1508 40.7229 50.4392C40.4715 50.7275 40.3152 51.0582 40.2537 51.4311C40.1973 51.7983 40.2487 52.1641 40.4077 52.5284C40.5609 52.8879 40.8404 53.2071 41.2464 53.4859C41.6022 53.8224 41.9857 54.0339 42.3971 54.1205C42.8075 54.1965 43.2006 54.1701 43.5765 54.0413C43.9575 53.9068 44.2761 53.6925 44.5325 53.3984C44.8291 53.0582 44.9946 52.7054 45.029 52.3401C45.0635 51.9749 45.0186 51.6192 44.8943 51.2731L45.6804 50.9647C45.8142 51.23 45.8904 51.5323 45.909 51.8717C45.9217 52.2062 45.8689 52.5517 45.7507 52.9083C45.6317 53.2544 45.4339 53.586 45.1574 53.9031Z" fill="#034833"/>
<path d="M52.6952 46.7285L48.6536 42.092L49.3231 41.5512L50.1073 42.4508L49.9253 42.5388C49.783 42.1428 49.7703 41.7501 49.8873 41.3608C50.0102 40.9667 50.2502 40.6254 50.6073 40.337C50.9465 40.063 51.3154 39.8928 51.7139 39.8264C52.1184 39.7552 52.5136 39.7898 52.8996 39.93C53.2864 40.0598 53.6232 40.289 53.9097 40.6177L56.5337 43.6279L55.8642 44.1687L53.4588 41.4093C53.2125 41.1267 52.9504 40.9307 52.6723 40.8211C52.4002 40.7068 52.1237 40.6746 51.8428 40.7247C51.5628 40.7641 51.3008 40.8824 51.0568 41.0795C50.8128 41.2766 50.6433 41.5068 50.5484 41.7702C50.4484 42.0278 50.4329 42.3008 50.5017 42.5892C50.5655 42.8718 50.718 43.1515 50.9593 43.4283L53.3647 46.1877L52.6952 46.7285Z" fill="#034833"/>
<path d="M66.4006 37.9017C65.8723 38.1953 65.3348 38.3322 64.788 38.3124C64.2412 38.2926 63.7302 38.1393 63.2549 37.8523C62.7757 37.5588 62.3788 37.1496 62.064 36.6247C61.7492 36.0999 61.5815 35.5676 61.561 35.028C61.5404 34.4883 61.6599 33.9889 61.9195 33.5297C62.1751 33.064 62.5671 32.6843 63.0953 32.3907C63.4297 32.2049 63.7794 32.0893 64.1444 32.0439C64.5095 31.9985 64.8667 32.0143 65.216 32.0913C65.5614 32.1618 65.8696 32.2966 66.1407 32.4959L65.6652 33.2194C65.3623 33.0116 65.0206 32.8953 64.6402 32.8705C64.2598 32.8458 63.8924 32.9319 63.538 33.1288C63.1836 33.3258 62.9157 33.5927 62.7344 33.9297C62.5559 34.2563 62.4755 34.6203 62.4933 35.0215C62.5138 35.4125 62.6401 35.8015 62.8723 36.1886C63.1005 36.5691 63.3873 36.869 63.7328 37.0881C64.0809 37.297 64.4486 37.412 64.8357 37.433C65.2294 37.4504 65.6035 37.3606 65.9579 37.1636C66.3123 36.9666 66.5702 36.7053 66.7314 36.3795C66.8993 36.05 66.965 35.6986 66.9283 35.3253L67.8288 35.3104C67.8685 35.6294 67.8357 35.9538 67.7304 36.2835C67.625 36.6133 67.4606 36.9189 67.2372 37.2005C67.0138 37.4822 66.735 37.7159 66.4006 37.9017Z" fill="#034833"/>
<path d="M76.8365 36.0463C76.721 36.0868 76.5978 36.1178 76.467 36.1393C76.346 36.1655 76.2197 36.1773 76.0879 36.1749L75.8038 35.4235C75.8787 35.4054 75.9731 35.3845 76.0868 35.3609C76.2104 35.3419 76.33 35.3121 76.4455 35.2716C76.7993 35.1477 77.0416 34.9777 77.1725 34.7617C77.3061 34.5528 77.3847 34.2092 77.4083 33.7309L77.4518 32.7432L77.698 33.4592L72.9344 28.2239L73.8116 27.9165L77.7294 32.2448L77.502 32.3245L77.6021 26.5885L78.5009 26.2736L78.2989 33.6863C78.289 34.0058 78.2411 34.3225 78.1553 34.6361C78.0767 34.9473 77.9322 35.2248 77.7219 35.4687C77.5143 35.7197 77.2192 35.9122 76.8365 36.0463Z" fill="#034833"/>
<g clip-path="url(#clip0_204_1623)">
<path d="M103.501 94.8336C100.122 94.837 96.8831 96.0159 94.494 98.1119C92.1048 100.208 90.7608 103.05 90.7568 106.014C90.7568 115.789 102.742 120.56 103.252 120.757C103.33 120.788 103.415 120.803 103.501 120.803C103.587 120.803 103.672 120.788 103.75 120.757C104.26 120.559 116.245 115.788 116.245 106.014C116.241 103.05 114.897 100.208 112.508 98.1119C110.119 96.0159 106.88 94.837 103.501 94.8336ZM103.501 119.668C101.798 118.935 91.9873 114.348 91.9873 106.014C91.9873 103.335 93.2003 100.765 95.3596 98.8711C97.5188 96.9768 100.447 95.9125 103.501 95.9125C106.555 95.9125 109.483 96.9768 111.642 98.8711C113.802 100.765 115.015 103.335 115.015 106.014C115.015 114.337 105.203 118.934 103.501 119.668Z" fill="#034833"/>
<path d="M103.501 97.7191C101.631 97.7191 99.8027 98.2056 98.2479 99.1171C96.693 100.029 95.4811 101.324 94.7655 102.84C94.0499 104.356 93.8628 106.024 94.2276 107.633C94.5925 109.242 95.4931 110.72 96.8154 111.88C98.1378 113.04 99.8226 113.83 101.657 114.15C103.491 114.47 105.392 114.306 107.12 113.678C108.847 113.05 110.324 111.986 111.363 110.622C112.401 109.258 112.956 107.654 112.956 106.014C112.953 103.814 111.956 101.706 110.183 100.151C108.411 98.5963 106.007 97.7216 103.501 97.7191ZM98.7108 111.874V111.212C98.7113 110.455 99.0541 109.73 99.6638 109.195C100.273 108.66 101.1 108.359 101.963 108.358H105.039C105.901 108.359 106.728 108.659 107.337 109.194C107.947 109.729 108.29 110.454 108.291 111.211V111.874C106.896 112.755 105.22 113.229 103.501 113.229C101.782 113.229 100.106 112.755 98.7108 111.874ZM109.506 110.937C109.426 109.946 108.921 109.017 108.093 108.338C107.264 107.66 106.174 107.281 105.041 107.279H101.964C100.831 107.281 99.7407 107.66 98.9124 108.338C98.0841 109.017 97.5793 109.946 97.4997 110.937C96.4039 109.91 95.6743 108.625 95.4006 107.239C95.1269 105.852 95.321 104.426 95.959 103.136C96.5971 101.845 97.6512 100.746 98.9918 99.9743C100.332 99.2025 101.901 98.7912 103.504 98.7912C105.108 98.7912 106.676 99.2025 108.017 99.9743C109.357 100.746 110.412 101.845 111.05 103.136C111.688 104.426 111.882 105.852 111.608 107.239C111.334 108.625 110.605 109.91 109.509 110.937H109.506Z" fill="#034833"/>
<path d="M81.3807 98.2432C81.4931 98.2841 81.6168 98.2948 81.7361 98.274C81.8554 98.2532 81.9651 98.2018 82.0511 98.1263L85.6198 94.9956L90.5174 99.2925C90.6328 99.3937 90.7894 99.4507 90.9527 99.4507C90.9743 99.4507 90.9959 99.4497 91.0173 99.4476C91.1085 99.4392 91.1964 99.413 91.2746 99.3709C91.3527 99.3288 91.419 99.2718 91.4688 99.2042C92.0848 98.3702 92.8103 97.6026 93.6305 96.9172C93.6899 96.8675 93.7374 96.8079 93.7702 96.7419C93.803 96.6759 93.8204 96.6048 93.8214 96.5328C93.8223 96.4608 93.8069 96.3894 93.7759 96.3227C93.745 96.256 93.6991 96.1955 93.6411 96.1446L88.9758 92.0513L92.5442 88.9204C92.6299 88.845 92.6883 88.749 92.7119 88.6445C92.7355 88.54 92.7234 88.4317 92.677 88.3333C92.6306 88.2349 92.552 88.1507 92.4512 88.0914C92.3504 88.0321 92.2318 88.0003 92.1104 88H81.6162C81.4532 88 81.2969 88.0567 81.1815 88.1578C81.0662 88.2588 81.0013 88.3958 81.001 88.5388V97.7447C81.001 97.8514 81.0371 97.9558 81.1046 98.0445C81.1722 98.1332 81.2683 98.2023 81.3807 98.2432ZM82.2314 89.0795H90.6239L87.6708 91.6704C87.6136 91.7205 87.5683 91.78 87.5373 91.8455C87.5064 91.911 87.4905 91.9812 87.4905 92.0521C87.4905 92.123 87.5064 92.1932 87.5373 92.2587C87.5683 92.3242 87.6136 92.3837 87.6708 92.4338L92.3343 96.5249C91.8016 97.0074 91.3098 97.5234 90.863 98.0689L86.0547 93.8507C85.9976 93.8006 85.9298 93.7608 85.8551 93.7336C85.7805 93.7065 85.7004 93.6925 85.6196 93.6925C85.5388 93.6925 85.4588 93.7065 85.3841 93.7336C85.3095 93.7608 85.2417 93.8006 85.1846 93.8507L82.2314 96.4416V89.0795Z" fill="#034833"/>
<path d="M92.7463 115.102C92.6935 115.04 92.6261 114.989 92.5487 114.952C92.4713 114.914 92.3857 114.892 92.2977 114.887C92.2097 114.881 92.1214 114.892 92.0387 114.919C91.956 114.946 91.8809 114.989 91.8186 115.043L85.6198 120.482L82.0511 117.351C81.9651 117.276 81.8555 117.224 81.7362 117.204C81.6169 117.183 81.4932 117.193 81.3808 117.234C81.2684 117.275 81.1724 117.344 81.1048 117.433C81.0372 117.522 81.001 117.626 81.001 117.733V126.939C81.0008 127.01 81.0167 127.08 81.0475 127.145C81.0784 127.211 81.1237 127.271 81.1808 127.321C81.2379 127.371 81.3058 127.411 81.3805 127.438C81.4552 127.465 81.5353 127.479 81.6162 127.479H92.1104C92.2321 127.479 92.3511 127.448 92.4523 127.388C92.5535 127.329 92.6324 127.245 92.679 127.146C92.7256 127.048 92.7377 126.939 92.7139 126.834C92.6901 126.73 92.6314 126.633 92.5452 126.558L88.9769 123.427L95.0097 118.134C95.067 118.083 95.1125 118.023 95.1434 117.958C95.1743 117.892 95.19 117.821 95.1897 117.75C95.1894 117.679 95.1731 117.609 95.1417 117.543C95.1102 117.477 95.0643 117.418 95.0065 117.368C94.1895 116.663 93.434 115.906 92.7463 115.102ZM87.6708 123.045C87.6137 123.095 87.5683 123.154 87.5374 123.22C87.5064 123.285 87.4905 123.355 87.4905 123.426C87.4905 123.497 87.5064 123.567 87.5374 123.633C87.5683 123.698 87.6137 123.758 87.6708 123.808L90.6239 126.398H82.2314V119.036L85.1846 121.627C85.2417 121.677 85.3095 121.717 85.3841 121.744C85.4588 121.771 85.5388 121.785 85.6196 121.785C85.7004 121.785 85.7805 121.771 85.8551 121.744C85.9298 121.717 85.9976 121.677 86.0547 121.627L92.1944 116.24C92.6627 116.755 93.1686 117.26 93.7061 117.749L87.6708 123.045Z" fill="#034833"/>
<path d="M125.621 117.234C125.508 117.193 125.385 117.183 125.265 117.203C125.146 117.224 125.036 117.276 124.95 117.351L121.381 120.482L115.182 115.043C115.12 114.989 115.045 114.947 114.962 114.92C114.879 114.893 114.791 114.881 114.703 114.887C114.615 114.892 114.53 114.914 114.452 114.952C114.375 114.989 114.308 115.04 114.255 115.103C113.567 115.906 112.812 116.663 111.995 117.367C111.937 117.417 111.891 117.476 111.86 117.542C111.828 117.608 111.812 117.678 111.812 117.749C111.811 117.82 111.827 117.891 111.858 117.957C111.889 118.022 111.934 118.082 111.992 118.133L118.025 123.427L114.457 126.557C114.371 126.632 114.312 126.728 114.288 126.833C114.264 126.938 114.276 127.047 114.322 127.145C114.368 127.244 114.447 127.329 114.549 127.388C114.65 127.448 114.769 127.479 114.891 127.479H125.385C125.548 127.479 125.705 127.422 125.82 127.321C125.935 127.22 126 127.083 126 126.939V117.733C126 117.626 125.964 117.522 125.897 117.433C125.829 117.344 125.733 117.275 125.621 117.234ZM124.77 126.4H116.377L119.33 123.809C119.388 123.759 119.433 123.699 119.464 123.634C119.495 123.568 119.511 123.498 119.511 123.427C119.511 123.356 119.495 123.286 119.464 123.221C119.433 123.155 119.388 123.096 119.33 123.046L113.294 117.749C113.833 117.26 114.339 116.755 114.806 116.24L120.946 121.627C121.003 121.677 121.071 121.717 121.145 121.744C121.22 121.771 121.3 121.785 121.381 121.785C121.462 121.785 121.542 121.771 121.616 121.744C121.691 121.717 121.759 121.677 121.816 121.627L124.769 119.036L124.77 126.4Z" fill="#034833"/>
<path d="M125.386 88H114.892C114.77 87.9999 114.651 88.0315 114.55 88.0908C114.449 88.1501 114.37 88.2344 114.323 88.3331C114.277 88.4317 114.264 88.5403 114.288 88.645C114.312 88.7497 114.371 88.8459 114.457 88.9213L118.025 92.0522L113.361 96.1446C113.303 96.1955 113.257 96.256 113.226 96.3227C113.195 96.3894 113.18 96.4608 113.181 96.5328C113.182 96.6048 113.199 96.6759 113.232 96.7419C113.265 96.8079 113.312 96.8675 113.372 96.9172C114.192 97.6027 114.917 98.3703 115.533 99.2042C115.583 99.2718 115.649 99.3288 115.728 99.3709C115.806 99.413 115.894 99.4392 115.985 99.4476C116.006 99.4497 116.028 99.4507 116.049 99.4507C116.213 99.4507 116.369 99.3937 116.485 99.2925L121.382 94.9956L124.951 98.1263C125.037 98.2017 125.147 98.2531 125.266 98.2739C125.385 98.2947 125.509 98.284 125.621 98.2431C125.734 98.2023 125.83 98.1332 125.897 98.0445C125.965 97.9557 126.001 97.8514 126.001 97.7447V88.5388C126.001 88.3958 125.936 88.2588 125.821 88.1578C125.705 88.0567 125.549 88 125.386 88ZM124.771 96.4416L121.817 93.8507C121.76 93.8006 121.693 93.7608 121.618 93.7336C121.543 93.7065 121.463 93.6925 121.382 93.6925C121.302 93.6925 121.222 93.7065 121.147 93.7336C121.072 93.7608 121.004 93.8006 120.947 93.8507L116.139 98.0689C115.692 97.5234 115.2 97.0073 114.668 96.5249L119.331 92.4331C119.388 92.383 119.434 92.3235 119.465 92.2581C119.496 92.1926 119.512 92.1224 119.512 92.0515C119.512 91.9806 119.496 91.9104 119.465 91.8449C119.434 91.7794 119.388 91.7199 119.331 91.6698L116.378 89.0789H124.771V96.4416Z" fill="#034833"/>
<path d="M103.501 100.339C102.81 100.305 102.124 100.454 101.531 100.766C100.938 101.078 100.466 101.539 100.175 102.089C99.8834 102.64 99.7873 103.254 99.8985 103.853C100.01 104.452 100.323 105.007 100.798 105.448C101.274 105.889 101.889 106.195 102.564 106.325C103.239 106.456 103.944 106.406 104.586 106.182C105.229 105.957 105.78 105.569 106.168 105.067C106.556 104.565 106.764 103.972 106.764 103.365C106.787 102.585 106.457 101.828 105.845 101.261C105.233 100.693 104.391 100.362 103.501 100.339ZM103.501 105.312C103.054 105.347 102.605 105.262 102.214 105.069C101.822 104.876 101.507 104.584 101.308 104.23C101.109 103.877 101.037 103.48 101.1 103.09C101.163 102.7 101.359 102.336 101.663 102.045C101.966 101.755 102.362 101.551 102.799 101.462C103.236 101.372 103.694 101.401 104.113 101.543C104.531 101.686 104.891 101.937 105.144 102.262C105.398 102.587 105.533 102.971 105.533 103.365C105.556 103.859 105.355 104.342 104.975 104.706C104.594 105.071 104.064 105.288 103.501 105.312V105.312Z" fill="#034833"/>
</g>
<defs>
<clipPath id="clip0_204_1623">
<rect width="45" height="39.4798" fill="white" transform="translate(81.001 88)"/>
</clipPath>
</defs>
</svg>
