<svg width="1920" height="880" viewBox="0 0 1920 880" fill="none" xmlns="http://www.w3.org/2000/svg">
<g opacity="0.4" clip-path="url(#clip0_204_5971)">
<path style="mix-blend-mode:multiply" d="M1703.08 795.516L1749.96 788.98L1798.33 782.232L1738.92 706.622L1703.08 795.516Z" fill="url(#paint0_linear_204_5971)"/>
<path style="mix-blend-mode:multiply" d="M1394.43 672.239L1347.55 678.782L1299.18 685.529L1358.6 761.133L1394.43 672.239Z" fill="url(#paint1_linear_204_5971)"/>
<path opacity="0.5" d="M1782 904.254L1954.52 915.279L1881.36 779.23L1782 904.254Z" stroke="white" stroke-miterlimit="10"/>
<path opacity="0.5" d="M1523.75 981.469L1758.15 970.52L1592.5 835.472L1523.75 981.469Z" stroke="white" stroke-miterlimit="10"/>
<path opacity="0.5" d="M1675 845.789L1787.5 836.574L1773.56 723.282L1675 845.789Z" stroke="white" stroke-miterlimit="10"/>
<path opacity="0.5" d="M1616.25 677.16L1715.72 689.998L1709.54 604.352L1616.25 677.16Z" stroke="white" stroke-miterlimit="10"/>
<path opacity="0.5" d="M251 759.562L350.468 772.4L344.293 686.754L251 759.562Z" stroke="white" stroke-miterlimit="10"/>
<path opacity="0.5" d="M1762.77 637.632L1729.83 602.959L1766.82 614.727L1762.77 637.632Z" stroke="white" stroke-miterlimit="10"/>
<path opacity="0.5" d="M1906.47 85.3014L1879.38 64.8523L1927.17 60.2348L1906.47 85.3014Z" stroke="white" stroke-miterlimit="10"/>
<path opacity="0.5" d="M1807.97 765.621L1836.07 739.591L1787.31 741.771L1807.97 765.621Z" stroke="white" stroke-miterlimit="10"/>
<path opacity="0.5" d="M208.964 681.887L237.062 655.856L188.306 658.037L208.964 681.887Z" stroke="white" stroke-miterlimit="10"/>
<path opacity="0.5" d="M1810.48 705.484L1780.64 538.187L1867.49 611.722L1810.48 705.484Z" stroke="white" stroke-miterlimit="10"/>
<path opacity="0.5" d="M1881.86 755.025L1858.5 660.371L1977.79 645.624L1881.86 755.025Z" stroke="white" stroke-miterlimit="10"/>
<path opacity="0.5" d="M1867.45 470.347L1946.16 459.602L1842.43 381L1867.45 470.347Z" stroke="white" stroke-miterlimit="10"/>
<path opacity="0.5" d="M110.45 900.347L189.164 889.602L85.4258 811L110.45 900.347Z" stroke="white" stroke-miterlimit="10"/>
<path opacity="0.5" d="M1905.25 603.157L1885.9 587.9L1922.11 576.638L1905.25 603.157Z" stroke="white" stroke-miterlimit="10"/>
<path opacity="0.5" d="M1736.95 138.835L1795.24 122.732L1766.37 39.9992L1736.95 138.835Z" stroke="white" stroke-miterlimit="10"/>
<path opacity="0.5" d="M1646.94 854.071L1669.88 859.428L1646.22 835L1646.94 854.071Z" stroke="white" stroke-miterlimit="10"/>
<path opacity="0.5" d="M1682.56 789.454L1631.95 757.06L1643.03 719.999L1682.56 789.454Z" stroke="white" stroke-miterlimit="10"/>
<path opacity="0.5" d="M70.5603 552.454L19.945 520.06L31.0317 482.999L70.5603 552.454Z" stroke="white" stroke-miterlimit="10"/>
<path opacity="0.5" d="M1418.25 808.123L1296.25 752.941L1400.23 712.966L1418.25 808.123Z" stroke="white" stroke-miterlimit="10"/>
<path opacity="0.5" d="M1429 782.945L1558.77 657.2L1580.65 801.934L1429 782.945Z" stroke="white" stroke-miterlimit="10"/>
<path opacity="0.5" d="M1786.11 344.466L1985.39 268.598L1815.73 163.001L1786.11 344.466Z" stroke="white" stroke-miterlimit="10"/>
<path opacity="0.5" d="M1762.29 246.908L1796.39 201.533L1711.97 188.662L1762.29 246.908Z" stroke="white" stroke-miterlimit="10"/>
<path opacity="0.5" d="M1362.55 949.026L1187.87 859.194L1328.54 809.289L1362.55 949.026Z" stroke="white" stroke-miterlimit="10"/>
<path opacity="0.5" d="M1172.68 862.942L1119.8 900.593L1072.38 814.998L1172.68 862.942Z" stroke="white" stroke-miterlimit="10"/>
<path opacity="0.5" d="M67.8688 60.2594L7.59938 84.3676L-18.2753 -9.99948L67.8688 60.2594Z" stroke="white" stroke-miterlimit="10"/>
<path opacity="0.5" d="M1433.25 706.294L1451.27 733.202L1464.05 684.465L1433.25 706.294Z" stroke="white" stroke-miterlimit="10"/>
<path opacity="0.5" d="M1715.35 360.566L1732.2 348.55L1691.84 330.999L1715.35 360.566Z" stroke="white" stroke-miterlimit="10"/>
<path opacity="0.5" d="M1639.72 510.603L1721.41 423.07L1531.97 451.823L1639.72 510.603Z" stroke="white" stroke-miterlimit="10"/>
<path opacity="0.5" d="M31.7152 411.603L113.407 324.07L-76.0315 352.823L31.7152 411.603Z" stroke="white" stroke-miterlimit="10"/>
<path opacity="0.5" d="M1642.84 624.244L1649.56 585.432L1604.63 596.026L1642.84 624.244Z" stroke="white" stroke-miterlimit="10"/>
<path opacity="0.2" d="M1782 945.254L1954.52 956.291L1881.37 820.235L1782 945.254Z" fill="white"/>
<path opacity="0.5" d="M1547.94 1016.93L1782.16 1006.46L1616.38 871.755L1547.94 1016.93Z" fill="#034833"/>
<path opacity="0.3" d="M1703 869.609L1815.61 860.128L1801.87 746.277L1703 869.609Z" fill="#83CD20"/>
<path opacity="0.5" d="M1640.13 713.441L1739.67 726.082L1733.73 639.811L1640.13 713.441Z" fill="#034833"/>
<path d="M1785.83 673.606L1753.99 638.497L1790.27 649.91L1785.83 673.606Z" fill="white"/>
<path d="M1883.47 99.3003L1856.38 78.8523L1904.17 74.2348L1883.47 99.3003Z" fill="white"/>
<path d="M71.4673 907.3L44.3758 886.852L92.1734 882.235L71.4673 907.3Z" fill="white"/>
<path d="M1832.14 801.078L1859.94 775.874L1811.35 777.604L1832.14 801.078Z" fill="#83CD20"/>
<path opacity="0.2" d="M1833.99 740.689L1804.51 574.471L1890.63 647.483L1833.99 740.689Z" fill="white"/>
<path opacity="0.5" d="M1905.72 791.302L1882.56 696.163L2001.98 681.083L1905.72 791.302Z" fill="#034833"/>
<path d="M1883.46 493.349L1962.16 482.602L1858.43 404L1883.46 493.349Z" fill="#83CD20"/>
<path opacity="0.2" d="M216.455 922.349L295.164 911.602L191.426 833L216.455 922.349Z" fill="white"/>
<path d="M1915.97 638.086L1896.63 622.834L1932.84 611.571L1915.97 638.086Z" fill="#034833"/>
<path opacity="0.2" d="M1774.95 496.659L1833.35 480.271L1804.69 397.001L1774.95 496.659Z" fill="white"/>
<path d="M1637.95 841.072L1660.88 846.428L1637.22 822L1637.95 841.072Z" fill="#034833"/>
<path d="M1639.56 790.633L1588.87 758.437L1599.72 722.001L1639.56 790.633Z" fill="#83CD20"/>
<path d="M118.39 587.973L58.5748 593.289L45.0011 557.778L118.39 587.973Z" fill="#83CD20"/>
<path opacity="0.2" d="M1449.99 852.728L1327.96 797.631L1431.67 758.397L1449.99 852.728Z" fill="white"/>
<path opacity="0.1" d="M1832.12 347.47L2031.39 271.609L1861.73 166.001L1832.12 347.47Z" fill="white"/>
<path opacity="0.3" d="M-61.8802 873.47L137.387 797.609L-32.2673 692.001L-61.8802 873.47Z" fill="#83CD20"/>
<path d="M1781.29 257.732L1815.7 211.535L1731.18 198.933L1781.29 257.732Z" fill="#83CD20"/>
<path opacity="0.1" d="M1445 807.394L1585.29 669.938L1587.64 818.722L1445 807.394Z" fill="white"/>
<path opacity="0.5" d="M1543.68 921.942L1490.8 959.593L1443.38 873.998L1543.68 921.942Z" fill="#034833"/>
<path d="M75.6765 136.942L22.7994 174.593L-24.6158 88.9983L75.6765 136.942Z" fill="#83CD20"/>
<path opacity="0.5" d="M1457.24 742.283L1475.15 769.487L1488.24 719.927L1457.24 742.283Z" fill="#034833"/>
<path opacity="0.1" d="M125.715 454.423L207.718 366.068L18.0159 395.518L125.715 454.423Z" fill="white"/>
<path opacity="0.2" d="M1667.02 659.705L1673.43 621.715L1628.72 631.749L1667.02 659.705Z" fill="white"/>
<path opacity="0.5" d="M1340.28 985.656L1185.93 890.16L1321.71 833.905L1340.28 985.656Z" fill="#034833"/>
<path opacity="0.5" d="M-68.8919 806.466L130.391 730.598L-39.2673 625.001L-68.8919 806.466Z" stroke="white" stroke-miterlimit="10"/>
</g>
<defs>
<linearGradient id="paint0_linear_204_5971" x1="1579.09" y1="692.257" x2="1895.22" y2="823.586" gradientUnits="userSpaceOnUse">
<stop offset="0.18" stop-color="#747378" stop-opacity="0.7"/>
<stop offset="0.27" stop-color="#8E8D91" stop-opacity="0.57"/>
<stop offset="0.46" stop-color="#BFBEC1" stop-opacity="0.32"/>
<stop offset="0.65" stop-color="#E2E2E3" stop-opacity="0.14"/>
<stop offset="0.83" stop-color="#F7F7F8" stop-opacity="0.04"/>
<stop offset="1" stop-color="white" stop-opacity="0"/>
</linearGradient>
<linearGradient id="paint1_linear_204_5971" x1="1518.39" y1="775.502" x2="1202.3" y2="644.192" gradientUnits="userSpaceOnUse">
<stop offset="0.18" stop-color="#747378" stop-opacity="0.7"/>
<stop offset="0.27" stop-color="#8E8D91" stop-opacity="0.57"/>
<stop offset="0.46" stop-color="#BFBEC1" stop-opacity="0.32"/>
<stop offset="0.65" stop-color="#E2E2E3" stop-opacity="0.14"/>
<stop offset="0.83" stop-color="#F7F7F8" stop-opacity="0.04"/>
<stop offset="1" stop-color="white" stop-opacity="0"/>
</linearGradient>
<clipPath id="clip0_204_5971">
<rect width="1920" height="880" fill="white"/>
</clipPath>
</defs>
</svg>
