<svg width="1800" height="632" viewBox="0 0 1800 632" fill="none" xmlns="http://www.w3.org/2000/svg">
<g style="mix-blend-mode:screen" opacity="0.25">
<path d="M91.2325 449.8C104.157 450.358 117.333 449.8 130.068 449.278C135.927 449.026 141.993 448.774 147.941 448.63C154.242 448.486 160.47 448.297 166.734 448.117C181.503 447.676 196.776 447.217 211.797 447.28C263.196 447.478 313.415 447.964 361.044 448.729C378.144 449.008 395.433 449.935 412.191 450.835L425.609 451.546C441.189 452.338 456.83 453.346 471.509 454.408C478.277 454.876 485.162 455.434 491.822 455.974C497.222 456.415 502.677 456.874 508.104 457.252C515.802 457.81 523.5 458.347 531.198 458.863C537.371 459.283 543.546 459.712 549.719 460.15L550.503 460.204C555.903 460.6 561.464 460.996 566.927 461.608C574.235 462.43 581.538 463.273 588.833 464.137C597.833 465.208 607.239 466.306 616.445 467.305C621.081 467.809 625.815 468.205 630.387 468.583C636.164 469.06 642.15 469.555 648 470.275C659.411 471.697 670.995 473.317 682.2 474.883C688.26 475.735 694.323 476.575 700.388 477.403C707.057 478.303 713.727 479.203 720.396 480.103C731.484 481.561 742.94 483.073 754.19 484.675C773.991 487.501 793.493 490.489 811.592 493.297C816.425 494.053 821.258 494.755 826.091 495.457C839.024 497.347 852.398 499.3 865.349 502.099C884.996 506.347 904.823 511.378 924.003 516.238C929.81 517.714 935.622 519.181 941.435 520.639C977.922 529.774 1011.64 543.319 1041.76 560.905C1073.85 579.542 1102.02 604.222 1124.71 633.58C1153.38 670.732 1175.91 714.679 1193.61 767.932C1204.41 800.485 1212.83 827.476 1220.08 852.856C1226.5 875.356 1232.19 898.423 1237.7 920.761L1240.99 934.135C1245.49 952.45 1249.83 971.161 1253.99 989.251L1255.37 995.29C1258.71 1009.85 1261.95 1024.69 1265.08 1039.04L1265.43 1040.63C1266.49 1045.48 1267.58 1050.34 1268.66 1055.19C1271.49 1067.85 1274.42 1080.93 1276.81 1093.89C1277.59 1098.14 1278.46 1102.45 1279.29 1106.62C1282.89 1124.62 1286.57 1143.23 1285.59 1162.13C1285.22 1169.25 1281.19 1173.27 1274.53 1173.14C1263.46 1172.93 1251.68 1172.64 1240.13 1171.68C1230.57 1170.89 1220.88 1169.88 1211.5 1168.89C1202.12 1167.9 1192.31 1166.89 1182.7 1166.09C1170.49 1165.08 1158.06 1164.41 1146.03 1163.77L1134.61 1163.15C1124.78 1162.6 1114.61 1162.02 1104.46 1161.73L1092.04 1161.34C1076.59 1160.85 1060.61 1160.33 1044.89 1160.36C1024.87 1160.36 1004.51 1160.92 984.824 1161.43L973.124 1161.74C967.256 1161.88 961.299 1162.26 955.539 1162.64C952.785 1162.82 950.031 1162.98 947.276 1163.14L937.548 1163.68L894.897 1166.02L884.276 1166.56C878.58 1166.84 872.694 1167.13 866.907 1167.46C860.841 1167.84 855.81 1168.3 851.094 1168.91C842.562 1170.01 833.903 1171.2 825.524 1172.35C819.938 1173.11 814.346 1173.87 808.749 1174.62C803.997 1175.26 799.155 1175.85 794.475 1176.42C784.781 1177.59 774.755 1178.81 764.982 1180.53C744.723 1184.13 726.174 1187.85 708.281 1192.03L704.358 1192.93C678.015 1199.09 650.763 1205.44 624.339 1213.02C599.318 1220.22 574.344 1228.97 551.088 1237.37C498.591 1256.36 448.677 1279.98 411.066 1298.44C391.419 1308.08 365.508 1320.71 339.299 1332.95L327.6 1338.43C306.603 1348.25 285.003 1358.42 263.195 1367.3C251.702 1371.99 240.696 1376.19 229.896 1380H232.65C242.631 1376.4 252.873 1372.5 263.51 1368.16C285.299 1359.28 306.981 1349.1 327.951 1339.26C331.857 1337.46 335.757 1335.63 339.651 1333.78C365.859 1321.53 391.779 1308.9 411.426 1299.26C449.018 1280.82 498.906 1257.21 551.357 1238.24C574.604 1229.83 599.552 1221.06 624.546 1213.94C650.952 1206.37 678.186 1200 704.529 1193.86L708.443 1192.96C726.336 1188.77 744.867 1185.02 765.143 1181.46C774.899 1179.75 784.943 1178.54 794.6 1177.37C799.28 1176.8 804.122 1176.22 808.883 1175.57C814.475 1174.83 820.068 1174.06 825.659 1173.28C834.039 1172.14 842.697 1170.95 851.22 1169.85C855.918 1169.24 860.922 1168.78 866.97 1168.41C872.757 1168.05 878.67 1167.76 884.331 1167.51C887.865 1167.33 891.404 1167.15 894.951 1166.97L937.602 1164.63L947.34 1164.09C950.094 1163.94 952.848 1163.76 955.611 1163.58C961.362 1163.22 967.31 1162.84 973.151 1162.68L984.852 1162.38C1004.53 1161.87 1024.88 1161.34 1044.89 1161.3C1060.6 1161.3 1076.57 1161.79 1092.01 1162.29C1096.15 1162.42 1100.29 1162.55 1104.43 1162.67C1114.58 1162.98 1124.74 1163.57 1134.56 1164.09C1138.37 1164.31 1142.18 1164.52 1145.99 1164.72C1158 1165.35 1170.43 1166.02 1182.62 1167.04C1192.22 1167.84 1201.97 1168.84 1211.42 1169.84C1220.87 1170.84 1230.51 1171.83 1240.06 1172.63C1251.66 1173.6 1263.46 1173.88 1274.53 1174.08C1281.65 1174.22 1286.14 1169.77 1286.54 1162.2C1286.65 1160.07 1286.7 1157.96 1286.7 1155.83C1286.7 1139.02 1283.42 1122.53 1280.23 1106.46C1279.4 1102.29 1278.55 1097.98 1277.77 1093.74C1275.36 1080.76 1272.44 1067.64 1269.6 1055.04C1268.51 1050.19 1267.43 1045.33 1266.37 1040.48L1266.03 1038.9C1262.9 1024.5 1259.66 1009.7 1256.31 995.137L1254.92 989.098C1250.77 970.999 1246.47 952.288 1241.94 933.964C1240.83 929.506 1239.73 925.048 1238.63 920.59C1233.13 898.243 1227.43 875.14 1221.01 852.649C1213.76 827.26 1205.34 800.26 1194.52 767.689C1176.79 714.337 1154.21 670.3 1125.49 633.067C1102.71 603.619 1074.45 578.862 1042.26 560.167C1012.1 542.545 978.264 528.964 941.697 519.811C935.883 518.353 930.072 516.886 924.264 515.41C905.085 510.541 885.248 505.51 865.583 501.262C852.596 498.454 839.214 496.501 826.263 494.611C821.427 493.909 816.597 493.189 811.773 492.451C793.665 489.643 774.18 486.655 754.362 483.829C743.103 482.227 731.637 480.715 720.557 479.248C713.88 478.372 707.211 477.472 700.55 476.548C694.484 475.72 688.422 474.88 682.362 474.028C671.156 472.453 659.573 470.833 648.161 469.42C642.294 468.691 636.299 468.196 630.504 467.71C625.94 467.332 621.216 466.945 616.589 466.441C607.383 465.442 598.031 464.344 588.987 463.282C581.69 462.418 574.385 461.572 567.071 460.744C561.599 460.132 556.01 459.727 550.61 459.34L549.836 459.286C543.651 458.848 537.474 458.419 531.305 457.999C523.613 457.477 515.919 456.94 508.221 456.388C502.821 455.986 497.393 455.56 491.939 455.11C485.279 454.57 478.439 454.012 471.617 453.544C456.92 452.527 441.27 451.465 425.717 450.673C421.241 450.451 416.772 450.214 412.308 449.962C395.532 449.062 378.189 448.162 361.125 447.865C313.488 447.091 263.268 446.605 211.86 446.416C196.83 446.362 181.548 446.812 166.77 447.244C160.506 447.436 154.245 447.61 147.987 447.766C142.02 447.91 135.954 448.162 130.086 448.405C117.369 448.936 104.22 449.494 91.3405 448.936C69.3535 448.036 45.9805 446.47 23.2015 439.378C13.9975 436.516 6.2845 432.718 0.0625 427.984V429.136C7.00568 434.106 14.737 437.87 22.9315 440.269C45.7465 447.325 69.1915 448.855 91.2325 449.8Z" fill="#034833"/>
<path d="M166.932 -419.999C166.149 -412.034 164.979 -404.051 163.818 -396.284C163.143 -391.784 162.441 -387.068 161.838 -382.451C161.316 -378.545 160.857 -374.567 160.398 -370.751C159.552 -363.497 158.67 -356 157.428 -348.701C156.06 -340.601 154.404 -332.438 152.802 -324.527C151.497 -318.056 150.147 -311.378 148.959 -304.772C147.564 -297.041 146.259 -289.157 145.017 -281.534C143.514 -272.399 141.966 -262.949 140.229 -253.697C138.888 -246.56 137.259 -239.351 135.729 -232.376C134.379 -226.4 132.984 -220.217 131.778 -214.097C130.203 -206.114 128.718 -197.969 127.278 -190.094C125.478 -180.266 123.678 -170.096 121.59 -160.151C119.043 -147.803 116.19 -135.302 113.49 -123.206C111.438 -114.089 109.323 -104.648 107.325 -95.3602C105.174 -85.3252 103.086 -75.1102 101.025 -65.2372C97.5334 -48.1912 93.9334 -30.5692 89.9014 -13.3522C86.6074 0.714813 82.8094 14.9168 79.1014 28.6508C76.0324 40.1168 72.8644 51.9788 69.9934 63.6968C59.5534 106.735 46.5034 151.51 31.2034 196.789C26.9194 209.479 22.4734 222.358 18.1714 234.805C12.1144 252.328 5.89542 270.373 -0.0175781 288.346V291.316C6.14742 272.47 12.6904 253.516 19.0444 235.102C23.3554 222.655 27.8014 209.785 32.0764 197.095C47.3764 151.762 60.4354 106.96 70.9474 63.8948C73.8094 52.1949 76.9774 40.3238 80.0464 28.8668C83.7184 15.1238 87.5254 0.912842 90.8464 -13.1721C94.8784 -30.3982 98.4874 -48.0292 101.979 -65.0752C104.004 -74.9752 106.092 -85.1632 108.279 -95.1891C110.268 -104.477 112.392 -113.909 114.444 -123.026C117.144 -135.131 119.979 -147.632 122.544 -159.989C124.605 -169.943 126.45 -180.113 128.232 -189.95C129.663 -197.825 131.139 -205.97 132.732 -213.944C133.938 -220.046 135.333 -226.22 136.674 -232.196C138.249 -239.18 139.878 -246.398 141.174 -253.553C142.911 -262.814 144.468 -272.273 145.971 -281.408C147.222 -289.031 148.518 -296.915 149.913 -304.637C151.101 -311.225 152.451 -317.903 153.756 -324.365C155.358 -332.285 157.005 -340.466 158.382 -348.566C159.624 -355.901 160.506 -363.407 161.361 -370.67C161.811 -374.522 162.261 -378.491 162.792 -382.37C163.404 -386.978 164.097 -391.658 164.772 -396.185C165.942 -403.997 167.112 -412.025 167.904 -420.035L166.932 -419.999Z" fill="#034833"/>
<path d="M1800 1371.61C1784.96 1341.5 1767.77 1312.52 1748.55 1284.89C1727.12 1254.06 1703.32 1224.96 1677.36 1197.84C1640.39 1159.49 1601.28 1123.7 1571.35 1096.82C1548.71 1076.49 1525.01 1053.62 1496.76 1024.88C1481.93 1009.69 1468.04 993.62 1455.17 976.744C1425.04 937.405 1400.66 896.058 1382.7 853.858L1380.78 849.358C1369.75 823.455 1358.33 796.663 1349.18 769.627C1339.9 742.231 1331.54 713.998 1323.45 686.709C1320.06 675.225 1316.54 663.355 1313 651.709C1311.2 645.709 1309.37 639.709 1307.5 633.709C1302.89 618.625 1298.1 603.037 1293.69 587.629C1282.89 549.748 1271.6 519.103 1258.32 491.185C1247.81 468.917 1233.26 448.796 1215.41 431.848C1201.54 418.721 1185.06 408.676 1167.04 402.373C1143.59 393.967 1119.34 390.817 1098.75 388.873C1080.4 387.073 1061.32 386.128 1042.05 385.939C995.653 385.48 948.448 385.192 902.854 384.922C872.71 384.742 842.569 384.544 812.431 384.328C801.973 384.247 791.335 383.671 781.047 383.122L769.78 382.519C747.073 381.313 723.592 380.071 700.48 378.568C684.991 377.551 668.08 376.147 648.829 374.257C629.029 372.322 605.557 369.955 581.392 367.057C560.431 364.537 538.759 361.927 517.564 358.363L501.904 355.717C473.302 350.965 443.728 346.051 415.054 339.445C361.504 327.106 322.354 312.778 288.154 292.987C256.825 274.897 234.325 251.695 219.304 221.995C204.094 191.899 196.255 156.727 194.626 111.295C194.032 94.9506 195.121 78.2466 196.165 62.0916C196.543 56.2956 196.93 50.3106 197.236 44.4156L197.398 41.1036C197.974 29.8896 198.559 18.2976 200.188 7.05661C203.626 -16.6764 207.694 -39.8334 211.573 -61.3434C218.687 -100.511 228.282 -139.187 240.301 -177.137C256.402 -228.059 273.43 -268.307 293.887 -303.794C314.344 -339.281 334.648 -365.399 357.661 -385.784C372.599 -398.986 388.981 -410.459 406.495 -419.984H404.569C387.55 -410.569 371.62 -399.308 357.067 -386.405C333.973 -365.957 313.651 -339.83 293.104 -304.19C272.557 -268.55 255.556 -228.329 239.437 -177.344C227.394 -139.356 217.775 -100.641 210.637 -61.4334C206.758 -39.9414 202.69 -16.7844 199.252 6.96661C197.623 18.2526 197.029 29.8716 196.453 41.1036L196.282 44.4156C195.985 50.3016 195.598 56.2866 195.22 62.0826C194.176 78.2826 193.096 94.9777 193.681 111.376C195.31 156.934 203.185 192.232 218.458 222.454C233.542 252.298 256.168 275.644 287.614 293.833C321.931 313.633 361.153 328.033 414.802 340.39C443.503 346.996 473.095 351.919 501.706 356.671C506.944 357.541 512.173 358.414 517.393 359.29C538.615 362.89 560.296 365.464 581.293 367.984C605.458 370.9 628.993 373.267 648.748 375.184C668.026 377.074 684.937 378.487 700.426 379.495C723.511 380.998 746.992 382.249 769.726 383.455L781.003 384.049C791.299 384.607 801.946 385.183 812.422 385.255C842.566 385.489 872.71 385.687 902.854 385.849C948.475 386.128 995.644 386.407 1042.04 386.866C1061.3 387.055 1080.35 388.045 1098.68 389.8C1119.23 391.771 1143.39 394.921 1166.75 403.3C1184.65 409.56 1201.02 419.538 1214.78 432.577C1232.56 449.445 1247.05 469.475 1257.5 491.644C1270.76 519.544 1281.98 550.144 1292.81 587.944C1297.22 603.37 1302.01 618.958 1306.64 634.042C1308.47 640.042 1310.3 646.042 1312.13 652.042C1315.67 663.688 1319.18 675.559 1322.59 687.034C1330.69 714.34 1339.03 742.573 1348.32 769.987C1357.49 797.059 1368.9 823.87 1379.94 849.79L1381.86 854.29C1399.86 896.59 1424.28 937.99 1454.45 977.382C1467.34 994.292 1481.26 1010.39 1496.12 1025.6C1524.38 1054.4 1548.09 1077.25 1570.74 1097.6C1600.67 1124.46 1639.76 1160.23 1676.71 1198.56C1702.64 1225.64 1726.41 1254.71 1747.81 1285.5C1767.34 1313.58 1784.79 1343.06 1800.01 1373.7L1800 1371.61Z" fill="#034833"/>
<path d="M1487.94 -419.996C1482.12 -415.244 1476.24 -410.573 1470.29 -406.073C1449.23 -390.125 1427.36 -374.501 1406.21 -359.39C1397.71 -353.324 1389.23 -347.249 1380.76 -341.165C1342.91 -313.877 1314.1 -288.803 1290.11 -262.253C1261 -229.414 1242.27 -188.684 1236.3 -145.208C1235.84 -141.509 1235.35 -137.81 1234.86 -134.111C1233.06 -120.485 1231.18 -106.4 1230.75 -92.4411C1229.97 -67.3131 1229.66 -37.5411 1233.29 -7.14807C1233.96 -1.55008 1234.19 4.25488 1234.4 9.86188C1234.5 12.9669 1234.63 16.1619 1234.82 19.3299V19.6449C1235.19 25.7199 1235.57 31.9839 1236.26 38.1579C1237.05 45.3579 1237.9 52.5579 1238.74 59.8119C1239.82 68.9919 1240.94 78.4779 1241.91 87.8109C1242.59 94.2458 1243.1 100.825 1243.59 107.179C1243.98 112.147 1244.38 117.277 1244.85 122.326C1245.31 127.159 1245.91 132.064 1246.48 136.798C1247.6 145.924 1248.75 155.365 1248.89 164.608C1248.95 168.208 1249.04 171.808 1249.13 175.408C1249.56 192.508 1250.03 210.283 1246.37 227.437C1242.59 245.23 1234.83 258.937 1222.66 269.233C1213.58 276.937 1203.17 282.193 1190.34 287.719C1165.42 298.497 1139.59 307.027 1113.16 313.207C1083.77 320.011 1054.47 325.546 1027.18 330.523C1004.68 334.618 982.287 337.723 961.281 340.612C947.574 342.475 933.516 343.672 919.881 344.833L918.324 344.968C904.95 346.102 890.73 347.263 876.807 347.803C854.181 348.703 835.164 349.261 815.922 349.216C791.163 349.162 764.964 348.712 733.464 347.803C721.404 347.452 709.164 346.723 697.257 346.003C691.407 345.661 685.557 345.31 679.698 345.004C675.702 344.794 671.709 344.599 667.719 344.419C661.905 344.149 656.1 343.87 650.295 343.519C645.237 343.222 639.252 342.817 633.195 342.079C624.753 341.044 616.311 339.946 607.869 338.839C601.488 338.011 595.098 337.174 588.708 336.373C584.541 335.842 580.356 335.392 576.18 334.933C568.53 334.096 560.619 333.241 552.951 331.945C536.202 329.128 518.283 325.96 500.751 321.883C470.844 314.935 444.582 308.383 420.48 301.75C394.137 294.55 368.442 283.885 341.937 269.17C310.284 251.611 288.252 232.126 272.583 207.871C258.894 186.685 249.282 163.42 243.207 136.771C238.61 116.322 235.955 95.4843 235.278 74.5359C234.576 53.9349 236.367 32.5419 237.978 13.6689C239.589 -5.20407 242.235 -23.9241 245.061 -43.0311L245.907 -48.8091C247.977 -63.0111 250.119 -77.6991 253.764 -91.6671C260.55 -117.677 268.245 -143.534 276.615 -168.518C286.292 -197.338 298.646 -225.189 313.515 -251.705C336.627 -292.925 360.846 -322.895 389.727 -346.025C412.011 -363.881 437.913 -378.695 466.722 -390.062C485.001 -397.262 503.82 -403.04 518.175 -407.261C528.075 -410.177 538.542 -412.04 548.667 -413.849L552.33 -414.497C559.827 -415.847 567.513 -416.99 574.947 -418.097C579.069 -418.709 583.191 -419.33 587.313 -419.987H555.903L551.493 -419.222L547.839 -418.574C537.588 -416.774 526.995 -414.848 516.834 -411.869C502.434 -407.621 483.435 -401.807 464.985 -394.526C435.726 -382.979 409.41 -367.931 386.748 -349.778C357.372 -326.243 332.748 -295.832 309.348 -254.054C294.338 -227.277 281.869 -199.152 272.106 -170.048C263.691 -144.956 255.969 -118.991 249.156 -92.8821C245.439 -78.6531 243.279 -63.8301 241.191 -49.5021L240.345 -43.7331C237.51 -24.5361 234.828 -5.73508 233.226 13.2729C231.624 32.2809 229.815 53.8359 230.526 74.7069C231.21 95.9616 233.904 117.104 238.572 137.851C244.773 165.076 254.592 188.854 268.596 210.517C284.706 235.465 307.296 255.445 339.642 273.409C366.498 288.313 392.535 299.104 419.247 306.421C443.412 313.036 469.728 319.633 499.698 326.59C517.383 330.703 535.392 333.889 552.213 336.715C560.016 338.029 567.999 338.902 575.712 339.739C579.87 340.189 584.028 340.639 588.168 341.17C594.552 341.968 600.933 342.79 607.311 343.636C615.762 344.743 624.213 345.841 632.673 346.876C638.829 347.632 644.913 348.037 650.043 348.343C655.866 348.685 661.689 348.955 667.521 349.243C671.505 349.435 675.489 349.63 679.473 349.828C685.323 350.134 691.173 350.485 697.005 350.827C708.903 351.538 721.215 352.267 733.356 352.627C764.856 353.527 791.136 353.995 815.931 354.049C835.254 354.049 854.334 353.518 877.023 352.636C891.045 352.087 905.328 350.926 918.747 349.783L920.313 349.648C933.975 348.487 948.087 347.281 961.911 345.4C982.98 342.538 1005.43 339.397 1028.03 335.275C1055.37 330.298 1084.73 324.745 1114.23 317.914C1140.94 311.673 1167.04 303.056 1192.22 292.165C1205.44 286.477 1216.21 281.023 1225.75 272.932C1238.75 261.889 1247.02 247.345 1251.03 228.472C1254.79 210.769 1254.34 192.751 1253.9 175.372C1253.81 171.772 1253.72 168.172 1253.66 164.644C1253.52 155.149 1252.35 145.582 1251.23 136.321C1250.65 131.614 1250.06 126.754 1249.61 121.984C1249.14 116.971 1248.71 111.859 1248.35 106.909C1247.86 100.519 1247.35 93.9129 1246.66 87.4239C1245.68 78.0549 1244.57 68.5239 1243.49 59.3619C1242.64 52.1619 1241.79 44.9619 1241 37.7619C1240.34 31.7139 1239.95 25.4949 1239.58 19.4919V19.1679C1239.39 16.0629 1239.26 12.8679 1239.16 9.81689C1238.94 4.1109 1238.72 -1.79312 1238.02 -7.58911C1234.42 -37.6581 1234.74 -67.2051 1235.51 -92.1891C1235.94 -105.905 1237.79 -119.873 1239.59 -133.382C1240.07 -137.09 1240.57 -140.798 1241.04 -144.506C1244.37 -170.241 1252.48 -195.128 1264.95 -217.883C1272.84 -232.667 1282.46 -246.456 1293.62 -258.959C1317.38 -285.248 1345.94 -310.115 1383.52 -337.196C1391.98 -343.292 1400.45 -349.364 1408.94 -355.412C1430.12 -370.541 1452.02 -386.183 1473.13 -402.212C1480.68 -407.927 1488.12 -413.912 1495.46 -419.969L1487.94 -419.996Z" fill="#034833"/>
<path d="M122.913 325.114C131.193 336.814 142.281 346.714 156.798 355.183C179.298 368.35 205.596 377.872 237.159 384.298C242.601 385.408 248.043 386.533 253.485 387.673C266.715 390.436 280.386 393.28 293.922 395.71C301.203 397.015 308.646 397.825 315.846 398.617C320.22 399.094 324.747 399.589 329.157 400.192C334.935 400.975 340.803 401.857 346.482 402.703C353.736 403.792 361.242 404.917 368.658 405.862C374.004 406.537 379.458 407.014 384.714 407.473C389.34 407.878 394.128 408.301 398.799 408.85C404.712 409.552 410.724 410.417 416.529 411.253C420.894 411.883 425.259 412.513 429.633 413.053C433.368 413.539 437.157 413.863 440.829 414.178C442.152 414.295 443.475 414.404 444.789 414.529L460.233 415.915C470.691 416.815 481.509 417.814 492.129 418.867C506.88 420.334 521.829 421.945 536.355 423.503L546.651 424.609C555.495 425.551 564.345 426.508 573.201 427.48C582.057 428.452 590.907 429.409 599.751 430.351C617.931 432.295 636.111 434.215 654.291 436.112L682.281 439C691.611 439.954 700.938 440.914 710.262 441.88C728.442 443.782 746.619 445.702 764.793 447.64C782.712 449.557 800.253 451.438 817.893 453.4L825.714 454.3C839.61 455.839 853.983 457.432 868.086 459.214L873.153 459.854C888.669 461.807 904.707 463.822 920.349 466.468C930.987 468.268 941.751 470.401 952.173 472.48C961.254 474.28 970.641 476.161 979.929 477.799C1000.18 481.399 1021.18 486.997 1044.13 495.034C1079.5 507.418 1109.56 525.094 1136.02 549.088C1166.96 577.132 1191.75 613.096 1214.06 662.263C1231.95 701.71 1246.26 743.425 1260.1 783.763L1263.7 794.374C1266.51 802.522 1269.29 810.68 1272.05 818.845C1282.96 850.912 1294.24 884.068 1307.09 916.046C1327.12 965.797 1347.2 1003.71 1370.28 1035.38C1378.56 1046.73 1388.11 1058.34 1401.24 1073.01C1429.34 1104.42 1463.48 1129.46 1496.49 1153.69C1501.89 1157.65 1507.29 1161.62 1512.69 1165.61C1543.05 1188.11 1567.4 1206.9 1589.32 1224.65C1610.02 1241.36 1626.08 1255.71 1640.02 1269.84C1669.93 1300.15 1694.1 1329.84 1713.9 1360.6C1717.95 1366.9 1721.93 1373.35 1725.87 1380.04H1731.43C1726.97 1372.42 1722.49 1365.11 1717.93 1358C1697.95 1326.96 1673.59 1297.02 1643.44 1266.46C1629.38 1252.21 1613.14 1237.74 1592.34 1220.91C1570.37 1203.12 1545.97 1184.33 1515.56 1161.75C1510.16 1157.76 1504.76 1153.78 1499.36 1149.81C1466.54 1125.74 1432.6 1100.83 1404.86 1069.8C1391.83 1055.25 1382.36 1043.76 1374.19 1032.54C1351.36 1001.21 1331.46 963.62 1311.58 914.245C1298.77 882.439 1287.52 849.346 1276.64 817.343C1273.86 809.177 1271.08 801.014 1268.28 792.854L1264.68 782.251C1250.8 741.805 1236.46 699.983 1218.47 660.319C1195.89 610.541 1170.77 574.073 1139.27 545.578C1112.27 521.143 1081.73 503.143 1045.75 490.543C1022.55 482.443 1001.31 476.728 980.802 473.12C971.568 471.49 962.199 469.618 953.145 467.818C942.696 465.73 931.887 463.58 921.195 461.779C905.454 459.08 889.353 457.099 873.792 455.138L868.725 454.498C854.595 452.698 840.204 451.114 826.29 449.575L818.46 448.675C800.829 446.713 783.279 444.832 765.36 442.915C747.192 440.971 729.012 439.051 710.82 437.155C701.496 436.183 692.166 435.22 682.83 434.266C673.494 433.312 664.167 432.352 654.849 431.386C636.669 429.484 618.492 427.564 600.318 425.626C591.474 424.684 582.627 423.727 573.777 422.755C564.927 421.783 556.074 420.826 547.218 419.884L536.931 418.777C522.423 417.22 507.429 415.609 492.669 414.142C482.022 413.08 471.186 412.117 460.719 411.181L445.203 409.786L441.207 409.435C437.607 409.12 433.854 408.805 430.227 408.328C425.871 407.761 421.533 407.131 417.186 406.529C411.345 405.682 405.306 404.809 399.33 404.107C394.587 403.54 389.763 403.117 385.101 402.713C379.881 402.253 374.49 401.812 369.225 401.12C361.872 400.219 354.393 399.068 347.166 397.979C341.469 397.078 335.583 396.241 329.769 395.449C325.269 394.846 320.769 394.351 316.341 393.865C309.222 393.082 301.851 392.281 294.741 391.003C281.241 388.591 267.633 385.747 254.448 382.993C248.994 381.859 243.54 380.734 238.086 379.618C207.045 373.318 181.242 363.958 159.192 351.061C145.278 342.917 134.676 333.529 126.792 322.36C111.492 300.661 103.743 275.407 103.104 245.167C102.744 228.013 103.491 210.544 104.211 193.633L104.463 187.747C104.841 178.657 105.75 168.658 107.298 156.247C108.342 147.949 109.656 139.525 110.898 131.38C111.582 126.97 112.275 122.56 112.923 118.141C113.454 114.541 113.931 110.941 114.408 107.341C115.308 100.96 116.154 94.3635 117.297 87.9554C118.62 80.4854 120.141 72.8984 121.617 65.5724C123.03 58.5255 124.488 51.2354 125.784 44.0355C126.963 37.4835 128.007 30.8055 129.024 24.3524C130.266 16.4055 131.553 8.15244 133.092 0.187439C134.721 -8.29059 136.692 -16.9126 138.492 -25.1926C140.013 -31.9516 141.579 -38.9536 142.992 -45.8926C144.792 -54.6676 146.466 -63.6046 148.095 -72.2446C150.579 -85.3216 153.135 -98.8396 156.051 -112.034C161.622 -137.234 167.877 -163.379 174.654 -189.686L178.542 -204.788C187.281 -238.835 196.326 -274.043 206.379 -308.288C213.993 -334.253 223.479 -360.182 232.587 -385.247L234.918 -391.655C238.302 -400.961 242.037 -410.366 246.186 -420.059H240.984C237.123 -410.951 233.622 -402.059 230.427 -393.302L228.096 -386.903C218.925 -361.757 209.448 -335.756 201.789 -309.647C191.718 -275.303 182.664 -240.05 173.889 -205.967L170.01 -190.874C163.215 -164.513 156.942 -138.332 151.362 -113.051C148.428 -99.7936 145.863 -86.2305 143.379 -73.1266C141.75 -64.4955 140.058 -55.5766 138.285 -46.8286C136.89 -39.9616 135.324 -32.9866 133.785 -26.2456C131.913 -17.9026 129.978 -9.27158 128.331 -0.721588C126.783 7.37842 125.487 15.6224 124.236 23.5784C123.228 30.0134 122.184 36.6554 121.014 43.1534C119.727 50.3534 118.269 57.5534 116.865 64.6004C115.389 71.9534 113.859 79.5584 112.518 87.1004C111.366 93.6165 110.466 100.267 109.611 106.693C109.134 110.293 108.648 113.83 108.126 117.385C107.478 121.786 106.794 126.187 106.11 130.579C104.832 138.76 103.518 147.22 102.465 155.59C100.89 168.1 99.9814 178.225 99.5944 187.459L99.3424 193.336C98.6224 210.319 97.8664 227.896 98.2354 245.176C99.0094 276.478 107.046 302.605 122.913 325.114Z" fill="#034833"/>
<path d="M160.389 227.388C167.346 251.292 176.454 269.688 189.054 285.24C199.764 298.479 213.291 309.711 231.606 320.583C264.159 339.906 299.673 350.283 330.12 357.852C349.398 362.658 370.377 367.23 396.153 372.252C406.413 374.25 416.943 375.744 427.131 377.193C432.531 377.958 438.057 378.741 443.502 379.596C449.271 380.496 455.031 381.45 460.8 382.404C469.71 383.88 478.917 385.401 488.007 386.706C492.993 387.426 498.087 387.894 503.01 388.344C507.276 388.74 511.677 389.145 515.979 389.712C522.342 390.54 528.804 391.512 535.05 392.412C541.728 393.411 548.64 394.446 555.462 395.319C561.015 396.03 566.685 396.543 572.166 397.047C576.342 397.425 580.653 397.812 584.883 398.289C591.183 398.991 597.483 399.792 603.693 400.557C609.147 401.241 614.592 401.925 620.046 402.555C624.402 403.05 628.848 403.401 633.141 403.743L636.561 404.013L656.757 405.633C667.965 406.521 679.173 407.421 690.381 408.333C697.959 408.933 705.531 409.59 713.097 410.304C721.881 411.078 730.962 411.888 739.899 412.617C748.35 413.301 756.999 413.913 765.279 414.507L779.364 415.515L794.34 416.658C802.026 417.243 809.712 417.837 817.398 418.386C826.182 419.007 834.966 419.583 843.75 420.186L860.454 421.293L869.886 421.932C880.434 422.643 891.342 423.372 902.07 424.191L910.269 424.812C925.227 425.937 940.689 427.098 955.872 428.547C971.343 430.023 989.577 431.859 1007.51 434.316C1039.91 438.762 1074.54 444.639 1107.81 457.428C1132.82 466.959 1155.74 481.248 1175.31 499.503C1199.93 522.516 1219.92 550.803 1236.44 586.011C1249.94 614.811 1260.95 644.763 1271.04 672.951C1277.78 691.761 1284.15 711.057 1290.3 729.723C1297.09 750.297 1304.11 771.582 1311.65 792.273C1324.07 826.392 1337.59 860.061 1351.83 892.335C1373.37 941.16 1398.24 981.687 1427.85 1016.25L1431.18 1020.14C1445.32 1036.67 1459.98 1053.76 1476.13 1068.64C1494.53 1085.57 1514.03 1101.94 1532.9 1117.71C1542.22 1125.53 1551.86 1133.6 1561.25 1141.64L1562.51 1142.73C1577.04 1155.2 1592.08 1168.08 1606.39 1181.26C1624.54 1197.98 1643.81 1215.88 1662.32 1234.54C1685.92 1258.35 1707.73 1284.94 1729.01 1315.77C1743.2 1336.4 1756.14 1357.85 1767.78 1380.02H1768.83C1757.12 1357.66 1744.08 1336.02 1729.77 1315.22C1708.46 1284.32 1686.57 1257.72 1662.97 1233.87C1644.45 1215.18 1625.18 1197.29 1607.02 1180.56C1592.69 1167.37 1577.66 1154.46 1563.11 1142L1561.85 1140.92C1552.45 1132.82 1542.82 1124.8 1533.49 1116.98C1514.59 1101.18 1495.14 1084.85 1476.79 1067.93C1460.66 1053.09 1446.06 1036.02 1431.93 1019.51L1428.6 1015.63C1399.05 981.138 1374.23 940.674 1352.73 891.939C1338.5 859.683 1324.98 826.041 1312.57 791.94C1305.04 771.24 1298.02 749.982 1291.23 729.417C1285.07 710.742 1278.7 691.437 1271.96 672.618C1261.86 644.403 1250.87 614.442 1237.33 585.597C1220.75 550.29 1200.69 521.895 1175.98 498.801C1156.34 480.453 1133.32 466.088 1108.21 456.501C1074.84 443.676 1040.18 437.79 1007.7 433.335C989.703 430.869 971.505 429.033 956.025 427.557C940.833 426.108 925.362 424.947 910.404 423.813L902.205 423.201C891.477 422.382 880.605 421.653 870.012 420.942L860.58 420.303L843.867 419.187C835.095 418.587 826.314 417.987 817.524 417.387C809.838 416.847 802.161 416.253 794.475 415.668C789.483 415.284 784.491 414.903 779.499 414.525C774.801 414.171 770.103 413.835 765.405 413.517C757.089 412.923 748.485 412.311 740.034 411.627C731.097 410.898 722.034 410.088 713.241 409.314C705.669 408.642 698.094 407.985 690.516 407.343C679.308 406.407 668.1 405.507 656.892 404.643L636.705 403.023L633.276 402.753C628.992 402.411 624.555 402.06 620.217 401.565C614.763 400.935 609.318 400.251 603.873 399.576C597.708 398.802 591.327 398.001 585.045 397.299C580.806 396.822 576.486 396.399 572.319 396.057C566.838 395.553 561.177 395.04 555.642 394.338C548.838 393.438 541.926 392.43 535.248 391.422C529.002 390.522 522.54 389.514 516.168 388.722C511.839 388.155 507.429 387.75 503.163 387.354C498.249 386.904 493.164 386.454 488.205 385.725C479.124 384.42 469.917 382.89 461.007 381.423C455.247 380.469 449.478 379.515 443.709 378.615C438.255 377.715 432.702 376.968 427.329 376.203C417.15 374.763 406.629 373.269 396.387 371.271C370.638 366.267 349.668 361.695 330.399 356.871C300.024 349.302 264.591 338.97 232.137 319.701C213.921 308.901 200.475 297.732 189.837 284.601C177.318 269.148 168.237 250.869 161.343 227.082C156.271 209.305 153.424 190.967 152.865 172.488C151.834 142.255 152.736 111.986 155.565 81.8673C155.745 79.9773 155.919 78.0843 156.087 76.1883C156.744 68.8443 157.428 61.2393 158.49 53.8323C159.795 44.7243 161.307 35.4993 162.774 26.5713C163.728 20.7843 164.682 14.9973 165.582 9.20132C166.437 3.70233 167.22 -1.89572 167.985 -7.31372C169.416 -17.4927 170.892 -28.0137 172.89 -38.2557L173.943 -43.6557C179.343 -71.2227 184.851 -99.7257 191.637 -127.437C199.467 -159.468 208.386 -191.904 218.124 -223.854C234.99 -279.123 254.628 -326.202 278.163 -367.773C289.548 -387.888 301.365 -405.141 313.965 -419.973H312.732C300.294 -405.222 288.612 -388.113 277.353 -368.223C253.782 -326.598 234.153 -279.456 217.242 -224.115C207.513 -192.183 198.603 -159.729 190.746 -127.671C183.969 -99.9507 178.416 -71.4297 173.052 -43.8537L171.99 -38.4537C169.992 -28.1937 168.516 -17.6457 167.085 -7.4577C166.32 -2.05768 165.537 3.54932 164.682 9.03934C163.782 14.8353 162.828 20.6133 161.874 26.4003C160.407 35.3283 158.895 44.5623 157.59 53.6793C156.528 61.1133 155.844 68.7273 155.178 76.0893C155.01 77.9793 154.836 79.8693 154.656 81.7593C151.823 111.917 150.921 142.225 151.956 172.497C152.485 191.073 155.317 209.511 160.389 227.388Z" fill="#034833"/>
<path d="M1174.2 936.841C1173.59 916.342 1171.69 895.901 1168.52 875.641C1162.98 840.78 1154.16 806.522 1142.15 773.329C1125.05 726.277 1103.03 687.577 1074.79 655.015C1040.71 615.739 997.389 586.057 942.489 564.295C909.374 551.294 875.26 540.994 840.483 533.497C812.25 527.341 782.208 521.455 748.62 515.497C725.391 511.375 701.631 508.018 678.654 504.769L672.552 503.869C658.566 501.889 644.301 500.161 630.513 498.469C625.395 497.869 620.274 497.242 615.15 496.588L605.781 495.427C593.334 493.87 580.464 492.268 567.774 490.882C563.274 490.396 558.711 490.162 554.274 489.982C551.169 489.82 547.974 489.658 544.797 489.406C532.98 488.506 520.956 487.453 509.337 486.472L493.137 485.113C492.849 485.113 492.552 485.113 492.237 485.113H491.652L478.656 484.645C469.59 484.315 460.527 483.997 451.467 483.691C446.967 483.547 442.548 483.376 438.093 483.205C426.474 482.764 414.468 482.305 402.651 482.305C382.257 482.359 360.351 482.584 338.751 483.799C325.818 484.537 312.696 485.833 300.051 487.093C292.041 487.885 283.77 488.704 275.625 489.37C225.603 493.474 176.85 504.67 139.95 513.994C121.95 518.494 103.149 523.957 82.5212 530.545L81.7472 530.788C55.0712 539.311 27.7472 548.041 0.00021286 555.169V556.132C27.8192 548.986 55.2602 540.229 82.0262 531.679L82.8092 531.427C103.41 524.848 122.175 519.439 140.184 514.894C177.084 505.597 225.747 494.401 275.697 490.297C283.851 489.631 292.131 488.812 300.141 488.02C312.813 486.76 325.926 485.464 338.841 484.735C360.441 483.511 382.284 483.295 402.678 483.241C414.468 483.241 426.465 483.664 438.075 484.141C442.527 484.315 446.985 484.474 451.449 484.618C460.509 484.918 469.572 485.236 478.638 485.572L491.634 486.049H492.282C492.537 486.035 492.792 486.035 493.047 486.049L509.247 487.417C520.875 488.389 532.89 489.406 544.716 490.342C547.884 490.594 551.106 490.765 554.22 490.918C558.63 491.143 563.22 491.377 567.657 491.818C580.338 493.204 593.208 494.806 605.646 496.318L615.015 497.488L630.387 499.36C644.175 501.034 658.431 502.762 672.408 504.76L678.501 505.66C701.478 508.909 725.229 512.266 748.44 516.379C782.019 522.337 812.052 528.223 840.24 534.379C874.967 541.87 909.032 552.154 942.102 565.132C996.939 586.84 1040.11 616.432 1074.09 655.6C1102.25 688.072 1124.24 726.7 1141.28 773.626C1153.26 806.764 1162.07 840.965 1167.6 875.767C1170.77 895.988 1172.67 916.39 1173.27 936.85C1173.79 953.194 1172.17 969.88 1170.57 986.017V986.431C1168.87 1003.98 1163.82 1019.63 1155.57 1032.94C1139.51 1058.86 1114.27 1077.15 1080.56 1087.28C1059.58 1093.46 1038.29 1098.52 1016.78 1102.43C987.66 1107.89 958.95 1112.22 927.117 1116.92C915.822 1118.6 904.284 1119.98 893.124 1121.32C881.964 1122.66 870.336 1124.08 858.978 1125.75C830.178 1130.01 804.348 1134.25 780.03 1138.71C750.42 1144.11 715.5 1150.7 681.03 1158.17C639.117 1167.25 595.215 1179.49 546.804 1195.59C523.404 1203.38 501.993 1211.17 481.491 1219.37C442.215 1235.07 403.641 1251.12 360.891 1268.96C351.387 1272.93 341.811 1277.17 332.55 1281.26C318.384 1287.56 303.75 1294.01 289.044 1299.66C252.342 1313.78 221.544 1324.72 192.186 1334.1C174.069 1339.89 155.079 1344 136.71 1347.98L126.99 1350.09C110.43 1353.69 93.4112 1356.51 78.9572 1358.75C69.1652 1360.26 59.1572 1361.31 49.4192 1362.35L41.6702 1363.17C36.3332 1363.75 30.8702 1364.25 25.6412 1364.74C21.0152 1365.16 16.2362 1365.64 11.5382 1366.09C7.68621 1366.49 3.84321 1366.92 -0.00878906 1367.34V1368.24C3.87921 1367.82 7.75821 1367.34 11.6372 1366.98C16.3262 1366.49 21.1052 1366.08 25.7222 1365.63C30.9872 1365.14 36.4322 1364.64 41.7692 1364.06L49.5182 1363.24C59.2382 1362.23 69.3182 1361.19 79.0922 1359.64C93.5732 1357.4 110.592 1354.62 127.188 1350.98L136.899 1348.86C155.295 1344.88 174.312 1340.76 192.465 1334.96C221.859 1325.58 252.657 1314.62 289.377 1300.5C304.083 1294.84 318.753 1288.35 332.928 1282.08C342.18 1277.99 351.756 1273.76 361.242 1269.8C403.974 1251.96 442.548 1235.91 481.842 1220.21C502.335 1212.01 523.683 1204.24 547.101 1196.45C595.485 1180.35 639.36 1168.12 681.201 1159.06C715.689 1151.59 750.6 1145.03 780.201 1139.6C804.501 1135.1 830.322 1130.91 859.113 1126.64C870.453 1124.97 882.036 1123.57 893.241 1122.22C904.446 1120.87 915.948 1119.52 927.252 1117.82C959.094 1113.11 987.822 1108.82 1016.95 1103.31C1038.5 1099.4 1059.83 1094.34 1080.85 1088.15C1114.79 1077.94 1140.25 1059.53 1156.38 1033.4C1164.71 1019.97 1169.8 1004.19 1171.52 986.494V986.08C1172.88 972.031 1174.29 957.568 1174.29 943.258C1174.32 941.128 1174.29 938.989 1174.2 936.841Z" fill="#034833"/>
<path d="M1419.11 -419.997C1399.61 -408.387 1379.67 -396.894 1360.36 -385.797C1352 -380.997 1343.64 -376.173 1335.29 -371.325C1329.41 -367.911 1323.52 -364.515 1317.63 -361.137C1307.88 -355.539 1297.83 -349.734 1287.93 -343.938C1269.03 -332.841 1247.11 -319.17 1227.71 -302.007C1209.88 -286.239 1196.87 -270.255 1187.93 -253.128C1173.63 -225.75 1166.44 -194.799 1165.28 -155.721C1164.6 -132.834 1165.23 -109.524 1165.83 -86.9881C1166.06 -78.6091 1166.29 -69.942 1166.45 -61.4281C1166.58 -54.7411 1166.91 -47.9281 1167.23 -41.3761C1167.44 -36.8761 1167.67 -32.1871 1167.83 -27.5971C1167.96 -23.9971 1168.09 -20.4121 1168.23 -16.8421C1168.68 -4.80008 1169.13 7.65594 1169.18 19.8959C1169.18 26.1419 1168.88 32.5589 1168.56 38.7329C1168.25 44.7449 1167.94 50.955 1167.94 57.075V57.6599C1167.94 75.2909 1166.14 94.398 1162.3 117.726C1158.79 138.984 1153.05 157.74 1144.76 175.074C1128.45 209.193 1101.56 236.499 1064.75 256.236C1029.65 275.073 995.203 287.79 959.446 295.125C951.85 296.682 944.146 298.41 936.712 300.084C924.427 302.838 911.737 305.691 899.146 307.851C880.633 311.019 861.886 313.017 841.069 315.123C827.614 316.491 811.963 317.94 796.636 317.949C759.736 317.949 725.689 317.499 692.614 316.518C676.162 316.032 659.458 314.601 643.312 313.224L632.359 312.324C618.688 311.199 604.549 310.029 590.788 307.941C578.647 306.141 566.353 303.81 554.473 301.641C548.029 300.444 541.369 299.211 534.799 298.041C506.564 292.968 478.757 285.747 451.621 276.441C426.736 268.044 405.136 258.693 385.588 247.848C360.514 233.934 341.866 219.741 326.899 203.199C306.253 180.375 291.799 153.573 282.628 121.299C275.754 96.9832 272.123 71.8659 271.828 46.5989C271.576 23.8109 271.9 -0.651093 276.067 -25.3021C277.084 -31.2871 277.867 -37.4341 278.587 -43.3741C279.829 -53.3191 281.116 -63.6061 283.582 -73.3981C290.44 -100.569 298.144 -126.705 306.487 -151.086C315.305 -176.688 326.847 -201.27 340.912 -224.409C360.955 -257.502 379.612 -280.416 401.428 -298.713C419.779 -314.103 437.617 -326.307 455.959 -336.018C488.593 -353.168 523.647 -365.25 559.918 -371.847C583.777 -376.257 609.328 -380.847 634.537 -384.717C647.137 -386.643 660.133 -387.939 672.661 -389.217C677.167 -389.667 681.667 -390.129 686.161 -390.603C693.235 -391.359 700.444 -392.079 707.419 -392.772C718.804 -393.897 730.567 -395.067 742.123 -396.444C752.617 -397.695 763.255 -399.198 773.542 -400.656C780.418 -401.628 787.519 -402.636 794.521 -403.554C818.226 -406.737 841.557 -412.263 864.172 -420.051H861.22C839.499 -412.713 817.125 -407.475 794.404 -404.409C787.402 -403.509 780.292 -402.483 773.407 -401.511C763.129 -400.053 752.5 -398.55 742.015 -397.299C730.468 -395.922 718.705 -394.752 707.329 -393.627C700.354 -392.934 693.145 -392.214 686.062 -391.458C681.562 -390.981 677.062 -390.558 672.562 -390.072C660.025 -388.812 647.056 -387.516 634.393 -385.572C609.193 -381.729 583.606 -377.112 559.693 -372.693C523.329 -366.087 488.185 -353.975 455.473 -336.774C437.068 -327.036 419.185 -314.796 400.78 -299.37C378.883 -281.001 360.163 -258.015 340.057 -224.823C325.965 -201.654 314.394 -177.043 305.542 -151.41C297.19 -127.002 289.477 -100.839 282.619 -73.6501C280.135 -63.7951 278.848 -53.4811 277.606 -43.5091C276.868 -37.5781 276.103 -31.4491 275.095 -25.5091C270.91 -0.786072 270.595 23.7389 270.838 46.5539C271.117 71.9078 274.749 97.1133 281.638 121.515C290.818 153.978 305.371 180.915 326.107 203.829C341.146 220.452 359.875 234.708 385.039 248.667C404.632 259.539 426.286 268.917 451.225 277.332C478.408 286.643 506.263 293.864 534.547 298.932C541.108 300.084 547.768 301.326 554.203 302.532C566.092 304.746 578.386 307.032 590.545 308.832C604.342 310.929 618.445 312.099 632.179 313.224L643.132 314.124C659.332 315.501 676.009 316.932 692.479 317.427C725.572 318.408 759.61 318.876 796.537 318.858C811.909 318.858 827.587 317.391 841.069 316.032C861.904 313.917 880.669 311.91 899.2 308.742C911.8 306.582 924.526 303.729 936.811 300.966C944.254 299.292 951.94 297.564 959.527 296.007C995.401 288.654 1029.94 275.91 1065.11 257.028C1102.07 237.228 1129.12 209.751 1145.53 175.443C1153.74 158.271 1159.67 138.894 1163.14 117.843C1167 94.443 1168.79 75.309 1168.79 57.624C1168.79 57.426 1168.79 57.2279 1168.79 57.0389C1168.79 50.9459 1169.11 44.745 1169.42 38.7509C1169.73 32.559 1170.1 26.1509 1170.04 19.851C1170.04 7.58395 1169.53 -4.8721 1169.08 -16.9231C1168.94 -20.5231 1168.81 -24.1051 1168.69 -27.6691C1168.53 -32.2681 1168.31 -36.9481 1168.08 -41.4661C1167.77 -48.0271 1167.44 -54.8131 1167.31 -61.4911C1167.15 -70.0141 1166.91 -78.6721 1166.69 -87.0511C1166.09 -109.551 1165.46 -132.879 1166.14 -155.739C1167.28 -194.673 1174.45 -225.498 1188.64 -252.75C1197.53 -269.769 1210.47 -285.663 1228.24 -301.35C1247.59 -318.45 1269.47 -332.103 1288.31 -343.182C1298.17 -348.978 1308.25 -354.774 1318.01 -360.381C1323.91 -363.765 1329.8 -367.158 1335.67 -370.56C1344.02 -375.402 1352.39 -380.226 1360.76 -385.032C1380.56 -396.426 1400.93 -408.189 1420.87 -420.078L1419.11 -419.997Z" fill="#034833"/>
<path d="M1105.9 884.95C1104.64 852.55 1100.27 824.344 1092.54 798.649C1087.06 779.98 1079.99 761.812 1071.42 744.343C1060.11 721.627 1045.27 699.982 1026.05 678.175C1003.87 652.975 977.256 631.798 944.703 613.375C924.364 601.882 902.809 593.053 880.66 584.287C854.398 573.883 825.544 565.162 787.105 556C766.405 551.059 745.489 546.847 729.613 543.724C707.347 539.35 686.665 535.624 666.397 532.231C658.801 530.971 651.043 530.125 643.546 529.297C639.244 528.829 634.798 528.343 630.451 527.785C623.44 526.885 616.438 525.985 609.436 524.995C602.083 524.005 594.739 523.015 587.386 522.079C582.823 521.494 577.909 521.044 571.456 520.612C563.185 520.072 555.184 519.649 545.59 519.154C540.094 518.878 534.592 518.578 529.084 518.254C515.674 517.507 501.805 516.742 488.134 516.337C462.691 515.581 435.574 514.861 408.403 514.987C394.057 515.05 378.703 515.959 360.109 517.849C343.36 519.559 325.684 521.971 307.576 525.049L299.656 526.381C281.143 529.477 262.009 532.681 243.559 537.505C221.23 543.337 197.227 550.87 170.173 560.518C151.804 567.07 133.579 574.873 115.957 582.424L106.804 586.348C92.7726 592.333 78.5526 598.516 64.8006 604.51C43.6056 613.744 21.7446 623.23 0.000631711 632.23V637.423C22.4286 628.189 44.9286 618.406 66.7446 608.911C80.4876 602.926 94.6446 596.734 108.712 590.767L117.829 586.861C135.388 579.346 153.55 571.561 171.775 565.063C198.694 555.46 222.571 547.963 244.765 542.176C263.008 537.406 282.034 534.22 300.439 531.142L308.404 529.792C326.404 526.741 343.981 524.338 360.604 522.646C379.045 520.765 394.246 519.865 408.439 519.802C435.529 519.676 462.601 520.396 487.999 521.152C501.607 521.557 515.449 522.322 528.832 523.06C534.34 523.366 539.848 523.666 545.356 523.96C554.932 524.446 562.915 524.86 571.15 525.409C577.504 525.832 582.328 526.309 586.792 526.84C594.136 527.74 601.471 528.766 608.806 529.756C615.814 530.71 622.828 531.643 629.848 532.555C634.249 533.113 638.713 533.608 643.033 534.076C650.467 534.895 658.162 535.732 665.623 536.974C685.846 540.322 706.483 544.075 728.704 548.449C744.535 551.554 765.361 555.757 786.007 560.68C824.221 569.788 852.868 578.446 878.914 588.76C900.901 597.463 922.294 606.22 942.364 617.56C974.449 635.695 1000.65 656.557 1022.46 681.334C1041.36 702.826 1056.01 724.138 1067.13 746.467C1075.58 763.692 1082.54 781.607 1087.95 800.017C1095.56 825.325 1099.87 853.117 1101.11 885.112C1101.45 893.644 1100.39 902.455 1099.39 910.987C1099.05 913.768 1098.72 916.54 1098.44 919.312C1096.83 934.249 1092.79 948.822 1086.48 962.458C1073.4 991.141 1050.48 1013.81 1016.46 1031.76C989.641 1045.91 961.138 1054.55 926.586 1063.16C899.029 1070.04 870.786 1076.06 843.4 1081.88L836.281 1083.4C820.981 1086.65 805.456 1089.78 790.381 1092.81C775.306 1095.83 759.781 1098.97 744.481 1102.23C723.016 1106.81 701.281 1111.71 680.194 1116.46L654.004 1122.36C598.069 1134.84 543.232 1151.69 501.706 1164.99C481.006 1171.61 460.198 1179.02 440.074 1186.19L426.988 1190.85C408.637 1197.36 388.567 1204.68 363.799 1213.87C353.125 1217.84 342.316 1221.97 331.858 1226C311.599 1233.76 290.647 1241.8 269.758 1248.89C232.858 1261.42 196.462 1272.77 161.524 1282.62C141.931 1288.14 121.555 1292.28 101.845 1296.29C96.9306 1297.28 92.0196 1298.28 87.1116 1299.3C78.9576 1300.98 70.5336 1302.21 62.3886 1303.39C58.4736 1303.95 54.5496 1304.52 50.6886 1305.14C45.8886 1305.9 41.0886 1306.67 36.2886 1307.45C26.1996 1309.08 15.7596 1310.77 5.47263 1312.28C3.67263 1312.54 1.81863 1312.76 -0.0263672 1312.98V1317.81C2.04363 1317.57 4.11362 1317.33 6.16562 1317.02C16.4796 1315.51 26.9376 1313.82 37.0536 1312.19C41.8536 1311.41 46.6386 1310.64 51.4086 1309.88C55.2966 1309.26 59.1936 1308.7 63.1086 1308.13C71.3256 1306.94 79.8216 1305.72 88.1106 1304C93.0156 1302.97 97.9206 1301.98 102.826 1300.98C122.626 1296.97 143.092 1292.81 162.847 1287.24C197.875 1277.34 234.379 1265.99 271.333 1253.43C292.276 1246.31 313.273 1238.26 333.577 1230.48C344.017 1226.47 354.817 1222.38 365.473 1218.37C390.214 1209.18 410.266 1201.87 428.59 1195.37L441.676 1190.72C461.773 1183.52 482.545 1176.15 503.164 1169.56C544.564 1156.3 599.302 1139.49 655.048 1127.04C663.778 1125.1 672.505 1123.14 681.229 1121.16C702.262 1116.42 724.015 1111.53 745.453 1106.95C760.753 1103.7 776.287 1100.57 791.353 1097.54C806.419 1094.51 821.998 1091.37 837.253 1088.12L844.363 1086.6C871.759 1080.77 900.081 1074.74 927.721 1067.85C962.604 1059.15 991.414 1050.41 1018.62 1036.03C1053.63 1017.57 1077.23 994.156 1090.76 964.474C1097.29 950.36 1101.47 935.276 1103.13 919.816C1103.42 917.116 1103.74 914.326 1104.03 911.572C1105.08 903.901 1105.69 896.175 1105.83 888.433C1105.97 887.272 1105.95 886.111 1105.9 884.95Z" fill="#034833"/>
<path d="M1030.68 836.076C1029.28 818.139 1024.74 799.239 1016.79 778.278C1007.32 753.303 992.718 729.678 972.162 706.134C949.995 680.727 922.023 658.767 886.662 639.012C857.583 622.758 824.886 609.393 783.783 596.946C761.859 590.313 739.125 585.075 717.183 580.017L705.636 577.317C688.608 573.366 670.059 569.604 648.936 565.815C641.439 564.474 633.735 563.628 626.283 562.818C622.179 562.368 617.931 561.918 613.773 561.36C607.698 560.568 601.632 559.731 595.566 558.894C587.655 557.805 579.483 556.671 571.428 555.663C565.236 554.898 558.909 554.538 552.744 554.196L551.367 554.124C541.71 553.584 531.711 553.035 521.874 552.774L506.439 552.324C489.339 551.82 471.744 551.289 454.41 551.424C437.886 551.577 416.178 552.063 394.821 554.358C360.324 558.075 330.228 563.088 302.814 569.658C270.69 577.215 239.268 587.498 208.89 600.393C189.09 608.88 168.759 618.564 148.59 629.193C132.831 637.482 116.982 646.23 101.646 654.699C85.9951 663.339 69.813 672.276 53.7211 680.718C37.7821 689.088 20.1691 697.413 0.0810547 706.107V707.124C20.3491 698.358 38.0881 689.97 54.153 681.546C70.218 673.122 86.4451 664.158 102.096 655.509C117.396 647.049 133.272 638.301 149.022 630.021C169.182 619.419 189.45 609.744 209.259 601.221C239.584 588.391 270.945 578.163 303.003 570.648C330.372 564.078 360.432 559.074 394.893 555.348C416.196 553.053 437.877 552.576 454.383 552.414C471.699 552.252 489.33 552.774 506.367 553.314C511.515 553.47 516.663 553.617 521.811 553.755C531.639 554.016 541.611 554.574 551.286 555.105L552.69 555.186C558.801 555.528 565.119 555.879 571.275 556.644C579.321 557.652 587.475 558.777 595.404 559.866C601.47 560.703 607.545 561.54 613.62 562.332C617.787 562.881 622.035 563.34 626.148 563.79C633.582 564.609 641.268 565.446 648.738 566.787C669.852 570.576 688.392 574.329 705.393 578.28L716.949 580.98C738.918 586.038 761.643 591.267 783.549 597.891C824.589 610.32 857.223 623.667 886.248 639.876C921.528 659.586 949.419 681.483 971.514 706.809C991.998 730.29 1006.54 753.789 1015.97 778.665C1023.89 799.536 1028.42 818.355 1029.82 836.202C1030.96 850.917 1029.87 865.992 1028.55 881.427C1026.9 900.525 1020.45 918.858 1009.38 935.913C992.592 961.761 968.94 982.407 937.062 999.03C911.565 1012.33 882.63 1023.28 846.018 1033.47C824.139 1039.57 801.711 1045.17 780.021 1050.57C771.891 1052.59 763.77 1054.62 755.658 1056.67C740.136 1060.59 724.608 1064.49 709.074 1068.37C693.99 1072.15 678.903 1075.93 663.813 1079.73C651.861 1082.75 639.702 1085.76 627.939 1088.67C598.716 1095.91 568.494 1103.4 539.001 1111.58C504.693 1121.11 470.07 1131.74 436.599 1142.02C428.373 1144.55 420.153 1147.07 411.939 1149.59C394.488 1154.92 376.839 1160.56 359.739 1166.02C349.863 1169.17 339.99 1172.31 330.12 1175.44C321.471 1178.14 312.84 1180.93 304.2 1183.69C282.645 1190.59 260.352 1197.72 238.239 1204.07C212.769 1211.38 186.642 1218.03 161.379 1224.45C154.965 1226.09 148.548 1227.73 142.128 1229.37C126.459 1233.39 112.383 1236.67 99.09 1239.41C87.183 1241.87 75.0151 1244.1 63.2431 1246.25C57.2431 1247.35 51.2611 1248.46 45.2971 1249.57C40.2751 1250.53 35.2441 1251.52 30.2221 1252.51C20.3221 1254.45 10.1701 1256.46 0.0900566 1258.11V1259.01H0.261059C10.3591 1257.36 20.5651 1255.34 30.4291 1253.4C35.4511 1252.41 40.4731 1251.42 45.4951 1250.47C51.4711 1249.34 57.4561 1248.25 63.4411 1247.15C75.2131 1244.99 87.3811 1242.77 99.306 1240.31C112.608 1237.57 126.702 1234.28 142.389 1230.25L161.64 1225.33C186.903 1218.91 213.039 1212.26 238.518 1204.95C260.649 1198.65 282.951 1191.45 304.515 1184.56C313.149 1181.79 321.786 1179.04 330.426 1176.31C340.308 1173.2 350.181 1170.06 360.045 1166.89C377.145 1161.43 394.803 1155.79 412.245 1150.46L436.905 1142.9C470.376 1132.62 504.981 1121.98 539.28 1112.47C568.764 1104.28 598.977 1096.8 628.2 1089.56C639.963 1086.64 652.122 1083.63 664.074 1080.61C679.158 1076.8 694.245 1073.02 709.335 1069.26C724.869 1065.37 740.397 1061.47 755.919 1057.56C764.037 1055.5 772.158 1053.47 780.282 1051.46C801.972 1046.06 824.382 1040.49 846.306 1034.36C882.981 1024.15 912.006 1013.19 937.53 999.849C969.552 983.154 993.33 962.409 1010.2 936.417C1021.36 919.236 1027.85 900.759 1029.5 881.517C1030.4 870.618 1031.3 859.917 1031.3 849.342C1031.17 844.851 1031.02 840.45 1030.68 836.076Z" fill="#034833"/>
<path d="M950.716 802.543C944.767 775.444 931.401 750.127 910.99 727.312C882.693 695.677 847.989 670.243 807.714 651.712C783.392 640.45 758.343 630.829 732.735 622.912C697.005 611.968 664.74 604.417 634.086 599.818C628.578 598.99 623.073 598.153 617.571 597.307C600.642 594.724 583.137 592.051 565.848 589.846C552.67 588.065 539.393 587.109 526.095 586.984C503.073 586.984 472.707 587.083 442.044 588.469C422.244 589.369 402.525 591.871 385.857 594.211C371.032 596.273 356.336 599.173 341.838 602.896C319.95 608.548 300.654 614.209 282.843 620.194C250.902 630.922 218.61 646.294 184.122 667.255C154.422 685.255 124.659 704.101 95.8324 722.326C78.1654 733.486 59.9044 745.033 41.8774 756.265C28.3834 764.616 14.3991 772.148 0.000425721 778.819V784.111C15.2801 777.121 30.1079 769.182 44.3974 760.342C62.4424 749.101 80.7124 737.554 98.3974 726.385C127.197 708.169 157.005 689.341 186.597 671.359C220.797 650.605 252.747 635.359 284.355 624.739C302.049 618.79 321.255 613.165 343.026 607.54C357.35 603.866 371.869 601.003 386.514 598.963C403.065 596.641 422.631 594.148 442.251 593.266C472.851 591.88 503.109 591.745 526.086 591.781C539.182 591.908 552.258 592.852 565.236 594.607C582.462 596.803 599.94 599.476 616.842 602.05C622.35 602.896 627.858 603.733 633.366 604.561C663.786 609.124 695.835 616.63 731.331 627.502C756.733 635.357 781.581 644.903 805.707 656.077C845.307 674.329 879.57 699.376 907.408 730.516C927.262 752.71 940.257 777.316 946.026 803.578C953.37 837.031 950.158 867.19 936.477 893.218C926.37 912.469 911.628 929.101 892.683 942.646C880.083 951.646 864.945 962.032 848.484 970.438C822.483 983.713 795.078 993.226 769.329 1001.52C730.449 1014.06 688.329 1025.98 636.75 1039.01C612.774 1045.07 588.501 1051.61 565.038 1058C546.201 1063.11 526.725 1068.39 507.519 1073.36C478.413 1080.9 448.767 1088.37 420.093 1095.6C398.421 1101.06 375.993 1106.71 353.997 1112.34C345.168 1114.6 336.249 1117.1 327.618 1119.54C317.232 1122.44 306.495 1125.45 295.866 1128.06C266.742 1135.2 235.377 1142.75 203.364 1149.6C178.164 1155 152.343 1160 127.413 1164.82C118.779 1166.49 110.151 1168.17 101.529 1169.85C78.9124 1174.29 56.2234 1178.64 34.0924 1182.8C23.2294 1184.85 11.9074 1186.95 -0.0175781 1189.1V1193.99C12.2314 1191.74 23.8414 1189.58 34.9744 1187.49C57.1144 1183.32 79.8214 1178.97 102.474 1174.53C111.096 1172.85 119.721 1171.17 128.349 1169.51C153.306 1164.68 179.109 1159.68 204.39 1154.27C236.466 1147.41 267.867 1139.87 297.027 1132.67C307.728 1130.04 318.51 1127.03 328.932 1124.11C337.536 1121.71 346.428 1119.22 355.212 1116.98C377.217 1111.33 399.618 1105.69 421.281 1100.24C449.964 1093.04 479.619 1085.54 508.743 1077.99C527.976 1073 547.443 1067.73 566.343 1062.62C589.788 1056.26 614.043 1049.69 637.974 1043.64C689.643 1030.59 731.871 1018.64 770.85 1006.08C796.788 997.717 824.409 988.078 850.708 974.695C867.448 966.145 882.756 955.66 895.518 946.534C915.075 932.548 930.304 915.358 940.771 895.441C950.049 877.774 954.703 858.316 954.703 837.31C954.632 825.611 953.295 813.955 950.716 802.543Z" fill="#034833"/>
<path d="M1800 1308.29C1794.5 1298.97 1788.82 1289.74 1782.95 1280.62C1758.82 1243.23 1730.12 1206.52 1695.23 1168.4C1682.88 1154.9 1669.58 1141.89 1656.72 1129.31C1652.6 1125.27 1648.48 1121.23 1644.37 1117.19C1635.07 1107.97 1625.53 1098.67 1616.3 1089.68C1606.2 1079.84 1595.76 1069.66 1585.58 1059.56C1554.44 1028.65 1519.14 993.627 1489.28 954.656C1456.83 912.266 1430.02 865.368 1407.31 811.287C1395.21 782.487 1385.99 752.535 1377.08 723.599C1371.68 705.978 1367.34 687.681 1363.18 669.987C1362.02 665.091 1360.86 660.198 1359.69 655.307C1356.72 642.978 1354.06 630.351 1351.49 618.147C1350.86 615.186 1350.23 612.225 1349.6 609.273V609.147C1346.71 595.53 1343.71 581.436 1341.06 567.531C1339.39 558.765 1338.1 549.765 1336.85 541.062L1336.73 540.162C1335.91 534.384 1335.13 528.462 1334.39 522.81C1333.74 517.797 1333.08 512.793 1332.39 507.78C1331.69 502.767 1330.92 497.682 1330.17 492.633C1328.98 484.632 1327.74 476.361 1326.72 468.198C1325.91 461.718 1325.32 455.103 1324.76 448.695C1324.45 445.095 1324.13 441.558 1323.78 437.985C1323.33 433.485 1322.81 428.931 1322.3 424.485C1321.19 414.999 1320.06 405.18 1319.69 395.505C1319.2 382.653 1320.13 369.54 1321.03 356.805V356.67C1321.61 348.471 1322.33 340.47 1324.63 333.072C1331.72 310.572 1346.81 293.229 1369.46 281.556C1383.58 274.284 1397.74 267.651 1414.72 259.902C1431.7 252.153 1449.37 244.089 1467.01 236.97C1492.28 226.773 1518.02 217.107 1540.17 208.845C1580.08 193.959 1613.65 181.53 1647.8 169.245C1694.66 152.442 1737.8 139.041 1779.8 128.295C1786.46 126.594 1793.21 125.072 1799.96 123.641V122.688C1793.14 124.137 1786.3 125.667 1779.57 127.386C1737.6 138.294 1694.4 151.713 1647.52 168.534C1613.32 180.792 1579.79 193.212 1539.88 208.134C1517.73 216.396 1491.98 226.062 1466.7 236.268C1449.05 243.396 1431.41 251.442 1414.29 259.254C1397.37 266.976 1383.21 273.654 1369.07 280.854C1346.18 292.644 1330.95 310.158 1323.77 332.919C1321.41 340.443 1320.69 348.47 1320.1 356.723V356.868C1319.2 369.585 1318.3 382.734 1318.76 395.622C1319.13 405.333 1320.27 415.169 1321.37 424.673C1321.88 429.083 1322.42 433.673 1322.86 438.173C1323.21 441.773 1323.52 445.301 1323.84 448.866C1324.4 455.283 1324.98 461.907 1325.8 468.405C1326.83 476.577 1328.06 484.857 1329.26 492.858C1330 497.906 1330.76 502.956 1331.46 508.005C1332.16 513.054 1332.82 518.013 1333.47 523.017C1334.21 528.714 1334.98 534.6 1335.81 540.387L1335.93 541.287C1337.18 549.999 1338.47 559.008 1340.15 567.792C1342.85 581.715 1345.8 595.809 1348.7 609.435V609.552C1349.33 612.513 1349.95 615.465 1350.58 618.426C1353.15 630.639 1355.82 643.275 1358.79 655.614C1359.99 660.498 1361.15 665.388 1362.27 670.284C1366.44 687.996 1370.75 706.284 1376.19 723.96C1385.11 752.922 1394.33 782.874 1406.45 811.737C1429.19 865.899 1456.05 912.861 1488.55 955.314C1518.43 994.338 1553.74 1029.38 1584.91 1060.31C1595.1 1070.41 1605.54 1080.59 1615.64 1090.44C1624.86 1099.44 1634.39 1108.73 1643.71 1117.93C1647.8 1121.99 1651.93 1126.03 1656.05 1130.07C1668.91 1142.67 1682.15 1155.65 1694.53 1169.12C1729.39 1207.21 1758.05 1243.87 1782.14 1281.22C1788.31 1290.76 1794.25 1300.43 1799.98 1310.23L1800 1308.29Z" fill="#034833"/>
<path d="M1800 1253.6C1796.32 1248.02 1792.63 1242.56 1788.95 1237.24C1763.82 1200.94 1733.87 1164.06 1697.37 1124.51C1683.31 1109.27 1668.47 1094.3 1654.11 1079.81C1644.31 1069.91 1634.17 1059.69 1624.41 1049.47C1600.57 1024.6 1577.3 999.579 1555.51 976.08C1533.44 952.302 1515.13 926.346 1501.65 906.393C1481.64 876.792 1463.55 843.159 1446.36 803.568C1434.03 775.084 1423.85 745.712 1415.92 715.701C1408.34 687.063 1399.17 649.182 1395.52 610.059C1394.92 603.534 1394.06 596.928 1393.22 590.538C1391.81 579.738 1390.36 568.551 1390.1 557.535C1389.32 523.722 1388.51 488.757 1395.44 453.981C1399.94 431.481 1405.43 413.247 1412.78 396.534C1427.05 364.134 1448.78 335.892 1477.28 312.573C1507.31 288.021 1542.25 266.16 1584.09 245.73C1609.68 233.238 1635.79 221.61 1657.96 211.872C1686.64 199.272 1718.26 187.86 1760.41 174.828C1773.42 170.805 1786.66 167.223 1800.01 164.028V163.074C1786.51 166.26 1773.21 169.86 1760.1 173.874C1717.9 186.915 1686.3 198.354 1657.57 210.954C1635.38 220.692 1609.25 232.338 1583.66 244.83C1541.75 265.287 1506.75 287.193 1476.66 311.79C1448.02 335.19 1426.26 363.567 1411.91 396.102C1404.52 412.869 1399 431.202 1394.51 453.702C1387.56 488.577 1388.36 523.596 1389.11 557.463C1389.37 568.524 1390.82 579.72 1392.24 590.556C1393.07 596.937 1393.93 603.543 1394.54 610.041C1398.19 649.236 1407.37 687.171 1414.96 715.845C1422.9 745.9 1433.1 775.314 1445.45 803.838C1462.66 843.483 1480.77 877.17 1500.81 906.816C1514.31 926.796 1532.66 952.788 1554.76 976.62C1576.56 1000.12 1599.83 1025.14 1623.67 1050.02C1633.47 1060.24 1643.62 1070.47 1653.43 1080.36C1667.77 1094.84 1682.61 1109.82 1696.63 1125.05C1733.09 1164.57 1763.02 1201.4 1788.13 1237.67C1792.07 1243.37 1796.01 1249.2 1799.94 1255.18L1800 1253.6Z" fill="#034833"/>
<path d="M1800 1187.01C1772.65 1149.65 1742.52 1115.01 1719 1088.63C1705.73 1073.76 1691.86 1059.01 1678.44 1044.74C1671.63 1037.54 1664.85 1030.3 1658.08 1023.01C1655 1019.7 1651.91 1016.4 1648.82 1013.11C1640.23 1003.96 1631.36 994.506 1623.04 984.867C1605.94 965.022 1587.64 943.619 1570.02 921.587C1551.23 898.079 1533.92 871.377 1517.1 839.967C1498.23 804.877 1483.14 767.876 1472.1 729.591C1468.5 716.991 1465.25 703.167 1462.12 687.291C1459.09 671.937 1456.79 656.195 1454.92 642.822L1454.24 637.961C1452.68 626.891 1451.06 615.461 1450.79 604.229C1450.53 593.537 1450.95 582.629 1451.36 572.036C1451.6 565.646 1451.85 559.032 1451.96 552.516C1452.27 532.635 1455.97 513.483 1459.16 499.02C1466.68 464.463 1480.41 431.556 1499.66 401.892C1515.86 376.989 1536.83 354.066 1563.72 331.818C1588.32 311.469 1615.25 293.523 1646.04 276.918C1694.22 250.989 1738.4 232.395 1781.1 220.083C1787.35 218.283 1793.66 216.483 1800 214.746V209.778C1793.17 211.578 1786.43 213.549 1779.75 215.466C1736.72 227.877 1692.24 246.597 1643.75 272.697C1612.68 289.491 1585.5 307.608 1560.65 328.191C1533.38 350.745 1512.11 374.019 1495.63 399.291C1476.07 429.445 1462.13 462.891 1454.49 498.011C1451.25 512.69 1447.5 532.148 1447.17 552.461C1447.07 558.923 1446.82 565.512 1446.58 571.884C1446.17 582.522 1445.74 593.484 1446 604.374C1446.28 615.867 1447.92 627.458 1449.5 638.663L1450.19 643.505C1452.05 656.952 1454.37 672.782 1457.39 688.253C1460.54 704.219 1463.84 718.169 1467.47 730.904C1478.59 769.513 1493.79 806.828 1512.81 842.217C1529.77 873.888 1547.23 900.825 1566.22 924.576C1583.87 946.662 1602.22 968.109 1619.32 987.99C1627.7 997.701 1636.61 1007.2 1645.23 1016.38C1648.31 1019.67 1651.4 1022.95 1654.47 1026.28C1661.23 1033.55 1668.02 1040.8 1674.85 1048.03C1688.25 1062.28 1702.1 1077 1715.35 1091.82C1739.93 1119.35 1771.72 1155.94 1799.95 1195.14L1800 1187.01Z" fill="#034833"/>
<path d="M1800 1142.97C1768.5 1102.6 1734.2 1064.01 1700.89 1026.51L1692.54 1017.11C1669.73 991.42 1645.52 964.015 1622.28 936.475C1592.69 901.385 1567.2 863.038 1546.29 822.175C1532.2 794.78 1520.62 766.163 1511.7 736.675C1500.35 698.875 1493.89 663.343 1491.9 628.072C1490.1 595.564 1491.9 565.972 1497.36 537.505C1504.82 498.715 1518.13 463.435 1536.96 432.664C1561.38 392.668 1594.62 358.531 1638.56 328.309C1669.42 307.094 1702.33 289.03 1736.8 274.39C1759.67 264.679 1780.44 257.29 1800 251.89V250.918C1780.33 256.318 1759.44 263.77 1736.44 273.535C1701.91 288.196 1668.94 306.287 1638.03 327.535C1593.98 357.829 1560.63 392.056 1536.17 432.169C1517.32 463.039 1503.96 498.418 1496.48 537.325C1491 565.792 1489.2 595.492 1491 628.099C1492.97 663.451 1499.44 699.046 1510.8 736.927C1519.74 766.463 1531.34 795.129 1545.45 822.571C1566.39 863.506 1591.92 901.923 1621.56 937.078C1644.8 964.636 1669.02 992.032 1691.84 1017.74L1700.19 1027.13C1733.74 1064.93 1768.27 1103.79 1799.99 1144.47L1800 1142.97Z" fill="#034833"/>
<path d="M1800 80.6227C1793.91 81.8107 1787.81 83.0527 1781.78 84.4297C1762.51 88.8127 1743.08 94.0597 1724.3 99.1447L1709.97 102.997C1697.62 106.309 1685.08 109.774 1672.95 113.122C1650.31 119.422 1626.91 125.857 1603.73 131.554C1577.01 138.124 1548.83 143.992 1517.66 149.5C1500.12 152.596 1481.96 153.91 1464.4 155.17L1462.48 155.314C1456.91 155.719 1451.17 155.197 1445.62 154.702C1442.92 154.459 1440.16 154.207 1437.44 154.063C1420.39 153.163 1405.29 149.23 1392.54 142.363C1369.75 130.114 1351.2 110.863 1337.39 85.1677C1326.53 64.9356 1318.39 41.9677 1313.21 16.9027L1313.08 16.2726C1309.09 -3.02335 1304.98 -22.9854 1304.15 -42.7404C1303.19 -66.2034 1302.11 -92.7894 1306.33 -118.952C1311.22 -149.228 1319.9 -175.805 1332.86 -200.204C1353.56 -239.066 1383.05 -269.504 1409.21 -294.065C1425.28 -309.176 1442.39 -323.72 1458.94 -337.778C1466.82 -344.483 1474.97 -351.413 1482.91 -358.316C1488.04 -362.768 1493.18 -367.202 1498.34 -371.618C1511.78 -383.156 1525.65 -395.081 1538.79 -407.384C1543.23 -411.542 1547.65 -415.742 1552.05 -419.984H1550.71C1546.55 -415.964 1542.36 -411.98 1538.15 -408.032C1525.04 -395.747 1511.15 -383.831 1497.74 -372.302C1492.59 -367.874 1487.45 -363.437 1482.31 -358.991C1474.37 -352.088 1466.22 -345.158 1458.33 -338.462C1441.77 -324.395 1424.66 -309.842 1408.57 -294.722C1382.36 -270.062 1352.77 -239.597 1332.07 -200.609C1319.06 -176.12 1310.35 -149.453 1305.44 -119.078C1301.2 -92.8253 1302.29 -66.1854 1303.25 -42.6773C1304.06 -22.8773 1308.2 -2.84335 1312.19 16.4886L1312.33 17.1187C1317.53 42.2737 1325.69 65.3227 1336.63 85.6357C1350.52 111.511 1369.2 130.879 1392.16 143.236C1405.03 150.148 1420.25 154.117 1437.44 155.026C1440.14 155.17 1442.92 155.422 1445.54 155.665C1451.13 156.16 1456.91 156.682 1462.55 156.277L1464.48 156.142C1482.07 154.873 1500.25 153.559 1517.83 150.454C1549.04 144.946 1577.23 139.069 1603.96 132.454C1627.16 126.748 1650.56 120.277 1673.21 114.013C1685.33 110.665 1697.87 107.2 1710.23 103.888C1715.03 102.61 1719.8 101.323 1724.55 100.027C1743.33 94.9507 1762.73 89.7037 1782 85.3297C1787.96 83.9707 1793.98 82.7466 1800 81.5677V80.6227Z" fill="#034833"/>
<path d="M1800 1097.63C1780.35 1074.04 1760.6 1050.46 1741.31 1027.43C1733.41 1018.01 1725.51 1008.58 1717.61 999.154C1710.74 990.94 1703.84 982.741 1696.91 974.557C1683.65 958.852 1669.91 942.607 1656.7 926.416C1622.61 884.701 1596.26 843.346 1576.13 799.984C1562 769.546 1551.65 740.377 1544.48 710.812C1538.96 688.6 1535.35 665.958 1533.68 643.132C1532.88 631.432 1533.48 619.489 1534.06 607.906C1534.35 602.254 1534.64 596.404 1534.76 590.662C1535.16 573.013 1538.64 556.075 1541.96 541.828C1549.25 510.895 1562 480.412 1579.84 451.243C1599.8 418.627 1626.59 389.386 1659.45 364.339C1702.58 331.462 1749.84 307.09 1800 291.79V290.809C1749.6 306.109 1702.19 330.598 1658.89 363.601C1625.93 388.72 1599.08 418.042 1579.06 450.757C1561.16 480.016 1548.37 510.58 1541.06 541.657C1537.69 555.949 1534.19 572.95 1533.8 590.689C1533.67 596.422 1533.38 602.254 1533.1 607.906C1532.51 619.516 1531.92 631.522 1532.72 643.249C1534.4 666.124 1538.03 688.815 1543.57 711.073C1550.77 740.701 1561.12 769.933 1575.28 800.425C1595.44 843.859 1621.84 885.277 1655.97 927.055C1669.2 943.255 1682.97 959.5 1696.19 975.205C1703.12 983.395 1710.02 991.594 1716.89 999.802L1740.59 1028.08C1760.11 1051.36 1780.11 1075.23 1799.99 1099.11L1800 1097.63Z" fill="#034833"/>
<path d="M1800 35.2372L1789.95 37.4872C1785.78 38.4411 1781.61 39.3951 1777.45 40.3132L1753.97 45.5872C1739.07 48.8872 1724.17 52.1872 1709.27 55.4872C1705.53 56.3062 1701.78 57.1522 1698.04 57.9892C1687.64 60.3382 1676.87 62.7591 1666.22 64.7661C1651.46 67.5471 1635.53 70.2111 1614.57 73.4241C1611.21 73.9371 1607.83 74.5042 1604.46 75.0712C1593.66 76.8712 1582.54 78.7431 1571.59 78.9231C1567.7 78.9891 1563.8 79.0731 1559.89 79.1751C1540.66 79.6431 1520.78 80.1291 1501.29 76.5741C1489.1 74.3511 1476.15 71.5522 1464.18 66.1972C1433.84 52.6162 1410.74 29.2341 1395.52 -3.29184C1384.81 -26.1969 1379.32 -52.4949 1378.6 -83.6979C1378.31 -97.2699 1380.4 -111.112 1382.39 -124.513L1382.73 -126.772C1385.38 -144.484 1390.91 -162.367 1399.64 -181.429C1416.42 -218.095 1441.94 -248.587 1462.3 -271.051C1475.43 -285.541 1489.69 -299.464 1503.47 -312.928C1508.12 -317.476 1512.76 -322.027 1517.39 -326.581C1524.14 -333.268 1531.1 -339.973 1537.83 -346.462C1546.22 -354.562 1554.93 -362.896 1563.24 -371.284C1579.44 -387.556 1595.22 -403.567 1610.48 -419.965H1609.2C1594.14 -403.765 1578.6 -387.997 1562.58 -371.95C1554.23 -363.562 1545.57 -355.21 1537.19 -347.137C1530.46 -340.648 1523.49 -333.934 1516.73 -327.247C1512.12 -322.675 1507.48 -318.124 1502.82 -313.594C1489.03 -300.094 1474.77 -286.189 1461.62 -271.672C1441.22 -249.172 1415.64 -218.572 1398.79 -181.816C1390.02 -162.673 1384.47 -144.709 1381.82 -126.916L1381.47 -124.666C1379.46 -111.22 1377.37 -97.3239 1377.67 -83.6799C1378.35 -52.3509 1383.91 -25.9359 1394.69 -2.90485C1409.99 29.8281 1433.26 53.3631 1463.81 67.0341C1475.87 72.4341 1488.87 75.2511 1501.13 77.4831C1520.7 81.0831 1540.64 80.5701 1559.91 80.0931C1563.8 80.0031 1567.68 79.9041 1571.61 79.8411C1582.64 79.6611 1593.81 77.7892 1604.62 75.9802C1607.99 75.4132 1611.36 74.8551 1614.73 74.3331C1635.69 71.1201 1651.63 68.4471 1666.4 65.6661C1677.07 63.6591 1687.84 61.2382 1698.26 58.8892C1702 58.0522 1705.73 57.2062 1709.48 56.3872C1724.38 53.1052 1739.28 49.8052 1754.18 46.4872L1777.65 41.2761C1781.83 40.3761 1786 39.4041 1790.16 38.4502C1793.41 37.7032 1796.71 36.9562 1800.01 36.2182L1800 35.2372Z" fill="#034833"/>
<path d="M1800 1047.29C1796.05 1042.49 1792.1 1037.69 1788.15 1032.89C1771.83 1013.2 1754.96 992.837 1738.56 972.668C1718.05 947.468 1697.29 921.323 1676.88 894.989C1651.04 861.689 1628.44 823.574 1609.7 781.787C1591.11 740.333 1580.21 698.231 1577.3 656.687C1575.14 625.7 1576.73 597.647 1582.19 570.926C1589.39 535.925 1601.53 504.056 1618.42 476.21C1641.48 438.073 1672.73 405.529 1709.89 380.927C1733.44 365.285 1753.64 353.927 1773.48 345.287C1782.93 341.156 1791.69 337.682 1800.01 334.775V329.699C1791.12 332.75 1781.72 336.449 1771.57 340.886C1751.46 349.67 1731.02 361.127 1707.25 376.931C1669.48 401.912 1637.74 434.967 1614.3 473.708C1597.13 502.031 1584.74 534.413 1577.48 569.954C1571.93 597.107 1570.28 625.592 1572.51 657.011C1575.46 699.167 1586.5 741.827 1605.32 783.794C1624.22 825.923 1647.02 864.335 1673.08 897.968C1693.52 924.338 1714.29 950.501 1734.83 975.737C1751.26 995.924 1768.13 1016.29 1784.45 1035.98C1789.63 1042.25 1794.81 1048.52 1799.98 1054.8L1800 1047.29Z" fill="#034833"/>
<path d="M1800 -17.5197C1795.23 -16.6197 1790.44 -15.7197 1785.7 -14.8197C1779.09 -13.5147 1772.4 -12.1197 1765.9 -10.7427C1758.74 -9.23972 1751.34 -7.67371 1744.05 -6.24271C1731.38 -3.7767 1720.93 -1.95868 1711.14 -0.518677C1701.36 0.921326 1691.61 2.03732 1682.06 3.14435L1676.06 3.83731C1672.41 4.26028 1668.75 4.73727 1665.1 5.2323C1656.05 6.43829 1646.69 7.6803 1637.51 7.93228C1624.37 8.2923 1610.93 7.66229 1597.91 7.03229L1589.6 6.6543C1572.12 5.84619 1554.91 2.07245 1538.7 -4.50568C1497.47 -20.8947 1473.77 -51.0537 1468.25 -94.1547C1465.41 -116.562 1467.56 -139.321 1474.55 -160.8C1481.75 -183.3 1492.34 -204.999 1506.85 -227.058C1525.02 -254.67 1546.51 -279.861 1567.03 -302.982C1581.84 -319.668 1597.28 -336.282 1612.2 -352.401C1620.08 -360.891 1627.93 -369.393 1635.77 -377.907C1637.43 -379.707 1639.1 -381.507 1640.77 -383.307C1647.76 -390.876 1654.97 -398.706 1661.63 -406.815C1665.23 -411.171 1668.82 -415.557 1672.38 -419.973H1666.2C1663.44 -416.589 1660.69 -413.22 1657.94 -409.866C1651.37 -401.865 1644.19 -394.089 1637.24 -386.565C1635.58 -384.765 1633.91 -382.965 1632.24 -381.165C1624.44 -372.639 1616.59 -364.143 1608.69 -355.677C1593.75 -339.567 1578.29 -322.899 1563.44 -306.177C1542.81 -282.93 1521.14 -257.577 1502.86 -229.677C1488.1 -207.249 1477.35 -185.19 1469.99 -162.249C1462.78 -140.097 1460.57 -116.624 1463.51 -93.5157C1469.27 -48.5157 1493.97 -17.0967 1536.94 -0.0236816C1553.65 6.7749 1571.4 10.6738 1589.43 11.5053L1597.73 11.8923C1610.81 12.5043 1624.34 13.1433 1637.67 12.7923C1647.08 12.5313 1656.57 11.2713 1665.75 10.0923C1669.35 9.60632 1673 9.12933 1676.63 8.69733L1682.62 8.0043C1692.22 6.89731 1702.13 5.75433 1711.85 4.32333C1721.58 2.89233 1732.23 1.04733 1744.97 -1.42767C1752.3 -2.85867 1759.73 -4.41568 1766.91 -5.92767C1773.36 -7.28668 1780.04 -8.69971 1786.61 -9.9957C1791.05 -10.8957 1795.53 -11.7237 1799.99 -12.5607L1800 -17.5197Z" fill="#034833"/>
<path d="M1800 1001.52C1794.54 994.697 1789.07 987.881 1783.59 981.071C1763.96 956.672 1743.68 931.445 1724.19 906.245C1701.26 876.622 1680.86 845.119 1663.22 812.069C1649.51 786.428 1638.4 759.48 1630.05 731.627C1622.63 706.562 1618.35 683.27 1616.87 660.428C1615.12 634.674 1616.85 608.803 1622.03 583.513C1628.72 551.494 1640.92 520.878 1658.08 493.028C1674.19 466.847 1693.27 444.662 1714.78 427.085C1739.37 406.997 1765.13 391.238 1791.28 380.222C1794.23 378.98 1797.1 377.828 1799.92 376.721V375.73C1796.99 376.873 1794 378.07 1790.92 379.33C1764.64 390.373 1738.81 406.187 1714.14 426.329C1692.54 443.969 1673.4 466.234 1657.22 492.505C1640.01 520.447 1627.77 551.163 1621.05 583.288C1615.86 608.66 1614.12 634.616 1615.87 660.455C1617.33 683.369 1621.66 706.724 1629.1 731.861C1637.46 759.772 1648.6 786.777 1662.34 812.474C1680 845.569 1700.43 877.115 1723.4 906.776C1742.87 931.976 1763.16 957.176 1782.8 981.62C1788.53 988.73 1794.23 995.846 1799.9 1002.97L1800 1001.52Z" fill="#034833"/>
<path d="M109.503 -419.996C110.874 -409.204 111.49 -398.33 111.348 -387.452C110.736 -363.26 109.026 -339.266 107.181 -314.777C105.903 -297.767 104.211 -277.625 101.394 -257.249C99.4142 -242.975 96.8942 -228.521 94.5182 -214.544C93.0332 -205.895 91.4942 -196.949 90.0902 -188.138C82.1162 -138.071 72.7202 -92.891 61.3532 -50.006C59.5532 -43.274 57.7982 -36.5331 56.0882 -29.7831C51.4442 -11.7831 46.6472 6.76596 41.0942 24.775C33.4352 49.561 24.5972 75.526 12.4202 108.952C8.59522 119.473 4.25721 129.598 -0.00878906 138.94V141.163C4.49121 131.263 9.19822 120.517 13.2932 109.276C25.4702 75.832 34.3172 49.8759 41.9762 25.045C47.5382 7.04495 52.3442 -11.576 56.9882 -29.549C58.7282 -36.293 60.4832 -43.0311 62.2532 -49.7631C73.6202 -92.675 83.0252 -137.891 91.0532 -187.994C92.4572 -196.796 93.9962 -205.742 95.4812 -214.391C97.8932 -228.368 100.377 -242.831 102.357 -257.114C105.183 -277.526 106.857 -297.686 108.153 -314.714C109.953 -339.212 111.708 -363.215 112.32 -387.425C112.356 -388.781 112.374 -390.14 112.374 -391.502C112.291 -401.028 111.66 -410.542 110.484 -419.996H109.503Z" fill="#034833"/>
<path d="M1800 935.911C1793.82 927.964 1787.64 920.008 1781.58 912.043C1756.38 878.959 1736.47 848.818 1720.83 819.883C1705.79 792.064 1689.21 758.548 1680.33 720.883C1676.31 703.855 1671.64 681.355 1671.21 658.351C1670.96 648.521 1671.45 638.686 1672.68 628.93C1673.02 626.419 1673.33 623.899 1673.66 621.37C1675.28 608.581 1676.96 595.36 1680.7 583.012C1694.62 537.013 1717.45 500.536 1750.51 471.493C1765.51 458.227 1782.14 446.936 1800.01 437.896V436.852C1781.91 445.961 1765.07 457.369 1749.9 470.791C1717.16 499.546 1693.58 537.211 1679.81 582.742C1676.05 595.162 1674.41 608.428 1672.73 621.253C1672.41 623.773 1672.09 626.293 1671.76 628.813C1670.51 638.613 1670.02 648.493 1670.28 658.369C1670.72 681.463 1675.4 704.026 1679.43 721.099C1688.35 758.899 1704.95 792.496 1720.02 820.36C1735.69 849.34 1755.58 879.526 1780.85 912.646C1787.15 920.926 1793.57 929.197 1800.01 937.459L1800 935.911Z" fill="#034833"/>
<path d="M53.3076 -419.996H52.3446C57.7986 -399.188 61.0836 -375.896 62.4786 -348.527C63.3786 -330.473 62.6226 -312.014 61.8756 -294.167C61.6686 -289.037 61.4526 -283.898 61.2726 -278.768C60.9036 -268.085 60.0036 -257.24 59.1036 -246.746C58.8786 -243.992 58.6446 -241.238 58.4286 -238.493C58.2666 -236.405 58.1076 -234.305 57.9516 -232.193C57.3486 -224.093 56.7186 -215.696 55.4855 -207.551C52.2995 -186.554 49.0236 -167.249 45.4686 -148.547C41.1036 -125.408 37.2066 -106.049 32.5446 -86.7081L30.7446 -79.1391C25.2906 -56.4501 19.6566 -32.9961 12.3126 -10.523C8.50555 1.09595 4.47355 13.0299 0.0185547 25.0629V27.7629C4.82455 14.9289 9.14456 2.19394 13.1946 -10.1991C20.5476 -32.6991 26.1906 -56.1801 31.6446 -78.8871L33.4446 -86.4561C38.1156 -105.797 42.0035 -125.156 46.4135 -148.358C50.0135 -167.069 53.2535 -186.383 56.4395 -207.389C57.6815 -215.57 58.3116 -223.976 58.9145 -232.103C59.0705 -234.191 59.2296 -236.276 59.3916 -238.358C59.6076 -241.112 59.8416 -243.866 60.0666 -246.62C60.9666 -257.123 61.8666 -267.977 62.1996 -278.687C62.3796 -283.808 62.5956 -288.938 62.8026 -294.077C63.3156 -306.119 63.8286 -318.431 63.8286 -330.725C63.8286 -336.674 63.7026 -342.614 63.4056 -348.518C62.0106 -375.905 58.7346 -399.188 53.3076 -419.996Z" fill="#034833"/>
<path d="M1800 874.492C1780.13 844.972 1759.94 811.168 1744.2 774.736C1729.07 739.708 1720.76 706.552 1718.77 673.378C1717.81 656.821 1718.79 640.209 1721.67 623.878C1725.9 600.082 1734.21 577.195 1746.23 556.225C1760.45 531.322 1778.46 511.333 1799.99 496.429V495.312C1778.11 510.333 1759.84 530.539 1745.42 555.766C1733.36 576.829 1725.01 599.816 1720.76 623.716C1717.86 640.107 1716.88 656.779 1717.84 673.396C1719.84 706.696 1728.18 739.942 1743.35 775.096C1759.31 812.059 1779.85 846.312 1799.99 876.138L1800 874.492Z" fill="#034833"/>
<path d="M1800 788.165C1795.63 778.328 1791.71 768.491 1788.05 758.906C1778.66 734.287 1773.2 708.349 1771.85 682.037C1771.41 673.838 1772.42 665.387 1773.4 657.224C1773.78 654.056 1774.17 650.789 1774.48 647.567C1776.36 627.578 1783.22 607.967 1796.08 585.953C1797.34 583.784 1798.67 581.678 1800.04 579.653V577.961C1798.38 580.409 1796.79 582.92 1795.28 585.521C1782.35 607.688 1775.48 627.389 1773.55 647.522C1773.25 650.726 1772.86 653.993 1772.48 657.152C1771.5 665.351 1770.48 673.838 1770.92 682.118C1772.29 708.531 1777.79 734.566 1787.22 759.275C1791.13 769.499 1795.32 779.975 1800.04 790.478L1800 788.165Z" fill="#034833"/>
<path d="M779.697 -7.43885C779.697 18.2382 769.545 39.1631 749.511 54.7961C730.179 69.8801 707.652 78.7991 682.551 81.3102C656.793 83.8841 633.321 80.5271 612.783 71.3381C595.377 63.5441 575.883 52.9241 563.706 33.1421C558.396 24.5471 554.283 14.6741 550.764 2.05614C550.74 1.96901 550.742 1.87674 550.769 1.7905C550.796 1.70425 550.847 1.62773 550.917 1.57016C550.863 1.52919 550.819 1.47601 550.79 1.41504C550.76 1.35406 550.745 1.28697 550.746 1.21915V-11.7409C550.746 -36.4909 560.862 -57.9019 579.897 -73.6519C611.289 -99.6349 648.54 -108.437 687.618 -99.1039C725.418 -90.1039 751.581 -72.6169 767.511 -45.7519C775.737 -31.8739 779.607 -19.9309 779.688 -8.14088C779.697 -7.90688 779.697 -7.67284 779.697 -7.43885ZM551.502 1.56116C551.576 1.62526 551.629 1.70978 551.655 1.80412C555.156 14.3231 559.233 24.1241 564.498 32.6381C576.585 52.2041 595.881 62.7431 613.161 70.4381C633.555 79.5641 656.865 82.8941 682.461 80.3381C707.391 77.8451 729.756 68.9891 748.953 54.0221C768.753 38.5781 778.779 17.8872 778.779 -7.48383C778.779 -7.71783 778.779 -7.94286 778.779 -8.18586C778.698 -19.7959 774.873 -31.5859 766.728 -45.3199C750.942 -71.9599 724.995 -89.2669 687.42 -98.2399C648.081 -107.636 612.108 -99.1399 580.509 -72.9859C561.69 -57.4159 551.709 -36.2479 551.709 -11.7859V1.17416C551.714 1.25276 551.697 1.33118 551.661 1.40097C551.624 1.47077 551.569 1.5293 551.502 1.57016V1.56116Z" fill="#034833"/>
<path d="M1090.81 3.71326C1090.81 20.6783 1089.99 38.5343 1087.21 56.2553C1083.84 78.761 1077.71 100.767 1068.97 121.775C1055.28 154.382 1035.2 180.77 1007.59 202.451C990.037 216.239 969.112 228.209 941.743 240.116C915.094 251.708 884.881 260.672 849.394 267.512C833.059 270.662 816.238 272.498 799.975 274.271L790.975 275.252C775.459 276.971 759.412 278.735 743.554 279.086C711.505 279.77 673.705 279.824 636.274 274.973C630.874 274.271 625.276 273.758 619.885 273.254C612.046 272.534 603.946 271.787 596.026 270.437C578.926 267.53 560.314 263.777 539.2 258.971C508.834 252.096 479.303 241.948 451.126 228.704C423.901 215.843 401.896 201.56 383.86 185.036C362.647 165.614 346.06 140.612 334.513 110.723C325.216 86.6393 320.041 62.4203 319.123 38.7233C319.01 37.4026 318.75 36.0986 318.349 34.8353C318.151 34.1153 317.962 33.3953 317.8 32.6753C317.744 32.3779 317.744 32.0727 317.8 31.7753C317.781 31.6138 317.781 31.4507 317.8 31.2893C318.088 25.7093 318.322 20.1203 318.556 14.5223C319.087 1.81427 319.636 -11.3257 320.86 -24.1777C322.327 -39.6037 324.217 -56.0737 328.159 -71.9857C337.654 -110.407 349.858 -142.861 365.455 -171.229C384.949 -206.68 406.702 -234.229 431.956 -255.487C458.38 -277.708 489.142 -295.024 526.015 -308.407C564.301 -322.303 604.711 -328.099 642.817 -332.842C656.2 -334.507 669.547 -335.155 682.417 -335.776C695.485 -336.406 712.693 -337.135 729.883 -337.18C738.37 -337.18 746.983 -336.802 755.281 -336.415C759.781 -336.208 764.281 -336.001 768.718 -335.857C774.703 -335.659 780.697 -335.506 786.718 -335.344C796.825 -335.083 807.274 -334.813 817.561 -334.345C830.323 -333.769 847.162 -332.923 864.298 -331.438C881.938 -329.908 899.461 -327.946 918.901 -325.714C937.459 -323.59 955.999 -318.667 975.601 -310.648C1004.09 -298.948 1025.1 -279.004 1039.83 -249.556C1047.87 -233.482 1054.82 -215.086 1061.7 -191.65C1071.07 -159.736 1078.52 -124.294 1084.49 -83.3077C1087.79 -60.6007 1089.54 -43.2127 1090.16 -26.9317C1090.5 -17.2477 1090.81 -6.94272 1090.81 3.71326ZM322.525 31.7843C322.66 32.3873 322.822 32.9813 322.984 33.5843C323.489 35.1984 323.806 36.8654 323.929 38.5523C324.829 61.7003 329.887 85.3973 338.986 108.986C350.254 138.182 366.445 162.59 387.1 181.49C404.785 197.69 426.403 211.703 453.187 224.348C481.046 237.455 510.249 247.492 540.28 254.282C561.304 259.07 579.808 262.805 596.845 265.703C604.585 267.017 612.595 267.755 620.344 268.475C625.744 268.97 631.387 269.492 636.904 270.212C674.02 275.018 711.604 274.964 743.464 274.271C759.115 273.938 775.054 272.183 790.471 270.473L799.471 269.492C815.671 267.692 832.357 265.892 848.494 262.796C883.639 256.019 913.519 247.154 939.844 235.706C966.844 224.006 987.427 212.189 1004.64 198.671C1031.59 177.503 1051.19 151.736 1064.56 119.903C1073.16 99.2507 1079.19 77.6168 1082.5 55.4903C1086.93 27.0773 1086.28 -1.86673 1085.34 -26.7697C1084.72 -42.8797 1082.99 -60.0697 1079.7 -82.6417C1073.78 -123.403 1066.37 -158.629 1057.07 -190.318C1050.26 -213.475 1043.42 -231.619 1035.51 -247.432C1021.32 -275.8 1001.12 -295.033 973.747 -306.238C954.577 -314.077 936.451 -318.901 918.334 -320.98C898.93 -323.194 881.434 -325.156 863.857 -326.686C846.811 -328.162 830.035 -329.008 817.318 -329.584C807.085 -330.043 796.618 -330.313 786.565 -330.574C780.562 -330.736 774.559 -330.889 768.565 -331.087C764.065 -331.231 759.565 -331.438 755.065 -331.645C746.803 -332.032 738.262 -332.428 729.865 -332.41C712.765 -332.365 695.665 -331.636 682.615 -331.006C669.799 -330.394 656.515 -329.746 643.339 -328.108C605.539 -323.392 565.399 -317.65 527.581 -303.925C491.248 -290.731 460.981 -273.694 434.962 -251.833C410.167 -230.98 388.783 -203.863 369.577 -168.934C354.187 -140.944 342.136 -108.859 332.74 -70.8337C328.879 -55.2277 327.007 -38.9737 325.54 -23.7277C324.334 -10.9657 323.785 2.1113 323.254 14.7563C323.02 20.3633 322.786 25.9703 322.498 31.5683C322.534 31.6403 322.534 31.7123 322.525 31.7843Z" fill="#034833"/>
<path d="M880.678 -0.672043C880.695 10.7122 879.03 22.0365 875.737 32.934C863.641 72.435 839.269 102.333 803.296 121.818C771.265 139.161 735.517 148.989 694.027 151.869C676.432 153.084 658.081 152.292 637.939 149.448C618.535 146.748 601.624 142.86 586.225 137.685C546.994 124.5 519.625 107.085 499.969 82.785C478.369 56.109 467.758 28.254 467.452 -2.382C467.363 -3.67783 467.087 -4.95399 466.633 -6.17102C466.435 -6.79202 466.237 -7.41302 466.084 -8.03403C466.065 -8.11938 466.069 -8.2085 466.098 -8.29123C466.127 -8.37395 466.178 -8.44695 466.246 -8.502C466.179 -8.5542 466.129 -8.62411 466.1 -8.7037C466.072 -8.78329 466.066 -8.86934 466.084 -8.952C466.237 -9.717 466.435 -10.491 466.633 -11.256C467.117 -12.808 467.386 -14.419 467.434 -16.044C467.11 -30.444 470.809 -44.052 474.076 -54.321C485.884 -91.428 506.26 -120.489 534.619 -140.721C567.676 -164.274 606.088 -177.414 648.784 -179.772C697.028 -181.944 744.961 -171.022 787.501 -148.164C818.47 -131.109 841.042 -109.86 856.522 -83.211C870.229 -59.613 878.221 -35.097 880.282 -10.311C880.552 -7.125 880.678 -3.91203 880.678 -0.672043ZM466.804 -8.502C466.881 -8.44081 466.935 -8.3551 466.957 -8.25903C467.11 -7.65604 467.299 -7.05304 467.488 -6.45903C467.987 -5.15793 468.29 -3.79005 468.388 -2.40002C468.694 28.011 479.269 55.686 500.698 82.2C520.201 106.32 547.498 123.672 586.531 136.803C601.876 141.96 618.733 145.803 638.083 148.503C658.162 151.338 676.441 152.103 693.973 150.906C735.373 148.044 770.95 138.252 802.873 120.972C838.621 101.613 862.84 71.895 874.873 32.637C879.061 18.7407 880.588 4.17868 879.373 -10.284C877.33 -34.89 869.374 -59.271 855.739 -82.752C840.349 -109.248 817.885 -130.38 787.069 -147.354C762.508 -160.779 735.906 -170.071 708.328 -174.858C687.277 -178.593 667.828 -179.898 648.856 -178.854C606.34 -176.505 568.09 -163.419 535.168 -139.965C506.98 -119.877 486.73 -90.978 474.976 -54.06C471.736 -43.863 468.037 -30.345 468.379 -16.098C468.332 -14.3853 468.053 -12.687 467.551 -11.049C467.353 -10.302 467.164 -9.54601 467.011 -8.79901C466.999 -8.73767 466.975 -8.67947 466.939 -8.62828C466.904 -8.57709 466.858 -8.53404 466.804 -8.502Z" fill="#034833"/>
<path d="M956.314 -2.06354C956.206 4.58492 955.729 11.2222 954.883 17.8175V18.0695C954.133 26.2298 952.931 34.3423 951.283 42.3695C947.989 56.9495 942.094 72.0695 932.725 90.0695C923.581 107.565 910.513 123.126 891.595 139.038C874.961 152.865 856.279 164.02 836.218 172.104C805.929 184.676 774.024 192.929 741.439 196.62C723.335 198.974 705.122 200.395 686.872 200.877C675.442 201.129 663.805 199.977 652.555 198.942C649.855 198.681 647.155 198.42 644.455 198.186C642.34 197.997 640.234 197.817 638.155 197.646C627.904 196.746 617.311 195.846 607.159 193.723C584.902 188.979 558.685 182.589 532.981 171.159C509.095 160.53 478.603 144.915 454.681 118.275C435.106 96.4685 421.966 70.7195 414.514 39.5435C413.272 34.3325 412.336 28.9595 411.436 23.7665C411.013 21.3455 410.599 18.9245 410.149 16.5035C410.133 16.4222 410.139 16.338 410.168 16.2602C410.196 16.1824 410.246 16.1139 410.311 16.0625C410.248 16.0254 410.199 15.9703 410.168 15.9044C410.138 15.8386 410.128 15.7651 410.14 15.6935C410.203 11.8865 410.212 8.0795 410.23 4.27251C410.23 -9.7045 410.329 -24.1585 412.804 -38.3965C416.872 -61.7965 423.316 -82.5595 432.487 -101.784C446.887 -131.943 464.23 -155.568 485.587 -174.036C499.084 -185.675 513.829 -195.784 529.552 -204.177C552.492 -216.572 577.252 -225.251 602.911 -229.89C619.219 -232.842 636.931 -234.642 660.331 -235.722C678.475 -236.559 699.931 -236.901 721.423 -233.076C725.923 -232.284 730.477 -231.564 734.923 -230.871C743.023 -229.602 751.357 -228.288 759.466 -226.452C780.464 -221.568 800.954 -214.716 820.666 -205.986C843.871 -196.062 865.378 -182.563 884.404 -165.981C907.696 -145.461 926.11 -118.56 939.151 -86.0335C950.041 -58.8535 955.819 -31.1965 956.341 -3.8275C956.305 -3.24249 956.314 -2.64853 956.314 -2.06354ZM410.86 15.9365C410.945 16.0035 411.003 16.0996 411.022 16.2065C411.472 18.6275 411.922 21.0575 412.318 23.4785C413.218 28.6625 414.118 34.0175 415.378 39.2015C422.794 70.2245 435.862 95.8385 455.338 117.501C479.152 144.016 509.527 159.567 533.332 170.16C558.955 181.563 585.118 187.935 607.321 192.66C617.419 194.811 628.021 195.702 638.2 196.557L644.5 197.106C647.2 197.34 649.9 197.601 652.6 197.862C663.823 198.933 675.433 200.049 686.8 199.797C705.027 199.331 723.219 197.934 741.304 195.612C773.792 191.921 805.602 183.689 835.804 171.159C855.775 163.102 874.375 151.993 890.938 138.228C909.757 122.397 922.753 106.927 931.834 89.5475C941.167 71.6825 947.035 56.6165 950.311 42.1175C951.96 34.1388 953.162 26.0742 953.911 17.9615V17.7095C954.853 10.5753 955.326 3.3867 955.324 -3.80954C954.811 -31.0705 949.024 -58.6105 938.224 -85.7095C925.057 -118.56 907.237 -144.597 883.729 -165.306C864.781 -181.856 843.356 -195.333 820.234 -205.248C800.563 -213.958 780.115 -220.792 759.16 -225.66C751.06 -227.46 742.744 -228.801 734.68 -230.07C730.252 -230.763 725.68 -231.483 721.18 -232.275C699.769 -236.082 678.385 -235.74 660.295 -234.912C636.895 -233.832 619.264 -232.041 602.992 -229.089C577.432 -224.465 552.766 -215.82 529.912 -203.475C514.249 -195.11 499.559 -185.041 486.109 -173.451C464.887 -155.073 447.598 -131.538 433.27 -101.505C424.135 -82.3525 417.718 -61.6975 413.668 -38.3515C411.202 -24.1945 411.157 -9.7765 411.103 4.1555C411.103 7.9715 411.103 11.7785 411.013 15.5945C411.018 15.665 411.007 15.7358 410.981 15.8014C410.954 15.867 410.913 15.9256 410.86 15.9725V15.9365Z" fill="#034833"/>
<path d="M1023.9 -0.309509C1023.9 14.6877 1022.7 29.6608 1020.3 44.4655C1017.41 62.4655 1011.83 80.6275 1003.2 100.076C991.853 125.866 974.755 148.717 953.217 166.884C929.241 187.169 899.442 203.289 862.128 216.159C831.204 226.915 799.099 233.91 766.503 236.993C763.398 237.272 760.293 237.569 757.188 237.893C742.608 239.27 727.488 240.693 712.656 241.223C685.773 242.147 658.861 240.732 632.223 236.993L631.809 236.939C613.809 234.419 595.125 231.81 576.963 228.29C547.173 222.549 518.205 213.154 490.716 200.318C461.07 186.422 440.262 173.048 423.216 156.938C396.513 131.675 378.117 98.9335 368.559 59.6215C366.759 52.3135 365.571 44.7535 364.401 37.4275C363.87 34.0795 363.312 30.6235 362.709 27.2305C362.698 27.1493 362.707 27.0668 362.736 26.99C362.764 26.9131 362.81 26.8443 362.871 26.7895C362.819 26.7453 362.777 26.6901 362.749 26.6278C362.721 26.5655 362.708 26.4978 362.709 26.4295C362.709 22.4605 362.709 18.4825 362.628 14.5045C362.448 -3.8555 362.259 -22.8365 365.715 -41.2955C370.152 -64.9475 375.696 -85.2515 382.671 -103.395C400.365 -149.349 424.125 -185.205 455.319 -213.033C475.119 -230.709 498.465 -245.074 528.777 -258.25C565.623 -274.27 608.076 -283.144 662.391 -286.15C680.148 -287.14 698.301 -286.195 715.851 -285.25L724.122 -284.827C740.016 -284.035 755.721 -282.577 770.796 -280.489C790.164 -277.789 807.588 -275.242 824.625 -271.048C857.7 -262.894 884.025 -252.688 907.425 -238.945C931.275 -224.941 949.833 -209.083 964.125 -190.471C978.487 -171.794 990.058 -151.13 998.478 -129.127C1004.21 -114.169 1008.68 -98.4455 1013 -83.2265L1013.67 -80.9045C1018.48 -64.0025 1020.74 -46.7945 1022.67 -26.1755C1023.46 -17.5085 1023.9 -8.89551 1023.9 -0.309509ZM363.501 26.7625C363.585 26.8348 363.642 26.933 363.663 27.0415C364.266 30.4435 364.824 33.9085 365.355 37.2565C366.525 44.5555 367.731 52.1065 369.504 59.3785C379.017 98.5105 397.314 131.099 423.891 156.236C440.838 172.265 461.574 185.594 491.13 199.436C518.548 212.238 547.44 221.609 577.152 227.336C595.296 230.855 613.935 233.456 631.953 235.976L632.367 236.039C658.955 239.767 685.816 241.176 712.647 240.251C727.479 239.729 742.554 238.307 757.116 236.93L766.44 236.03C798.938 232.959 830.947 225.985 861.777 215.259C898.992 202.424 928.692 186.359 952.569 166.155C973.997 148.088 991.009 125.359 1002.3 99.7075C1010.88 80.3305 1016.44 62.2135 1019.31 44.3215C1023.1 21.0409 1023.91 -2.62723 1021.73 -26.1125C1019.82 -46.6865 1017.58 -63.8405 1012.78 -80.6795L1012.12 -83.0015C1007.8 -98.1845 1003.34 -113.89 997.623 -128.812C989.241 -150.727 977.721 -171.309 963.423 -189.913C949.185 -208.435 930.717 -224.212 906.975 -238.162C883.665 -251.86 857.475 -262.029 824.454 -270.156C807.462 -274.35 790.065 -276.907 770.724 -279.589C755.676 -281.668 739.998 -283.126 724.131 -283.918L715.86 -284.341C698.328 -285.241 680.202 -286.195 662.49 -285.241C608.301 -282.217 565.947 -273.37 529.2 -257.395C498.987 -244.255 475.722 -229.944 455.994 -212.34C424.917 -184.612 401.229 -148.872 383.589 -103.062C376.641 -85.0085 371.106 -64.7585 366.678 -41.1605C363.24 -22.8095 363.429 -3.8735 363.609 14.4415C363.609 18.4195 363.681 22.3975 363.69 26.3755C363.693 26.4507 363.678 26.5255 363.645 26.5931C363.612 26.6607 363.562 26.7189 363.501 26.7625Z" fill="#034833"/>
</g>
</svg>
