<svg width="65" height="65" viewBox="0 0 65 65" fill="none" xmlns="http://www.w3.org/2000/svg">
<path d="M60.2488 18.4081C60.2489 15.7069 59.448 13.0662 57.9473 10.8202C56.4466 8.57411 54.3136 6.8235 51.818 5.78973C49.3224 4.75595 46.5762 4.48544 43.9269 5.01241C41.2775 5.53937 38.8439 6.84015 36.9338 8.75023C35.0237 10.6603 33.723 13.0939 33.196 15.7433C32.669 18.3926 32.9395 21.1388 33.9733 23.6344C35.0071 26.13 36.7577 28.2631 39.0038 29.7637C41.2498 31.2644 43.8905 32.0653 46.5917 32.0652C50.2126 32.0612 53.684 30.621 56.2443 28.0607C58.8046 25.5004 60.2448 22.029 60.2488 18.4081ZM34.7115 18.4081C34.7114 16.0584 35.408 13.7614 36.7134 11.8077C38.0188 9.8539 39.8742 8.3311 42.045 7.43183C44.2158 6.53256 46.6046 6.29722 48.9091 6.75556C51.2137 7.21391 53.3306 8.34536 54.9922 10.0068C56.6537 11.6683 57.7852 13.7851 58.2437 16.0897C58.7021 18.3943 58.4669 20.783 57.5677 22.9539C56.6685 25.1248 55.1458 26.9802 53.1921 28.2857C51.2384 29.5911 48.9414 30.2879 46.5917 30.2879C43.4421 30.2843 40.4225 29.0315 38.1953 26.8044C35.9681 24.5773 34.7152 21.5578 34.7115 18.4081Z" fill="white"/>
<path d="M53.3211 45.7691H22.662V42.7593H46.5926C46.7151 42.7589 46.8362 42.733 46.9481 42.6832H46.9511C47.6895 42.3572 65.0008 34.5023 65.0008 18.4082C65.0008 13.526 63.0614 8.84385 59.6092 5.39164C56.157 1.93943 51.4748 0 46.5926 0C41.7105 0 37.0283 1.93943 33.576 5.39164C30.1238 8.84385 28.1844 13.526 28.1844 18.4082C28.1844 26.7734 32.8614 32.9078 37.4566 36.9195H22.2811C20.8338 36.9211 19.4462 37.4968 18.4228 38.5202C17.3994 39.5436 16.8237 40.9312 16.8221 42.3785V46.1485C16.8237 47.5958 17.3994 48.9834 18.4228 50.0068C19.4462 51.0302 20.8338 51.6059 22.2811 51.6075H52.9403V54.2395H15.1082C14.4299 52.5495 13.1844 51.1483 11.5856 50.2767C9.98671 49.405 8.13426 49.1172 6.34629 49.4626C4.55831 49.808 2.94638 50.7651 1.78726 52.1696C0.628132 53.5741 -0.00585938 55.3383 -0.00585938 57.1594C-0.00585938 58.9804 0.628132 60.7446 1.78726 62.1491C2.94638 63.5536 4.55831 64.5107 6.34629 64.8562C8.13426 65.2016 9.98671 64.9137 11.5856 64.0421C13.1844 63.1704 14.4299 61.7693 15.1082 60.0793H53.3211C54.7685 60.0777 56.156 59.502 57.1794 58.4786C58.2029 57.4552 58.7785 56.0676 58.7801 54.6203V51.2266C58.7781 49.7796 58.2023 48.3924 57.1789 47.3693C56.1555 46.3462 54.7682 45.7708 53.3211 45.7691ZM29.9618 18.4082C29.9618 13.9974 31.7139 9.7673 34.8328 6.64841C37.9517 3.52952 42.1818 1.77734 46.5926 1.77734C51.0034 1.77734 55.2335 3.52952 58.3524 6.64841C61.4713 9.7673 63.2235 13.9974 63.2235 18.4082C63.2235 32.1105 49.0504 39.6789 46.5921 40.8875C44.1323 39.681 29.9618 32.1298 29.9618 18.4082ZM7.83992 63.2242C6.64096 63.2242 5.46892 62.8687 4.47201 62.2026C3.4751 61.5365 2.69808 60.5898 2.23921 59.4821C1.78034 58.3744 1.66023 57.1555 1.89406 55.9796C2.12789 54.8037 2.70517 53.7235 3.55289 52.8756C4.40061 52.0277 5.48071 51.4503 6.65661 51.2163C7.8325 50.9822 9.05139 51.1021 10.1591 51.5608C11.2669 52.0195 12.2138 52.7964 12.88 53.7932C13.5463 54.79 13.902 55.9619 13.9022 57.1609C13.9007 58.7684 13.2616 60.3096 12.125 61.4463C10.9885 62.583 9.44737 63.2224 7.83992 63.2242ZM57.0028 54.6218C57.0017 55.5979 56.6135 56.5338 55.9233 57.224C55.2331 57.9142 54.2972 58.3024 53.3211 58.3035H15.5866C15.7105 57.5468 15.7105 56.775 15.5866 56.0183H53.3211C53.6914 56.0179 54.0463 55.8707 54.3082 55.6089C54.57 55.3471 54.7172 54.9921 54.7176 54.6218V51.2281C54.7174 50.8578 54.5701 50.5028 54.3083 50.241C54.0465 49.9791 53.6914 49.8319 53.3211 49.8316H22.2811C21.305 49.8306 20.3692 49.4423 19.679 48.7521C18.9888 48.0619 18.6005 47.1261 18.5995 46.15V42.38C18.6005 41.4039 18.9888 40.4681 19.679 39.7779C20.3692 39.0877 21.305 38.6994 22.2811 38.6984H39.6529C40.7454 39.5167 41.8786 40.2794 43.0481 40.9835H22.2811C21.9108 40.9838 21.5558 41.131 21.2939 41.3928C21.0321 41.6547 20.8849 42.0097 20.8846 42.38V46.15C20.885 46.5203 21.0323 46.8752 21.2941 47.137C21.5559 47.3988 21.9108 47.5461 22.2811 47.5465H53.3211C54.2972 47.5476 55.2331 47.9358 55.9233 48.626C56.6135 49.3162 57.0017 50.252 57.0028 51.2281V54.6218Z" fill="white"/>
</svg>
