<svg width="25" height="19" viewBox="0 0 25 19" fill="none" xmlns="http://www.w3.org/2000/svg">
<path d="M22.6562 0C23.9258 0 25 1.07422 25 2.34375C25 3.125 24.6094 3.80859 24.0234 4.24805L13.4277 12.207C12.8418 12.6465 12.1094 12.6465 11.5234 12.207L0.927734 4.24805C0.341797 3.80859 0 3.125 0 2.34375C0 1.07422 1.02539 0 2.34375 0H22.6562ZM10.5957 13.4766C11.7188 14.3066 13.2324 14.3066 14.3555 13.4766L25 5.46875V15.625C25 17.3828 23.584 18.75 21.875 18.75H3.125C1.36719 18.75 0 17.3828 0 15.625V5.46875L10.5957 13.4766Z" fill="#83CD20"/>
</svg>
