<svg width="45" height="45" viewBox="0 0 45 45" fill="none" xmlns="http://www.w3.org/2000/svg">
<g clip-path="url(#clip0_204_2903)">
<path d="M44.3848 1.00879e-07H0.615235C0.452248 -1.38613e-07 0.29592 0.0646742 0.180571 0.179825C0.0652228 0.294976 0.000280312 0.451192 9.041e-07 0.61418V44.3837C-0.000137752 44.4646 0.0156734 44.5447 0.0465298 44.6195C0.0773861 44.6942 0.122682 44.7622 0.179826 44.8194C0.236969 44.8767 0.304839 44.9221 0.379551 44.9531C0.454264 44.9841 0.534353 45 0.615235 45H44.3848C44.4656 45 44.5456 44.9842 44.6203 44.9533C44.6949 44.9224 44.7628 44.877 44.8199 44.8199C44.877 44.7628 44.9224 44.6949 44.9533 44.6203C44.9842 44.5456 45 44.4656 45 44.3848V0.61418C44.9998 0.451164 44.9349 0.294893 44.8195 0.179722C44.7042 0.0645512 44.5478 -9.32111e-05 44.3848 1.00879e-07ZM43.7695 43.7695H1.23047V1.23047H43.7695V43.7695Z" fill="#034833"/>
<path d="M3.42774 42.1875H41.5723C41.6531 42.1875 41.7331 42.1717 41.8078 42.1408C41.8824 42.1099 41.9503 42.0645 42.0074 42.0074C42.0645 41.9503 42.1099 41.8824 42.1408 41.8078C42.1717 41.7331 42.1875 41.6531 42.1875 41.5723V3.42668C42.1873 3.26366 42.1224 3.10739 42.007 2.99222C41.8917 2.87705 41.7353 2.81241 41.5723 2.8125H3.42774C3.26475 2.8125 3.10842 2.87717 2.99307 2.99233C2.87772 3.10748 2.81278 3.26369 2.8125 3.42668V41.5712C2.81236 41.6521 2.82817 41.7322 2.85903 41.807C2.88989 41.8817 2.93518 41.9497 2.99233 42.0069C3.04947 42.0642 3.11734 42.1096 3.19205 42.1406C3.26676 42.1716 3.34685 42.1875 3.42774 42.1875ZM4.04297 4.04297H40.957V40.957H4.04297V4.04297Z" fill="#034833"/>
<path d="M17.935 6.75858C17.8225 6.71224 17.6989 6.70017 17.5796 6.72387C17.4603 6.74758 17.3507 6.80601 17.2645 6.89182L13.5081 10.6483L9.032 6.17252C8.97492 6.11536 8.90713 6.07 8.83251 6.03906C8.75789 6.00811 8.6779 5.99219 8.59712 5.99219C8.51633 5.99219 8.43634 6.00811 8.36172 6.03906C8.2871 6.07 8.21931 6.11536 8.16223 6.17252L6.17309 8.16096C6.05787 8.27643 5.99316 8.43289 5.99316 8.59602C5.99316 8.75914 6.05787 8.91561 6.17309 9.03108L10.6492 13.5072L6.89344 17.2629C6.80734 17.3489 6.74869 17.4586 6.72491 17.5779C6.70113 17.6973 6.71328 17.821 6.75984 17.9335C6.80639 18.0459 6.88525 18.1421 6.98645 18.2097C7.08764 18.2773 7.20662 18.3134 7.32833 18.3134H17.6994C17.8626 18.3134 18.0191 18.2486 18.1345 18.1332C18.2498 18.0178 18.3147 17.8613 18.3147 17.6981V7.32705C18.3147 7.20537 18.2786 7.08642 18.211 6.98523C18.1435 6.88404 18.0474 6.80516 17.935 6.75858ZM17.0856 17.0829H8.81368L11.9545 13.9421C12.0117 13.885 12.0571 13.8172 12.088 13.7426C12.1189 13.6679 12.1349 13.588 12.1349 13.5072C12.1349 13.4264 12.1189 13.3464 12.088 13.2718C12.0571 13.1972 12.0117 13.1294 11.9545 13.0723L7.47845 8.59584L8.59712 7.47752L13.0732 11.9526C13.1886 12.0679 13.3451 12.1326 13.5083 12.1326C13.6714 12.1326 13.8279 12.0679 13.9433 11.9526L17.0856 8.81205V17.0829Z" fill="#034833"/>
<path d="M36.8374 6.17252C36.7803 6.11536 36.7126 6.07 36.6379 6.03906C36.5633 6.00811 36.4833 5.99219 36.4025 5.99219C36.3218 5.99219 36.2418 6.00811 36.1671 6.03906C36.0925 6.07 36.0247 6.11536 35.9677 6.17252L31.4912 10.6483L27.7355 6.89182C27.6495 6.80521 27.5397 6.74613 27.4201 6.72208C27.3004 6.69803 27.1764 6.7101 27.0636 6.75675C26.9508 6.80341 26.8545 6.88254 26.7868 6.98409C26.7192 7.08564 26.6832 7.20503 26.6836 7.32705V17.6981C26.6836 17.779 26.6994 17.859 26.7303 17.9336C26.7612 18.0083 26.8066 18.0761 26.8637 18.1333C26.9208 18.1904 26.9887 18.2357 27.0633 18.2666C27.138 18.2975 27.218 18.3134 27.2988 18.3134H37.6699C37.7917 18.3135 37.9107 18.2774 38.0119 18.2098C38.1132 18.1422 38.1921 18.0461 38.2387 17.9336C38.2853 17.8212 38.2975 17.6974 38.2737 17.578C38.2499 17.4586 38.1913 17.349 38.1052 17.2629L34.3501 13.5072L38.8262 9.03108C38.8834 8.97397 38.9288 8.90615 38.9597 8.8315C38.9906 8.75685 39.0066 8.67683 39.0066 8.59602C39.0066 8.51521 38.9906 8.43519 38.9597 8.36054C38.9288 8.28589 38.8834 8.21807 38.8262 8.16096L36.8374 6.17252ZM33.0469 13.0723C32.9897 13.1294 32.9444 13.1972 32.9134 13.2718C32.8825 13.3464 32.8665 13.4264 32.8665 13.5072C32.8665 13.588 32.8825 13.6679 32.9134 13.7426C32.9444 13.8172 32.9897 13.885 33.0469 13.9421L36.1877 17.0829H27.9141V8.81241L31.0563 11.9526C31.1134 12.0097 31.1812 12.0551 31.2558 12.086C31.3304 12.117 31.4104 12.1329 31.4912 12.1329C31.572 12.1329 31.652 12.117 31.7266 12.086C31.8012 12.0551 31.869 12.0097 31.9261 11.9526L36.4025 7.47682L37.5212 8.59514L33.0469 13.0723Z" fill="#034833"/>
<path d="M17.6998 26.6836H7.32869C7.20698 26.6836 7.088 26.7197 6.98681 26.7873C6.88561 26.8549 6.80675 26.951 6.76019 27.0635C6.71364 27.176 6.70149 27.2997 6.72527 27.4191C6.74905 27.5384 6.8077 27.648 6.8938 27.7341L10.6495 31.4902L6.17345 35.9666C6.05817 36.082 5.99341 36.2384 5.99341 36.4015C5.99341 36.5646 6.05817 36.721 6.17345 36.8364L8.16259 38.8248C8.21967 38.882 8.28746 38.9273 8.36208 38.9583C8.4367 38.9892 8.51669 39.0051 8.59748 39.0051C8.67826 39.0051 8.75825 38.9892 8.83287 38.9583C8.90749 38.9273 8.97528 38.882 9.03236 38.8248L13.5085 34.3477L17.2649 38.1041C17.3509 38.1903 17.4605 38.249 17.5799 38.2728C17.6993 38.2966 17.8231 38.2844 17.9356 38.2378C18.048 38.1912 18.1441 38.1122 18.2117 38.0109C18.2792 37.9097 18.3152 37.7906 18.315 37.6689V27.2978C18.3146 27.1348 18.2497 26.9787 18.1343 26.8635C18.019 26.7484 17.8627 26.6837 17.6998 26.6836ZM17.086 36.1853L13.9451 33.0441C13.8297 32.9288 13.6732 32.864 13.51 32.864C13.3469 32.864 13.1904 32.9288 13.075 33.0441L8.59748 37.5202L7.4788 36.4015L11.9549 31.9254C12.0121 31.8683 12.0574 31.8005 12.0884 31.7258C12.1193 31.6512 12.1353 31.5711 12.1353 31.4903C12.1353 31.4095 12.1193 31.3295 12.0884 31.2548C12.0574 31.1802 12.0121 31.1124 11.9549 31.0553L8.81404 27.9141H17.086V36.1853Z" fill="#034833"/>
<path d="M34.3507 31.4898L38.1071 27.7341C38.1932 27.648 38.2519 27.5384 38.2757 27.419C38.2994 27.2996 38.2872 27.1758 38.2407 27.0633C38.1941 26.9509 38.1151 26.8548 38.0139 26.7872C37.9126 26.7196 37.7936 26.6835 37.6719 26.6836H27.3008C27.1376 26.6836 26.9811 26.7484 26.8657 26.8638C26.7504 26.9792 26.6855 27.1357 26.6855 27.2988V37.6699C26.6855 37.7917 26.7215 37.9107 26.7891 38.0119C26.8567 38.1132 26.9528 38.1921 27.0653 38.2387C27.1778 38.2853 27.3015 38.2975 27.4209 38.2737C27.5403 38.2499 27.65 38.1913 27.736 38.1052L31.4918 34.3473L35.9682 38.823C36.0253 38.8802 36.0931 38.9256 36.1677 38.9565C36.2423 38.9875 36.3223 39.0034 36.4031 39.0034C36.4839 39.0034 36.5639 38.9875 36.6385 38.9565C36.7131 38.9256 36.7809 38.8802 36.838 38.823L38.8268 36.8346C38.8839 36.7775 38.9293 36.7097 38.9602 36.6351C38.9912 36.5605 39.0071 36.4805 39.0071 36.3997C39.0071 36.3189 38.9912 36.239 38.9602 36.1643C38.9293 36.0897 38.8839 36.0219 38.8268 35.9648L34.3507 31.4898ZM36.4031 37.5198L31.9266 33.0437C31.8696 32.9865 31.8018 32.9412 31.7272 32.9102C31.6525 32.8793 31.5725 32.8634 31.4918 32.8634C31.411 32.8634 31.331 32.8793 31.2564 32.9102C31.1817 32.9412 31.114 32.9865 31.0569 33.0437L27.9146 36.1846V27.9137H36.1851L33.0474 31.0549C32.9902 31.112 32.9449 31.1798 32.9139 31.2545C32.883 31.3291 32.8671 31.4092 32.8671 31.49C32.8671 31.5708 32.883 31.6508 32.9139 31.7255C32.9449 31.8001 32.9902 31.8679 33.0474 31.925L37.5235 36.4011L36.4031 37.5198Z" fill="#034833"/>
<path d="M22.4996 18.7852C21.7654 18.7852 21.0476 19.0029 20.4371 19.4108C19.8266 19.8187 19.3508 20.3985 19.0698 21.0768C18.7888 21.7551 18.7152 22.5015 18.8584 23.2217C19.0016 23.9418 19.3551 24.6033 19.8742 25.1225C20.3934 25.6418 21.0548 25.9954 21.7749 26.1387C22.495 26.2821 23.2415 26.2086 23.9198 25.9278C24.5982 25.6469 25.1781 25.1711 25.5861 24.5607C25.9941 23.9503 26.212 23.2326 26.2121 22.4984C26.2113 21.5139 25.8199 20.5701 25.1239 19.8739C24.4278 19.1777 23.484 18.7862 22.4996 18.7852ZM22.4996 24.9793C22.0087 24.9793 21.5287 24.8337 21.1206 24.561C20.7124 24.2882 20.3942 23.9005 20.2064 23.4469C20.0186 22.9933 19.9695 22.4942 20.0653 22.0127C20.1612 21.5312 20.3977 21.0889 20.7449 20.7419C21.0921 20.3948 21.5345 20.1585 22.016 20.0628C22.4976 19.9672 22.9967 20.0165 23.4502 20.2045C23.9037 20.3925 24.2913 20.7108 24.5639 21.1191C24.8365 21.5274 24.9819 22.0074 24.9816 22.4984C24.9806 23.1562 24.7188 23.7868 24.2535 24.2519C23.7882 24.717 23.1575 24.9786 22.4996 24.9793Z" fill="#034833"/>
</g>
<defs>
<clipPath id="clip0_204_2903">
<rect width="45" height="45" fill="white"/>
</clipPath>
</defs>
</svg>
