<svg width="45" height="45" viewBox="0 0 45 45" fill="none" xmlns="http://www.w3.org/2000/svg">
<g clip-path="url(#clip0_204_2854)">
<path d="M44.3848 35.9104H40.5615V16.2172C40.5617 16.1112 40.5345 16.0069 40.4825 15.9146C40.4305 15.8222 40.3555 15.7448 40.2648 15.6899L22.8185 5.13562C22.7224 5.07749 22.6123 5.04675 22.5 5.04675C22.3877 5.04675 22.2776 5.07749 22.1815 5.13562L4.7352 15.6909C4.64449 15.7458 4.56951 15.8232 4.51753 15.9156C4.46554 16.008 4.43831 16.1123 4.43848 16.2183V35.9114H0.615235C0.534382 35.9114 0.454322 35.9273 0.379632 35.9583C0.304943 35.9893 0.237089 36.0346 0.17995 36.0919C0.122811 36.1491 0.0775074 36.217 0.0466304 36.2917C0.0157533 36.3664 -9.20015e-05 36.4465 4.01822e-07 36.5273V39.3398C4.01822e-07 39.503 0.0648195 39.6595 0.180198 39.7749C0.295577 39.8903 0.452064 39.9551 0.615235 39.9551H44.3848C44.5479 39.9551 44.7044 39.8903 44.8198 39.7749C44.9352 39.6595 45 39.503 45 39.3398V36.5273C45.0002 36.4464 44.9845 36.3662 44.9537 36.2914C44.9229 36.2165 44.8776 36.1485 44.8204 36.0912C44.7633 36.0339 44.6954 35.9884 44.6206 35.9573C44.5459 35.9263 44.4657 35.9103 44.3848 35.9104ZM5.66895 29.6719H16.5234V32.4461H5.66895V29.6719ZM17.7539 23.2144C17.7547 22.4454 18.0606 21.7082 18.6043 21.1644C19.1481 20.6207 19.8853 20.3148 20.6543 20.314H21.8848V26.5943C21.8839 28.2617 21.5129 29.9082 20.7986 31.4148C20.0842 32.9215 19.0443 34.2507 17.7539 35.3067V23.2144ZM39.3311 32.4468H28.4766V29.6719H39.3311V32.4468ZM27.2461 35.3067C25.9556 34.2508 24.9157 32.9215 24.2013 31.4149C23.4869 29.9082 23.116 28.2617 23.1152 26.5943V20.314H24.3457C25.1147 20.3148 25.8519 20.6207 26.3957 21.1644C26.9394 21.7082 27.2453 22.4454 27.2461 23.2144V35.3067ZM19.1102 35.7564C20.6696 34.3139 21.8361 32.4983 22.5 30.4805C23.1902 32.5693 24.4142 34.4416 26.0508 35.9118H18.9492C19.0044 35.8594 19.0547 35.807 19.1102 35.7564ZM28.4766 33.6772H39.3311V35.9104H28.4766V33.6772ZM22.5 6.38086L39.3311 16.5642V28.4414H28.4766V23.2144C28.4753 22.1192 28.0396 21.0693 27.2652 20.2949C26.4908 19.5204 25.4409 19.0848 24.3457 19.0835H20.6543C19.5591 19.0847 18.5091 19.5203 17.7347 20.2948C16.9603 21.0692 16.5246 22.1192 16.5234 23.2144V28.4414H5.66895V16.5642L22.5 6.38086ZM5.66895 33.6772H16.5234V35.9104H5.66895V33.6772ZM43.7695 38.7229H1.23047V37.1408H43.7695V38.7229Z" fill="#034833"/>
<path d="M11.096 26.2825C11.6795 26.2826 12.2499 26.1096 12.735 25.7855C13.2202 25.4614 13.5984 25.0007 13.8217 24.4617C14.045 23.9226 14.1035 23.3295 13.9897 22.7572C13.8759 22.185 13.595 21.6593 13.1824 21.2467C12.7699 20.8341 12.2443 20.5531 11.672 20.4393C11.0998 20.3254 10.5066 20.3838 9.96756 20.6071C9.42851 20.8304 8.96777 21.2085 8.64361 21.6936C8.31944 22.1787 8.14642 22.7491 8.14642 23.3325C8.14726 24.1146 8.45828 24.8644 9.01125 25.4174C9.56421 25.9705 10.314 26.2816 11.096 26.2825ZM11.096 21.613C11.4361 21.613 11.7686 21.7138 12.0514 21.9027C12.3342 22.0916 12.5547 22.3601 12.6849 22.6743C12.8151 22.9885 12.8492 23.3342 12.7829 23.6678C12.7166 24.0013 12.5528 24.3078 12.3124 24.5483C12.0719 24.7888 11.7655 24.9526 11.432 25.019C11.0984 25.0853 10.7527 25.0513 10.4384 24.9212C10.1242 24.791 9.85566 24.5706 9.6667 24.2879C9.47775 24.0051 9.37689 23.6726 9.37689 23.3325C9.37773 22.8768 9.55911 22.44 9.88132 22.1177C10.2035 21.7954 10.6403 21.614 11.096 21.613Z" fill="#034833"/>
<path d="M22.4998 17.1537C23.0833 17.1537 23.6536 16.9807 24.1388 16.6565C24.6239 16.3323 25.002 15.8715 25.2253 15.3324C25.4485 14.7933 25.5069 14.2001 25.393 13.6278C25.2791 13.0556 24.998 12.53 24.5853 12.1174C24.1727 11.7049 23.6469 11.424 23.0746 11.3103C22.5023 11.1966 21.9091 11.2552 21.3701 11.4786C20.8311 11.7021 20.3705 12.0803 20.0464 12.5656C19.7224 13.0509 19.5496 13.6213 19.5498 14.2048C19.5509 14.9867 19.8621 15.7363 20.4151 16.2891C20.9681 16.8419 21.7178 17.1529 22.4998 17.1537ZM22.4998 12.4843C22.8398 12.4843 23.1722 12.5851 23.455 12.774C23.7377 12.9629 23.9581 13.2313 24.0883 13.5455C24.2184 13.8596 24.2526 14.2053 24.1863 14.5388C24.12 14.8723 23.9564 15.1787 23.716 15.4192C23.4756 15.6598 23.1693 15.8236 22.8359 15.8901C22.5024 15.9565 22.1567 15.9226 21.8425 15.7927C21.5283 15.6627 21.2596 15.4424 21.0706 15.1598C20.8815 14.8772 20.7805 14.5448 20.7803 14.2048C20.7808 13.7488 20.9621 13.3117 21.2845 12.9892C21.6068 12.6667 22.0438 12.4851 22.4998 12.4843Z" fill="#034833"/>
<path d="M33.9036 26.2825C34.4871 26.2826 35.0575 26.1096 35.5427 25.7855C36.0278 25.4614 36.406 25.0007 36.6293 24.4617C36.8526 23.9226 36.9111 23.3295 36.7973 22.7572C36.6835 22.185 36.4026 21.6593 35.9901 21.2467C35.5775 20.8341 35.0519 20.5531 34.4796 20.4393C33.9074 20.3254 33.3142 20.3838 32.7752 20.6071C32.2361 20.8304 31.7754 21.2085 31.4512 21.6936C31.1271 22.1787 30.954 22.7491 30.954 23.3325C30.9549 24.1146 31.2659 24.8644 31.8189 25.4174C32.3718 25.9705 33.1216 26.2816 33.9036 26.2825ZM33.9036 21.613C34.2437 21.613 34.5762 21.7138 34.859 21.9027C35.1419 22.0916 35.3623 22.3601 35.4925 22.6743C35.6227 22.9885 35.6568 23.3342 35.5905 23.6678C35.5242 24.0013 35.3605 24.3078 35.12 24.5483C34.8795 24.7888 34.5731 24.9526 34.2396 25.019C33.906 25.0853 33.5603 25.0513 33.2461 24.9212C32.9318 24.791 32.6633 24.5706 32.4743 24.2879C32.2854 24.0051 32.1845 23.6726 32.1845 23.3325C32.1853 22.8768 32.3667 22.44 32.6889 22.1177C33.0111 21.7954 33.4479 21.614 33.9036 21.613Z" fill="#034833"/>
</g>
<defs>
<clipPath id="clip0_204_2854">
<rect width="45" height="45" fill="white"/>
</clipPath>
</defs>
</svg>
