<svg width="45" height="45" viewBox="0 0 45 45" fill="none" xmlns="http://www.w3.org/2000/svg">
<g clip-path="url(#clip0_204_2921)">
<path d="M23.9062 27.7603H33.8379C34.001 27.7602 34.1575 27.6953 34.2728 27.58C34.3882 27.4646 34.453 27.3082 34.4531 27.145V22.9238C34.453 22.7607 34.3882 22.6043 34.2728 22.4889C34.1575 22.3735 34.001 22.3087 33.8379 22.3086H23.9062C23.7431 22.3087 23.5867 22.3735 23.4713 22.4889C23.356 22.6043 23.2911 22.7607 23.291 22.9238V27.145C23.2911 27.3082 23.356 27.4646 23.4713 27.58C23.5867 27.6953 23.7431 27.7602 23.9062 27.7603ZM24.5215 23.5391H33.2227V26.5298H24.5215V23.5391Z" fill="#034833"/>
<path d="M11.1621 27.7603H21.0938C21.2569 27.7602 21.4133 27.6953 21.5287 27.58C21.644 27.4646 21.7089 27.3082 21.709 27.145V22.9238C21.7089 22.7607 21.644 22.6043 21.5287 22.4889C21.4133 22.3735 21.2569 22.3087 21.0938 22.3086H11.1621C10.999 22.3087 10.8425 22.3735 10.7272 22.4889C10.6118 22.6043 10.547 22.7607 10.5469 22.9238V27.145C10.547 27.3082 10.6118 27.4646 10.7272 27.58C10.8425 27.6953 10.999 27.7602 11.1621 27.7603ZM11.7773 23.5391H20.4785V26.5298H11.7773V23.5391Z" fill="#034833"/>
<path d="M33.8379 36.7344H23.9063C23.7431 36.7345 23.5867 36.7993 23.4713 36.9147C23.356 37.03 23.2911 37.1865 23.291 37.3496V41.5708C23.2909 41.6517 23.3068 41.7318 23.3376 41.8065C23.3685 41.8813 23.4138 41.9492 23.4709 42.0064C23.5281 42.0637 23.5959 42.1091 23.6706 42.1401C23.7453 42.1711 23.8254 42.1871 23.9063 42.1871H33.8379C34.001 42.187 34.1575 42.1222 34.2728 42.0068C34.3882 41.8915 34.453 41.735 34.4531 41.5719V37.3496C34.453 37.1865 34.3882 37.03 34.2728 36.9147C34.1575 36.7993 34.001 36.7345 33.8379 36.7344ZM33.2227 40.9566H24.5215V37.9648H33.2227V40.9566Z" fill="#034833"/>
<path d="M17.5342 29.3438C17.371 29.3438 17.2146 29.4087 17.0992 29.5241C16.9839 29.6394 16.919 29.7958 16.9189 29.959V34.5374C16.9189 34.7006 16.9838 34.857 17.0991 34.9724C17.2145 35.0878 17.371 35.1526 17.5342 35.1526H27.4658C27.629 35.1526 27.7855 35.0878 27.9009 34.9724C28.0162 34.857 28.0811 34.7006 28.0811 34.5374V29.959C28.081 29.7958 28.0161 29.6394 27.9008 29.5241C27.7854 29.4087 27.629 29.3438 27.4658 29.3438H17.5342ZM26.8506 33.9221H18.1494V30.5742H26.8506V33.9221Z" fill="#034833"/>
<path d="M36.0352 22.9238V27.145C36.0352 27.3082 36.1001 27.4646 36.2155 27.58C36.3308 27.6953 36.4872 27.7602 36.6504 27.7603H41.5723C41.7354 27.7602 41.8918 27.6953 42.0072 27.58C42.1226 27.4646 42.1874 27.3082 42.1875 27.145V22.9238C42.1874 22.7607 42.1226 22.6043 42.0072 22.4889C41.8918 22.3735 41.7354 22.3087 41.5723 22.3086H36.6504C36.4872 22.3087 36.3308 22.3735 36.2155 22.4889C36.1001 22.6043 36.0352 22.7607 36.0352 22.9238ZM37.2656 23.5391H40.957V26.5298H37.2656V23.5391Z" fill="#034833"/>
<path d="M8.34961 36.7344H3.42773C3.26459 36.7345 3.10816 36.7993 2.9928 36.9147C2.87744 37.03 2.81259 37.1865 2.8125 37.3496V41.5708C2.81241 41.6517 2.82825 41.7318 2.85912 41.8065C2.89 41.8813 2.93529 41.9492 2.99243 42.0064C3.04956 42.0637 3.11741 42.1091 3.19211 42.1401C3.2668 42.1711 3.34687 42.1871 3.42773 42.1871H8.34961C8.51275 42.187 8.66919 42.1222 8.78454 42.0068C8.8999 41.8915 8.96475 41.735 8.96484 41.5719V37.3496C8.96475 37.1865 8.8999 37.03 8.78454 36.9147C8.66919 36.7993 8.51275 36.7345 8.34961 36.7344ZM7.73438 40.9566H4.04297V37.9648H7.73438V40.9566Z" fill="#034833"/>
<path d="M41.5723 36.7344H36.6504C36.4872 36.7345 36.3308 36.7993 36.2155 36.9147C36.1001 37.03 36.0352 37.1865 36.0352 37.3496V41.5708C36.0352 41.734 36.1001 41.8904 36.2155 42.0058C36.3308 42.1211 36.4872 42.186 36.6504 42.1861H41.5723C41.7354 42.186 41.8918 42.1211 42.0072 42.0058C42.1226 41.8904 42.1874 41.734 42.1875 41.5708V37.3496C42.1874 37.1865 42.1226 37.03 42.0072 36.9147C41.8918 36.7993 41.7354 36.7345 41.5723 36.7344ZM40.957 40.9566H37.2656V37.9648H40.957V40.9566Z" fill="#034833"/>
<path d="M3.42773 27.7603H8.34961C8.51275 27.7602 8.66918 27.6953 8.78454 27.58C8.8999 27.4646 8.96475 27.3082 8.96484 27.145V22.9238C8.96475 22.7607 8.8999 22.6043 8.78454 22.4889C8.66918 22.3735 8.51275 22.3087 8.34961 22.3086H3.42773C3.26459 22.3087 3.10816 22.3735 2.9928 22.4889C2.87744 22.6043 2.81259 22.7607 2.8125 22.9238V27.145C2.81259 27.3082 2.87744 27.4646 2.9928 27.58C3.10816 27.6953 3.26459 27.7602 3.42773 27.7603ZM4.04297 23.5391H7.73438V26.5298H4.04297V23.5391Z" fill="#034833"/>
<path d="M21.0938 36.7344H11.1621C10.999 36.7345 10.8425 36.7993 10.7272 36.9147C10.6118 37.03 10.547 37.1865 10.5469 37.3496V41.5708C10.5468 41.6517 10.5626 41.7318 10.5935 41.8065C10.6244 41.8813 10.6697 41.9492 10.7268 42.0064C10.7839 42.0637 10.8518 42.1091 10.9265 42.1401C11.0012 42.1711 11.0812 42.1871 11.1621 42.1871H21.0938C21.2569 42.187 21.4133 42.1222 21.5287 42.0068C21.644 41.8915 21.7089 41.735 21.709 41.5719V37.3496C21.7089 37.1865 21.644 37.03 21.5287 36.9147C21.4133 36.7993 21.2569 36.7345 21.0938 36.7344ZM20.4785 40.9566H11.7773V37.9648H20.4785V40.9566Z" fill="#034833"/>
<path d="M41.5723 29.3438H30.2783C30.1152 29.3438 29.9587 29.4087 29.8434 29.5241C29.728 29.6394 29.6632 29.7958 29.6631 29.959V34.5374C29.6631 34.7006 29.7279 34.857 29.8433 34.9724C29.9587 35.0878 30.1152 35.1526 30.2783 35.1526H41.5723C41.7354 35.1526 41.8919 35.0878 42.0073 34.9724C42.1227 34.857 42.1875 34.7006 42.1875 34.5374V29.959C42.1874 29.7958 42.1226 29.6394 42.0072 29.5241C41.8918 29.4087 41.7354 29.3438 41.5723 29.3438ZM40.957 33.9221H30.8936V30.5742H40.957V33.9221Z" fill="#034833"/>
<path d="M3.42773 35.1526H14.7217C14.8848 35.1526 15.0413 35.0878 15.1567 34.9724C15.2721 34.857 15.3369 34.7006 15.3369 34.5374V29.959C15.3368 29.7958 15.272 29.6394 15.1566 29.5241C15.0413 29.4087 14.8848 29.3438 14.7217 29.3438H3.42773C3.26459 29.3438 3.10816 29.4087 2.9928 29.5241C2.87744 29.6394 2.81259 29.7958 2.8125 29.959V34.5374C2.8125 34.7006 2.87732 34.857 2.9927 34.9724C3.10808 35.0878 3.26456 35.1526 3.42773 35.1526ZM4.04297 30.5742H14.1064V33.9221H4.04297V30.5742Z" fill="#034833"/>
<path d="M44.3848 0H40.0342C39.871 9.3144e-05 39.7146 0.0649422 39.5992 0.180301C39.4839 0.29566 39.419 0.452093 39.4189 0.615234V4.32809H33.0012L34.2668 3.01395C34.3801 2.89651 34.4421 2.73888 34.4391 2.57573C34.4362 2.41259 34.3686 2.25729 34.2512 2.144C34.1337 2.03072 33.9761 1.96872 33.8129 1.97166C33.6498 1.97459 33.4945 2.04221 33.3812 2.15965L31.5531 4.05809L29.725 2.15965C29.6117 2.04217 29.4564 1.9745 29.2932 1.97153C29.13 1.96856 28.9723 2.03054 28.8548 2.14383C28.7374 2.25711 28.6697 2.41243 28.6667 2.57561C28.6638 2.73879 28.7257 2.89646 28.839 3.01395L30.1064 4.32809H23.9481L25.2155 3.01395C25.3288 2.89646 25.3907 2.73879 25.3878 2.57561C25.3848 2.41243 25.3171 2.25711 25.1996 2.14383C25.0822 2.03054 24.9245 1.96856 24.7613 1.97153C24.5981 1.9745 24.4428 2.04217 24.3295 2.15965L22.5 4.05703L20.6719 2.15859C20.5586 2.04111 20.4033 1.97344 20.2401 1.97048C20.0769 1.96751 19.9192 2.02949 19.8018 2.14277C19.6843 2.25606 19.6166 2.41138 19.6136 2.57456C19.6107 2.73773 19.6726 2.89541 19.7859 3.01289L21.0516 4.32703H14.895L16.1606 3.01289C16.2739 2.89541 16.3359 2.73773 16.3329 2.57456C16.33 2.41138 16.2623 2.25606 16.1448 2.14277C16.0273 2.02949 15.8696 1.96751 15.7065 1.97048C15.5433 1.97344 15.388 2.04111 15.2747 2.15859L13.4466 4.05703L11.6184 2.15859C11.5623 2.10045 11.4953 2.05391 11.4213 2.02166C11.3472 1.9894 11.2675 1.97205 11.1867 1.9706C11.1059 1.96915 11.0256 1.98362 10.9505 2.01319C10.8753 2.04276 10.8066 2.08686 10.7485 2.14295C10.6903 2.19904 10.6438 2.26604 10.6116 2.34012C10.5793 2.41419 10.562 2.4939 10.5605 2.57468C10.5591 2.65546 10.5735 2.73574 10.6031 2.81093C10.6327 2.88611 10.6768 2.95474 10.7329 3.01289L11.9985 4.32703H5.58106V0.61418C5.58068 0.451221 5.51571 0.295058 5.40038 0.179928C5.28505 0.0647969 5.12878 9.26413e-05 4.96582 0L0.615235 0C0.452276 9.26413e-05 0.296002 0.0647969 0.180673 0.179928C0.0653449 0.295058 0.000372641 0.451221 4.01707e-07 0.61418V44.3837C-9.1981e-05 44.4646 0.0157508 44.5447 0.0466235 44.6194C0.0774963 44.6942 0.122794 44.7621 0.179928 44.8193C0.237063 44.8766 0.304914 44.922 0.379606 44.953C0.454297 44.984 0.534365 45 0.615235 45H44.3848C44.5479 44.9999 44.7043 44.9351 44.8197 44.8197C44.9351 44.7043 44.9999 44.5479 45 44.3848V0.61418C44.9996 0.451221 44.9347 0.295058 44.8193 0.179928C44.704 0.0647969 44.5477 9.26413e-05 44.3848 0ZM40.6494 1.23047H43.7695V19.4977H40.6494V1.23047ZM5.58106 19.4977V14.3216H11.9988L10.7332 15.6357C10.6199 15.7532 10.5579 15.9108 10.5609 16.074C10.5638 16.2371 10.6314 16.3924 10.7488 16.5057C10.8663 16.619 11.0239 16.681 11.1871 16.678C11.3502 16.6751 11.5055 16.6075 11.6188 16.49L13.4469 14.5916L15.275 16.49C15.3883 16.6075 15.5436 16.6752 15.7068 16.6782C15.87 16.6811 16.0277 16.6191 16.1452 16.5059C16.2626 16.3926 16.3303 16.2373 16.3333 16.0741C16.3362 15.9109 16.2743 15.7532 16.161 15.6357L14.8954 14.3216H21.0519L19.7863 15.6357C19.673 15.7532 19.611 15.9109 19.614 16.0741C19.617 16.2373 19.6846 16.3926 19.8021 16.5059C19.9196 16.6191 20.0773 16.6811 20.2404 16.6782C20.4036 16.6752 20.5589 16.6075 20.6722 16.49L22.5004 14.5916L24.3285 16.49C24.4418 16.6075 24.5971 16.6752 24.7603 16.6782C24.9234 16.6811 25.0811 16.6191 25.1986 16.5059C25.3161 16.3926 25.3837 16.2373 25.3867 16.0741C25.3897 15.9109 25.3277 15.7532 25.2144 15.6357L23.947 14.3216H30.105L28.8376 15.6357C28.7243 15.7532 28.6624 15.9109 28.6653 16.0741C28.6683 16.2373 28.736 16.3926 28.8534 16.5059C28.9709 16.6191 29.1286 16.6811 29.2918 16.6782C29.455 16.6752 29.6103 16.6075 29.7236 16.49L31.5517 14.5916L33.3798 16.49C33.4359 16.5482 33.5029 16.5947 33.577 16.627C33.6511 16.6592 33.7308 16.6766 33.8115 16.678C33.8923 16.6795 33.9726 16.665 34.0478 16.6354C34.123 16.6059 34.1916 16.5618 34.2497 16.5057C34.3079 16.4496 34.3544 16.3826 34.3867 16.3085C34.4189 16.2344 34.4363 16.1547 34.4377 16.074C34.4392 15.9932 34.4247 15.9129 34.3951 15.8377C34.3656 15.7625 34.3215 15.6939 34.2654 15.6357L32.9998 14.3216H39.4175V19.4977H5.58106ZM11.9988 5.55855L10.7332 6.8727C10.6199 6.99013 10.5579 7.14776 10.5609 7.31091C10.5638 7.47405 10.6314 7.62935 10.7488 7.74264C10.8663 7.85592 11.0239 7.91792 11.1871 7.91498C11.3502 7.91205 11.5055 7.84443 11.6188 7.72699L13.4469 5.82855L15.275 7.72699C15.3311 7.78516 15.3981 7.83172 15.4722 7.86399C15.5463 7.89627 15.626 7.91364 15.7068 7.91511C15.7876 7.91658 15.8679 7.90212 15.9431 7.87256C16.0183 7.84299 16.087 7.79891 16.1452 7.74281C16.2033 7.68672 16.2499 7.61972 16.2822 7.54563C16.3144 7.47155 16.3318 7.39183 16.3333 7.31103C16.3347 7.23023 16.3203 7.14994 16.2907 7.07473C16.2612 6.99952 16.2171 6.93087 16.161 6.8727L14.8954 5.55855H21.0519L19.7863 6.8727C19.673 6.99018 19.611 7.14785 19.614 7.31103C19.617 7.47421 19.6846 7.62953 19.8021 7.74281C19.9196 7.8561 20.0773 7.91808 20.2404 7.91511C20.4036 7.91214 20.5589 7.84447 20.6722 7.72699L22.5004 5.82855L24.3285 7.72699C24.4418 7.84447 24.5971 7.91214 24.7603 7.91511C24.9234 7.91808 25.0811 7.8561 25.1986 7.74281C25.3161 7.62953 25.3837 7.47421 25.3867 7.31103C25.3897 7.14785 25.3277 6.99018 25.2144 6.8727L23.947 5.55855H30.105L28.8376 6.8727C28.7243 6.99018 28.6624 7.14785 28.6653 7.31103C28.6683 7.47421 28.736 7.62953 28.8534 7.74281C28.9709 7.8561 29.1286 7.91808 29.2918 7.91511C29.455 7.91214 29.6103 7.84447 29.7236 7.72699L31.5517 5.82855L33.3798 7.72699C33.4931 7.84443 33.6484 7.91205 33.8115 7.91498C33.9747 7.91792 34.1323 7.85592 34.2497 7.74264C34.3672 7.62935 34.4348 7.47405 34.4377 7.31091C34.4407 7.14776 34.3787 6.99013 34.2654 6.8727L32.9998 5.55855H39.4175V13.0911H33.0012L34.2668 11.7766C34.3247 11.7189 34.3705 11.6501 34.4015 11.5744C34.4326 11.4988 34.4482 11.4177 34.4475 11.3359C34.4468 11.2541 34.4298 11.1732 34.3975 11.0981C34.3652 11.0229 34.3182 10.955 34.2593 10.8982C34.2004 10.8414 34.1308 10.797 34.0546 10.7674C33.9783 10.7379 33.8969 10.7238 33.8151 10.7261C33.7334 10.7284 33.6529 10.7469 33.5784 10.7807C33.5039 10.8144 33.4368 10.8627 33.3812 10.9227L31.5531 12.8211L29.725 10.9227C29.6117 10.8052 29.4564 10.7375 29.2933 10.7345C29.1302 10.7315 28.9725 10.7935 28.855 10.9067C28.7375 11.0199 28.6699 11.1752 28.6669 11.3384C28.6639 11.5015 28.7258 11.6592 28.839 11.7766L30.1064 13.0911H23.9481L25.2155 11.7773C25.3287 11.6599 25.3906 11.5022 25.3876 11.3391C25.3846 11.1759 25.317 11.0206 25.1995 10.9074C25.082 10.7942 24.9243 10.7322 24.7612 10.7352C24.598 10.7382 24.4428 10.8059 24.3295 10.9234L22.5014 12.8218L20.6733 10.9234C20.6172 10.8652 20.5502 10.8187 20.4762 10.7864C20.4021 10.7541 20.3224 10.7367 20.2416 10.7352C20.1608 10.7337 20.0806 10.7482 20.0054 10.7777C19.9302 10.8073 19.8615 10.8513 19.8033 10.9074C19.7452 10.9635 19.6986 11.0305 19.6663 11.1045C19.634 11.1786 19.6167 11.2583 19.6152 11.3391C19.6137 11.4198 19.6281 11.5001 19.6577 11.5753C19.6872 11.6505 19.7313 11.7192 19.7873 11.7773L21.053 13.0918H14.895L16.1606 11.7773C16.2739 11.6599 16.3358 11.5022 16.3328 11.3391C16.3298 11.1759 16.2621 11.0206 16.1446 10.9074C16.0271 10.7942 15.8695 10.7322 15.7063 10.7352C15.5432 10.7382 15.3879 10.8059 15.2747 10.9234L13.4466 12.8218L11.6184 10.9234C11.5052 10.8058 11.3499 10.738 11.1867 10.735C11.0235 10.7319 10.8657 10.7938 10.7481 10.9071C10.6306 11.0203 10.5628 11.1756 10.5597 11.3388C10.5567 11.502 10.6186 11.6598 10.7318 11.7773L11.9974 13.0918H5.58106V5.55855H11.9988ZM1.23047 1.23047H4.35059V19.4977H1.23047V1.23047ZM43.7695 43.7695H1.23047V20.7281H43.7695V43.7695Z" fill="#034833"/>
</g>
<defs>
<clipPath id="clip0_204_2921">
<rect width="45" height="45" fill="white"/>
</clipPath>
</defs>
</svg>
