<svg width="45" height="45" viewBox="0 0 45 45" fill="none" xmlns="http://www.w3.org/2000/svg">
<path d="M25.875 29.6016H3.05859C2.70703 29.6016 2.46094 29.8828 2.46094 30.1992V32.5898C2.46094 32.9414 2.74219 33.1875 3.05859 33.1875H25.875C26.2266 33.1875 26.4727 32.9063 26.4727 32.5898V30.1992C26.4727 29.8828 26.1914 29.6016 25.875 29.6016ZM25.2422 31.9922H3.65625V30.832H25.2422V31.9922Z" fill="white"/>
<path d="M21.0586 34.3828H7.875C7.52344 34.3828 7.27734 34.6641 7.27734 34.9805V37.3711C7.27734 37.7227 7.55859 37.9687 7.875 37.9687H21.0586C21.4102 37.9687 21.6562 37.6875 21.6562 37.3711V34.9805C21.6562 34.6641 21.375 34.3828 21.0586 34.3828ZM20.4258 36.8086H8.47266V35.6484H20.4258V36.8086Z" fill="white"/>
<path d="M30.4805 14.2734L32.625 13.4297V14.4844L31.2891 16.1016C31.1836 16.207 31.1484 16.3477 31.1484 16.4883V18C31.1484 18.457 31.6406 18.7734 32.0625 18.5273L34.418 17.2266C35.3672 16.6992 35.9648 15.6797 35.9648 14.5898V6.85547C35.9648 6.50391 35.6836 6.25781 35.3672 6.25781H34.418C33.4336 6.25781 32.5898 7.06641 32.5898 8.08594V9.98437L30.5859 11.2148C29.9883 11.5664 29.6367 12.2344 29.6367 12.9375V13.7109C29.6367 14.1328 30.0937 14.4492 30.4805 14.2734ZM31.2539 12.2695L33.5742 10.8281C33.75 10.7227 33.8555 10.5117 33.8555 10.3008V8.05078C33.8555 7.73438 34.1016 7.45313 34.4531 7.45313H34.7695V14.5547C34.7695 15.1875 34.418 15.7852 33.8555 16.1016L32.4141 16.9102V16.6641L33.7148 15.082C33.8203 14.9766 33.8555 14.8359 33.8555 14.6953V12.5156C33.8555 12.0937 33.4336 11.7773 33.0117 11.9531L30.9023 12.7969C30.9023 12.5859 31.043 12.375 31.2539 12.2695Z" fill="white"/>
<path d="M44.7891 13.1494C31.3945 -0.245117 36.0351 4.39551 35.0156 3.37598C34.7695 3.12988 34.3828 3.12988 34.1367 3.37598L28.1602 9.3877C27.4219 8.33301 26.2266 7.73535 24.9609 7.73535H24.3984V3.83301C24.3984 3.44629 24.0469 3.16504 23.6602 3.23535L0.527344 7.73535C0.246094 7.80566 0.0351562 8.05176 0.0351562 8.33301V41.2041C0.0351562 41.5557 0.316406 41.8018 0.632812 41.8018H28.2305C28.582 41.8018 28.8281 41.5205 28.8281 41.2041V29.9541L44.7539 14.0283C45.0351 13.7822 45.0351 13.3955 44.7891 13.1494ZM28.7227 10.5479L34.5937 4.67676L41.7656 11.8486C41.0977 12.5166 30.3047 23.3096 28.8633 24.751V11.6377C28.8633 11.251 28.8281 10.8994 28.7227 10.5479ZM23.168 4.57129V7.7002H7.03125L23.168 4.57129ZM1.26562 40.5713V8.93066H24.9609C26.4375 8.93066 27.6328 10.126 27.6328 11.6025V40.5361H1.26562V40.5713ZM28.8633 28.1963V26.5088L42.6445 12.7275L43.4883 13.5713L28.8633 28.1963Z" fill="white"/>
</svg>
